<svg xmlns="http://www.w3.org/2000/svg" xmlns:xlink="http://www.w3.org/1999/xlink" width="640" height="480">
  <defs>
    <symbol id="phone" viewBox="0 0 24 24">
      <path d="M17.33,15.09c-0.01,0.36-0.08,0.72-0.23,1.05c-0.22,0.39-0.58,0.68-1,0.83  c-0.42,0.21-0.89,0.33-1.36,0.35h-0.35l-0.32-0.05l-0.34-0.09l-0.31-0.1l-0.34-0.13l-0.31-0.11c-1.26-0.5-2.4-1.27-3.34-2.25  c-0.98-0.94-1.75-2.08-2.25-3.34l-0.11-0.31L6.94,10.6l-0.1-0.31c-0.04-0.11-0.07-0.23-0.09-0.34c0-0.09-0.02-0.19-0.05-0.32  c-0.01-0.12-0.01-0.23,0-0.35c0-0.48,0.1-0.96,0.3-1.4c0.15-0.42,0.44-0.78,0.83-1c0.33-0.15,0.69-0.22,1.05-0.23h0.17  C9.12,6.7,9.18,6.77,9.22,6.84C9.31,6.97,9.4,7.12,9.48,7.26l0.3,0.53L10,8.27l0.16,0.3l0.14,0.2c0.06,0.08,0.12,0.17,0.16,0.26  c0.03,0.07,0.05,0.14,0.05,0.22c-0.02,0.15-0.1,0.28-0.21,0.38c-0.14,0.15-0.3,0.29-0.47,0.41c-0.17,0.12-0.32,0.25-0.47,0.4  c-0.11,0.09-0.18,0.21-0.21,0.35c-0.01,0.06-0.01,0.11,0,0.17l0.07,0.16l0.1,0.18l0.09,0.15c0.36,0.65,0.8,1.25,1.32,1.78  c0.52,0.52,1.12,0.97,1.77,1.32l0.15,0.09l0.18,0.1L13,14.79c0.06,0.01,0.11,0.01,0.17,0c0.14-0.03,0.26-0.1,0.35-0.21  c0.15-0.15,0.28-0.3,0.4-0.47c0.12-0.17,0.26-0.33,0.41-0.47c0.1-0.11,0.23-0.19,0.38-0.21c0.08,0,0.15,0.02,0.22,0.05  c0.09,0.04,0.18,0.1,0.26,0.16l0.2,0.14L15.73,14l0.47,0.26l0.49,0.28c0.14,0.08,0.29,0.17,0.42,0.26c0.07,0.04,0.14,0.1,0.19,0.17  c0.01,0.06,0.01,0.11,0,0.17l0,0L17.33,15.09z M19.12,4.88C18.56,4.31,17.8,3.99,17,4H7C5.34,4,4,5.34,4,7v10c0,1.66,1.34,3,3,3h10  c1.66,0,3-1.34,3-3V7C20.01,6.2,19.69,5.44,19.12,4.88z"></path>
    </symbol>
    <symbol id="twiter" viewBox="0 0 24 24">
       <path d="M17.33,9c-0.29,0.44-0.66,0.82-1.09,1.13c0,0.09,0,0.19,0,0.28c0.01,1.22-0.34,2.41-1,3.44  c-0.34,0.54-0.76,1.04-1.24,1.46c-0.52,0.44-1.11,0.77-1.75,1c-0.7,0.25-1.44,0.38-2.19,0.37c-1.19,0-2.35-0.35-3.35-1  c0.17,0.01,0.35,0.01,0.52,0c0.99,0.01,1.95-0.33,2.72-0.94c-0.46,0-0.91-0.16-1.27-0.44c-0.36-0.27-0.64-0.65-0.78-1.08h0.41  c0.18,0,0.36-0.03,0.53-0.08c-0.5-0.09-0.95-0.36-1.28-0.75C7.22,12.03,7.02,11.56,7,11.07l0,0c0.31,0.16,0.65,0.25,1,0.27  c-0.61-0.41-0.95-1.11-0.9-1.84c0-0.39,0.1-0.77,0.3-1.1c1.12,1.37,2.76,2.2,4.52,2.29c-0.04-0.16-0.05-0.33-0.05-0.5  c0-1.21,0.97-2.18,2.18-2.19c0.61-0.01,1.19,0.24,1.59,0.69c0.48-0.1,0.94-0.28,1.36-0.53c-0.16,0.52-0.52,0.96-1,1.22  C16.46,9.32,16.91,9.19,17.33,9L17.33,9z M19.12,4.86C18.56,4.29,17.79,3.98,17,4H7C5.34,4,4,5.34,4,7v10c0,1.66,1.34,3,3,3h10  c1.66,0,3-1.34,3-3V7c0.01-0.8-0.31-1.57-0.88-2.12L19.12,4.86z"></path>
    </symbol>
    <symbol id="facebook" viewBox="0 0 24 24">
      <path d="M4.89,4C4.4,4,4,4.4,4,4.89v14.22c0.01,0.48,0.4,0.87,0.88,0.88h7.65V13.8h-2.07v-2.41h2.08V9.61  c-0.05-0.87,0.25-1.72,0.85-2.35c0.61-0.57,1.43-0.87,2.26-0.83c0.62-0.01,1.24,0.02,1.85,0.09v2.15h-1.26  c-0.36-0.06-0.73,0.05-1,0.29C15.06,9.21,14.98,9.52,15,9.83v1.54h2.38l-0.27,2.43H15V20h4.07c0.49,0.02,0.91-0.36,0.93-0.85  c0-0.01,0-0.03,0-0.04V4.89C20,4.4,19.6,4,19.11,4H4.89z"></path>
    </symbol>
    <symbol id="whatsapp" viewBox="0 0 24 24">
      <path d="M14.29,12.81c-0.22,0.11-0.41,0.29-0.54,0.5c-0.13,0.22-0.33,0.4-0.56,0.5c-0.08,0-0.16-0.03-0.23-0.07  c-0.57-0.27-1.1-0.63-1.57-1.05c-0.44-0.4-0.8-0.89-1.06-1.43c-0.03-0.05-0.05-0.1-0.05-0.16c0.08-0.19,0.2-0.35,0.36-0.48  c0.2-0.15,0.34-0.37,0.39-0.62c-0.07-0.27-0.16-0.53-0.26-0.78L10.43,8.3c-0.04-0.12-0.12-0.22-0.21-0.3  c-0.09-0.03-0.18-0.03-0.27,0h-0.2H9.56C9.37,7.99,9.18,8.06,9.03,8.18C8.56,8.6,8.28,9.2,8.26,9.83v0.08c0.04,0.73,0.3,1.42,0.74,2  c0.45,0.69,0.97,1.33,1.54,1.93c0.51,0.51,1.11,0.93,1.77,1.23c0.62,0.34,1.3,0.56,2,0.65c0.37-0.01,0.73-0.11,1.06-0.28  c0.32-0.13,0.59-0.37,0.74-0.68c0.09-0.24,0.15-0.5,0.15-0.76c0.01-0.05,0.01-0.11,0-0.16c-0.29-0.22-0.6-0.4-0.93-0.55  c-0.31-0.19-0.65-0.35-1-0.46l0,0L14.29,12.81z M12.18,18.33c-1.28,0.01-2.53-0.37-3.59-1.08L6.03,18l0.82-2.43  C5.5,13.73,5.22,11.3,6.12,9.2c0.67-1.56,1.94-2.8,3.52-3.43c1.62-0.69,3.45-0.69,5.07,0c1.57,0.65,2.83,1.91,3.48,3.48  c0.69,1.62,0.69,3.45,0,5.07c-0.65,1.57-1.91,2.83-3.48,3.48c-0.8,0.35-1.67,0.52-2.54,0.52l0,0L12.18,18.33z M12.18,3.94  c-1.03,0-2.05,0.21-3,0.62C7.27,5.34,5.74,6.85,4.95,8.75c-0.99,2.31-0.8,4.95,0.5,7.1l-1.42,4.21l4.34-1.4c1.16,0.66,2.47,1,3.8,1  c1.03,0,2.05-0.21,3-0.62c1.89-0.79,3.39-2.29,4.18-4.18c0.83-1.94,0.83-4.15,0-6.09c-0.79-1.89-2.29-3.39-4.18-4.18  c-0.95-0.41-1.97-0.62-3-0.62l0,0L12.18,3.94z" style="fill: rgb(10, 26, 78);"></path>
    </symbol>
    <symbol id="linkedin" viewBox="0 0 24 24">
      <path d="M6.47,17.39v-7.22h2.41v7.23H6.47V17.39z M8.66,8.83c-0.27,0.25-0.63,0.38-1,0.36l0,0  c-0.37,0.03-0.73-0.11-1-0.36C6.42,8.6,6.28,8.28,6.29,7.94C6.28,7.58,6.43,7.23,6.71,7c0.27-0.24,0.63-0.37,1-0.35  c0.37-0.03,0.73,0.1,1,0.35c0.24,0.24,0.38,0.56,0.37,0.9C9.09,8.26,8.93,8.6,8.66,8.83z M15.13,17.39v-3.86  c0-1.09-0.4-1.63-1.21-1.63c-0.28-0.01-0.55,0.08-0.77,0.26c-0.2,0.17-0.37,0.38-0.47,0.62c-0.06,0.19-0.08,0.38-0.07,0.58v4H10.2  c0-4.36,0-6.77,0-7.23h2.4v1.05l0,0c0.45-0.76,1.28-1.21,2.16-1.18c0.75-0.03,1.48,0.27,2,0.82c0.55,0.68,0.82,1.55,0.76,2.43v4.14  H15.13L15.13,17.39z M19.13,4.88C18.57,4.3,17.8,3.99,17,4H7C5.34,4,4,5.34,4,7v10c0,1.66,1.34,3,3,3h10c1.66,0,3-1.34,3-3V7  C20.01,6.2,19.69,5.44,19.13,4.88L19.13,4.88z"></path>
    </symbol>
   <symbol id="desenvolvimento" viewBox="-1.5045000000000002 0 51 51">
      <path d="M27.8,21.8h-2.2l-5.6,15.4h2.2L27.8,21.8z M18.7,32.8L13,30.7l-0.2,0v-0.1l0.2,0l5.6-2.2V26l-8.2,3.6v1.9l8.2,3.6V32.8z     M14.5,4c-1.3,0-2.4,1.1-2.4,2.5c0,1.4,1.1,2.5,2.4,2.5s2.4-1.1,2.4-2.5C16.9,5.1,15.8,4,14.5,4z M44,0H4C1.8,0,0,1.8,0,4v43    c0,2.2,1.8,4,4,4h40c2.2,0,4-1.8,4-4V4C48,1.8,46.2,0,44,0z M46,47c0,1.1-0.9,2-2,2H4c-1.1,0-2-0.9-2-2V13h44V47z M46,11H2V4    c0-1.1,0.9-2,2-2h40c1.1,0,2,0.9,2,2V11z M22.6,4c-1.3,0-2.4,1.1-2.4,2.5c0,1.4,1.1,2.5,2.4,2.5C23.9,9,25,7.9,25,6.5    C25,5.1,23.9,4,22.6,4z M6.4,4C5.1,4,4,5.1,4,6.5C4,7.9,5.1,9,6.4,9c1.3,0,2.4-1.1,2.4-2.5C8.8,5.1,7.8,4,6.4,4z M37.9,29.7    L29.5,26v2.3l5.9,2.2l0.2,0l0,0.1l-0.2,0l-5.9,2.2v2.3l8.4-3.6V29.7z"></path>
   </symbol>
   <symbol id="comercial" viewBox="0 -78.51771956856703 684 684">
      <path d="M473.6,52.6V0H210.5v52.6H0v473.6h684V52.6H473.6z M236.8,26.3h210.5v26.3H236.8V26.3z M657.7,499.9H26.3V78.9h52.6v52.6  h26.3V78.9h473.6v52.6h26.3V78.9h52.6V499.9z"></path>
   </symbol>
  <symbol id="rh" viewBox="-2 0 50 50">
  		<path d="M39.9,16.2c0.5-1.4,0.8-2.9,0.8-4.6C40.7,5.2,36.3,0,30.8,0c-4.2,0-7.9,3.1-9.3,7.8c-1.1-0.4-2.3-0.6-3.5-0.6    c-6.4,0-11.7,6.2-11.7,13.8s5.2,13.8,11.7,13.8c4.1,0,7.7-2.5,9.8-6.3c2.6,2,4.5,4.7,5.5,7.7c0.5,1.6,0.8,3.3,0.8,5    c0,2.6-0.9,5.4-2.1,7.7H4c-1.2-2.3-2-5.1-2-7.7c0-3.2,1-6.4,2.8-9L3.1,31C1.1,34,0,37.5,0,41.2c0,3.2,0.8,6.3,2.4,9L3,50.8h30    l0.7-0.7c1.6-2.7,2.4-5.9,2.4-9c0-1.5-0.2-3-0.6-4.5h7.6l0.3-0.5c1-1.6,2.6-4.7,2.6-7.9C46,23.5,43.7,19,39.9,16.2z M30.8,2    c4.3,0,7.8,4.3,7.8,9.6c0,5.3-3.5,9.6-7.8,9.6c-0.4,0-0.8,0-1.1-0.1c0-0.1,0-0.1,0-0.2c0-5.3-2.6-10-6.3-12.3    C24.4,4.7,27.4,2,30.8,2z M18.1,32.7c-5.3,0-9.7-5.3-9.7-11.8c0-6.5,4.3-11.8,9.7-11.8s9.7,5.3,9.7,11.8    C27.7,27.4,23.4,32.7,18.1,32.7z M42,34.7h-7.1c-1.2-3.2-3.4-6.1-6.2-8.1c0.4-1.1,0.7-2.2,0.9-3.5c0.4,0.1,0.9,0.1,1.3,0.1    c3.4,0,6.4-2.1,8.2-5.2c3.1,2.5,5,6.3,5,10.3C44,30.7,42.8,33.2,42,34.7z" style="fill: rgb(10, 26, 78);"></path>
   </symbol>
   <symbol id="rh" viewBox="-2 0 50 50">
  		<path d="M39.9,16.2c0.5-1.4,0.8-2.9,0.8-4.6C40.7,5.2,36.3,0,30.8,0c-4.2,0-7.9,3.1-9.3,7.8c-1.1-0.4-2.3-0.6-3.5-0.6    c-6.4,0-11.7,6.2-11.7,13.8s5.2,13.8,11.7,13.8c4.1,0,7.7-2.5,9.8-6.3c2.6,2,4.5,4.7,5.5,7.7c0.5,1.6,0.8,3.3,0.8,5    c0,2.6-0.9,5.4-2.1,7.7H4c-1.2-2.3-2-5.1-2-7.7c0-3.2,1-6.4,2.8-9L3.1,31C1.1,34,0,37.5,0,41.2c0,3.2,0.8,6.3,2.4,9L3,50.8h30    l0.7-0.7c1.6-2.7,2.4-5.9,2.4-9c0-1.5-0.2-3-0.6-4.5h7.6l0.3-0.5c1-1.6,2.6-4.7,2.6-7.9C46,23.5,43.7,19,39.9,16.2z M30.8,2    c4.3,0,7.8,4.3,7.8,9.6c0,5.3-3.5,9.6-7.8,9.6c-0.4,0-0.8,0-1.1-0.1c0-0.1,0-0.1,0-0.2c0-5.3-2.6-10-6.3-12.3    C24.4,4.7,27.4,2,30.8,2z M18.1,32.7c-5.3,0-9.7-5.3-9.7-11.8c0-6.5,4.3-11.8,9.7-11.8s9.7,5.3,9.7,11.8    C27.7,27.4,23.4,32.7,18.1,32.7z M42,34.7h-7.1c-1.2-3.2-3.4-6.1-6.2-8.1c0.4-1.1,0.7-2.2,0.9-3.5c0.4,0.1,0.9,0.1,1.3,0.1    c3.4,0,6.4-2.1,8.2-5.2c3.1,2.5,5,6.3,5,10.3C44,30.7,42.8,33.2,42,34.7z" style="fill: rgb(10, 26, 78);"></path>
   </symbol>
   <symbol id="hamburguer" viewBox="0 0 32 32">
      <path d="M4 27h28v-3H4v3zm0-8h28v-3H4v3zM4 8v3h28V8H4z"></path>
    </symbol>
    <symbol id="close" viewBox="0 0 24 24">
      <path d="M19 6.41L17.59 5 12 10.59 6.41 5 5 6.41 10.59 12 5 17.59 6.41 19 12 13.41 17.59 19 19 17.59 13.41 12z"></path>
    </symbol>
    <symbol id="icon--success" viewBox="0 0 24 24">
      <path d="M9 16.17L4.83 12l-1.42 1.41L9 19 21 7l-1.41-1.41z"></path>
    </symbol>
    <symbol id="icon--error" viewBox="0 0 24 24">
      <path d="M12 2C6.48 2 2 6.48 2 12s4.48 10 10 10 10-4.48 10-10S17.52 2 12 2zm1 15h-2v-2h2v2zm0-4h-2V7h2v6z"></path>
    </symbol>
    <symbol id="icon--warning" viewBox="0 0 24 24">
      <path d="M23 12l-2.44-2.78.34-3.68-3.61-.82-1.89-3.18L12 3 8.6 1.54 6.71 4.72l-3.61.81.34 3.68L1 12l2.44 2.78-.34 3.69 3.61.82 1.89 3.18L12 21l3.4 1.46 1.89-3.18 3.61-.82-.34-3.68L23 12zm-10 5h-2v-2h2v2zm0-4h-2V7h2v6z"></path>
    </symbol>
    <symbol id="icon--down" viewBox="0 0 307.053 307.053">
      <path d="M302.445,80.796l-11.101-11.103c-6.123-6.131-16.074-6.131-22.209,0L153.67,183.707L37.907,67.959
	  			c-6.134-6.13-16.08-6.13-22.209,0L4.597,79.06c-6.129,6.133-6.129,16.067,0,22.201l137.83,137.829
	  			c6.129,6.136,16.067,6.136,22.203,0l137.815-136.096C308.589,96.864,308.589,86.926,302.445,80.796z">
      </path>
    </symbol>
    <symbol id="instagram" viewBox="0 0 24 24">
      <path d="M7.8,2H16.2C19.4,2 22,4.6 22,7.8V16.2A5.8,5.8 0 0,1 16.2,22H7.8C4.6,22 2,19.4 2,16.2V7.8A5.8,5.8 0 0,1 7.8,2M7.6,4A3.6,3.6 0 0,0 4,7.6V16.4C4,18.39 5.61,20 7.6,20H16.4A3.6,3.6 0 0,0 20,16.4V7.6C20,5.61 18.39,4 16.4,4H7.6M17.25,5.5A1.25,1.25 0 0,1 18.5,6.75A1.25,1.25 0 0,1 17.25,8A1.25,1.25 0 0,1 16,6.75A1.25,1.25 0 0,1 17.25,5.5M12,7A5,5 0 0,1 17,12A5,5 0 0,1 12,17A5,5 0 0,1 7,12A5,5 0 0,1 12,7M12,9A3,3 0 0,0 9,12A3,3 0 0,0 12,15A3,3 0 0,0 15,12A3,3 0 0,0 12,9Z"/>
    </symbol>
</defs>
  <g>
    <use xlink:href="#phone" width="27" height="27" x="3" y="5"/>
    <use xlink:href="#twiter" width="27" height="27" x="31" y="5"/>
    <use xlink:href="#facebook" width="27" height="27" x="60" y="5"/>
    <use xlink:href="#whatsapp" width="27" height="27" x="90" y="5"/>
    <use xlink:href="#linkedin" width="27" height="27" x="120" y="5"/>
    <use xlink:href="#desenvolvimento" width="27" height="27" x="145" y="5"/>
    <use xlink:href="#comercial" width="27" height="27" x="175" y="5"/>
    <use xlink:href="#rh" width="27" height="27" x="205" y="5"/>
    <use xlink:href="#hamburguer" width="27" height="27" x="235" y="5"/>
    <use xlink:href="#close" width="27" height="27" x="265" y="5"/>
    <use xlink:href="#icon--success" width="27" height="27" x="295" y="5"/>
    <use xlink:href="#icon--error" width="27" height="27" x="325" y="5"/>
    <use xlink:href="#icon--warning" width="27" height="27" x="355" y="5"/>
    <use xlink:href="#icon--down" width="27" height="27" x="385" y="5"/>
    <use xlink:href="#instagram" width="27" height="27" x="415" y="5"/>
  </g>
</svg>
