<?xml version="1.0" encoding="UTF-8"?>
<!DOCTYPE svg PUBLIC "-//W3C//DTD SVG 1.0//EN" "http://www.w3.org/TR/2001/REC-SVG-20010904/DTD/svg10.dtd">
<!-- Creator: CorelDRAW 2018 (64 Bit) -->
<svg xmlns="http://www.w3.org/2000/svg" xml:space="preserve" width="1400mm" height="130mm" version="1.0" style="shape-rendering:geometricPrecision; text-rendering:geometricPrecision; image-rendering:optimizeQuality; fill-rule:evenodd; clip-rule:evenodd"
viewBox="0 0 140000 13000"
 xmlns:xlink="http://www.w3.org/1999/xlink">
 <defs>
  <style type="text/css">
   <![CDATA[
    .str0 {stroke:#7C7C7C;stroke-width:20.37;stroke-miterlimit:22.9256}
    .fil25 {fill:none}
    .fil26 {fill:#797979}
    .fil24 {fill:#7C7C7C}
    .fil4 {fill:#838383}
    .fil29 {fill:#888888}
    .fil2 {fill:#898989}
    .fil1 {fill:#9E9E9E}
    .fil27 {fill:#B7B7B7}
    .fil22 {fill:#B9B9B9}
    .fil28 {fill:#FDFDFD}
    .fil23 {fill:#7C7C7C;fill-rule:nonzero}
    .fil0 {fill:#838383;fill-rule:nonzero}
    .fil19 {fill:#BCBCBC;fill-rule:nonzero}
    .fil30 {fill:white;fill-rule:nonzero}
    .fil13 {fill:url(#id0)}
    .fil15 {fill:url(#id1)}
    .fil3 {fill:url(#id2)}
    .fil11 {fill:url(#id3)}
    .fil17 {fill:url(#id4)}
    .fil12 {fill:url(#id5)}
    .fil16 {fill:url(#id6)}
    .fil9 {fill:url(#id7)}
    .fil21 {fill:url(#id8)}
    .fil20 {fill:url(#id9)}
    .fil14 {fill:url(#id10)}
    .fil10 {fill:url(#id11)}
    .fil5 {fill:url(#id12)}
    .fil8 {fill:url(#id13)}
    .fil6 {fill:url(#id14)}
    .fil7 {fill:url(#id15)}
    .fil18 {fill:url(#id16)}
   ]]>
  </style>
  <linearGradient id="id0" gradientUnits="userSpaceOnUse" x1="92827.4" y1="5095.13" x2="93941.35" y2="5095.13">
   <stop offset="0" style="stop-opacity:1; stop-color:#8C8C8C"/>
   <stop offset="1" style="stop-opacity:1; stop-color:#989898"/>
  </linearGradient>
  <linearGradient id="id1" gradientUnits="userSpaceOnUse" xlink:href="#id0" x1="95736.78" y1="5095.13" x2="96772.11" y2="5095.13">
  </linearGradient>
  <linearGradient id="id2" gradientUnits="userSpaceOnUse" x1="42528.62" y1="9052.79" x2="41651.8" y2="7953.68">
   <stop offset="0" style="stop-opacity:1; stop-color:#888888"/>
   <stop offset="1" style="stop-opacity:1; stop-color:#838383"/>
  </linearGradient>
  <linearGradient id="id3" gradientUnits="userSpaceOnUse" xlink:href="#id0" x1="90861.59" y1="5095.13" x2="91936.24" y2="5095.13">
  </linearGradient>
  <linearGradient id="id4" gradientUnits="userSpaceOnUse" x1="81111.21" y1="1700.84" x2="81085" y2="3719.07">
   <stop offset="0" style="stop-opacity:1; stop-color:#C2C2C2"/>
   <stop offset="0.580392" style="stop-opacity:1; stop-color:#BCBCBC"/>
   <stop offset="1" style="stop-opacity:1; stop-color:#BCBCBC"/>
  </linearGradient>
  <linearGradient id="id5" gradientUnits="userSpaceOnUse" xlink:href="#id0" x1="92001.77" y1="5082.02" x2="92748.76" y2="5082.02">
  </linearGradient>
  <linearGradient id="id6" gradientUnits="userSpaceOnUse" x1="84007.5" y1="2421.64" x2="83994.39" y2="3339.01">
   <stop offset="0" style="stop-opacity:1; stop-color:silver"/>
   <stop offset="0.611765" style="stop-opacity:1; stop-color:#BCBCBC"/>
   <stop offset="1" style="stop-opacity:1; stop-color:#BCBCBC"/>
  </linearGradient>
  <linearGradient id="id7" gradientUnits="userSpaceOnUse" xlink:href="#id0" x1="89105.47" y1="5095.13" x2="90140.8" y2="5095.13">
  </linearGradient>
  <linearGradient id="id8" gradientUnits="userSpaceOnUse" xlink:href="#id0" x1="81189.84" y1="7074.03" x2="84256.49" y2="7074.03">
  </linearGradient>
  <linearGradient id="id9" gradientUnits="userSpaceOnUse" xlink:href="#id0" x1="77854.63" y1="7113.35" x2="80298.69" y2="7113.35">
  </linearGradient>
  <linearGradient id="id10" gradientUnits="userSpaceOnUse" xlink:href="#id0" x1="94517.98" y1="4846.12" x2="95697.47" y2="4846.12">
  </linearGradient>
  <linearGradient id="id11" gradientUnits="userSpaceOnUse" xlink:href="#id0" x1="90180.12" y1="4977.18" x2="90835.38" y2="4977.18">
  </linearGradient>
  <linearGradient id="id12" gradientUnits="userSpaceOnUse" xlink:href="#id0" x1="85278.72" y1="5095.13" x2="86274.72" y2="5095.13">
  </linearGradient>
  <linearGradient id="id13" gradientUnits="userSpaceOnUse" xlink:href="#id0" x1="88319.16" y1="5082.02" x2="89066.17" y2="5082.02">
  </linearGradient>
  <linearGradient id="id14" gradientUnits="userSpaceOnUse" xlink:href="#id0" x1="86366.46" y1="5095.13" x2="87441.09" y2="5095.13">
  </linearGradient>
  <linearGradient id="id15" gradientUnits="userSpaceOnUse" xlink:href="#id0" x1="87506.62" y1="5082.02" x2="88253.62" y2="5082.02">
  </linearGradient>
  <linearGradient id="id16" gradientUnits="userSpaceOnUse" xlink:href="#id6" x1="81085" y1="2578.9" x2="81098.1" y2="4059.8">
  </linearGradient>
 </defs>
 <g id="Camada_x0020_1">
  <metadata id="CorelCorpID_0Corel-Layer"/>
  <g id="Layer_x0020_1">
   <path class="fil0" d="M47357.24 6731.1l0 963.25 185.24 0c209.94,0 358.13,-37.05 456.93,-111.14 86.45,-74.1 135.84,-197.59 135.84,-358.13 0,-185.24 -37.05,-308.73 -123.49,-382.83 -86.44,-74.1 -246.99,-111.14 -456.93,-111.14l-197.59 -0.01zm-839.77 -617.46l876.82 0c49.4,0 98.79,-12.35 148.19,-12.35l74.1 0c469.28,0 815.06,86.45 1037.35,246.99 209.95,160.54 321.09,407.53 321.09,765.66 0,222.29 -61.76,419.88 -172.9,568.07 -123.49,148.2 -296.38,247 -531.02,308.74 111.14,24.7 209.94,74.1 271.69,148.19 61.76,86.45 135.84,222.29 197.6,444.58l407.53 1259.64 -876.83 0 -296.38 -1062.05c-49.4,-185.24 -111.14,-321.08 -172.89,-382.83 -61.75,-49.4 -160.54,-86.45 -284.04,-86.45l-160.54 0 0 1531.33 -839.77 0 0 -3729.52zm4421.09 728.61l-444.58 1518.98 839.77 0 -395.19 -1518.98zm-481.62 -728.61l1000.3 0 1148.49 3729.52 -889.15 0 -209.94 -827.42 -1197.9 0 -234.64 827.42 -827.4 0 1210.24 -3729.52zm2358.73 0l987.96 0 1123.8 2716.87 0 -2716.87 728.61 0 0 3729.52 -987.96 0 -1123.79 -2729.23 0 2729.23 -728.62 0 0 -3729.52zm3173.8 0l2494.59 0 0 666.86 -815.06 0 0 3062.66 -864.46 0 0 -3062.66 -815.07 0 0 -666.86zm2840.38 0l2124.09 0 0 617.47 -1271.99 -0.01 0 889.15 1197.9 0.01 0 629.83 -1197.9 -0.01 0 963.25 1333.74 0 0 629.83 -2185.84 0 0 -3729.52zm4643.37 49.38l-49.4 679.22c-135.84,-61.75 -259.34,-111.14 -382.83,-135.84 -123.49,-24.7 -246.99,-49.4 -345.78,-49.4 -172.89,0 -296.38,37.05 -382.83,111.14 -98.79,61.75 -135.84,160.54 -135.84,271.69 0,111.15 37.05,209.94 111.14,284.04 74.1,86.45 234.64,172.89 456.93,284.04 395.18,185.24 642.18,358.14 765.66,518.68 111.14,148.19 172.9,358.13 172.9,617.47 0,358.13 -123.49,642.17 -358.14,852.12 -234.64,197.59 -568.07,308.73 -975.6,308.73 -135.84,0 -284.04,-12.35 -444.58,-37.05 -148.2,-37.05 -321.09,-74.11 -506.33,-123.49l61.75 -679.22c160.54,74.1 308.73,135.84 456.94,172.89 135.84,37.05 271.69,61.75 395.18,61.75 172.89,0 308.73,-49.4 407.53,-123.49 86.45,-74.1 135.84,-185.24 135.84,-321.08 0,-197.59 -197.59,-395.18 -592.77,-592.77 -49.4,-24.7 -86.45,-49.4 -111.14,-61.75 -321.08,-160.54 -531.02,-308.73 -629.82,-456.93 -111.14,-148.19 -160.55,-345.79 -160.55,-580.43 0,-345.78 111.14,-617.47 345.79,-815.06 234.64,-209.94 555.72,-308.73 963.25,-308.73 123.49,0 246.99,12.35 382.83,37.05 135.84,12.35 271.7,49.4 419.89,86.45l-0.02 -0.03zm-4544.58 5285.55l148.19 0 0 -987.95 -148.19 0.01 0 987.96 0 -0.02zm1222.6 -987.94l-185.24 0 -135.84 432.23c-24.7,61.75 -37.05,123.49 -49.4,172.89 -24.71,61.75 -37.06,111.14 -49.41,160.54 -12.35,-49.4 -24.7,-98.79 -37.05,-160.54 -12.35,-49.4 -37.05,-111.14 -49.4,-172.89l-135.84 -432.23 -185.24 0 -74.1 987.96 135.85 -0.02 24.7 -407.53c0,-49.4 12.35,-98.79 12.35,-148.19l0 -135.84c12.35,-49.4 12.35,-86.45 12.35,-135.84 12.35,61.75 24.7,123.49 49.4,185.24 12.35,61.75 24.7,123.49 49.41,197.59l135.84 432.24 111.14 0 148.19 -444.59c12.35,-61.75 37.05,-123.49 49.4,-185.24 24.7,-61.75 37.05,-123.49 49.4,-185.24l12.34 0 0 271.69c0,49.4 12.35,98.79 12.35,135.84l24.7 419.89 135.84 -0.02 -61.76 -987.95 0.02 0.01zm605.11 -12.35c-61.75,0 -111.14,12.35 -160.54,37.05 -61.75,24.7 -98.79,61.75 -135.84,98.79 -37.05,49.4 -74.1,98.79 -86.45,160.54 -24.7,74.1 -37.05,135.84 -37.05,209.94 0,74.1 12.35,148.19 37.05,209.94 12.35,61.75 37.05,111.14 74.1,160.54 37.05,37.05 86.45,74.1 135.84,98.79 49.39,24.69 98.79,37.05 160.54,37.05 61.75,0 123.49,-12.35 172.89,-37.05 49.4,-24.7 98.79,-49.4 135.84,-98.79 37.05,-37.05 61.75,-98.79 86.45,-160.54 24.7,-61.75 24.7,-135.84 24.7,-222.29 0,-49.4 0,-111.14 -12.35,-160.54 -12.35,-49.4 -24.7,-86.45 -49.4,-135.84 -24.7,-37.05 -49.4,-74.1 -86.45,-98.79 -37.05,-37.05 -74.1,-61.75 -111.14,-74.1 -49.4,-12.35 -86.45,-24.7 -148.19,-24.7zm0 123.49c37.05,0 61.75,12.35 98.79,24.7 24.7,12.35 49.4,24.7 61.75,49.4 24.7,24.7 37.05,61.75 61.75,86.45 12.35,37.05 12.35,74.1 24.7,111.14 12.35,37.04 12.35,74.1 12.35,111.14 0,37.04 0,74.1 -12.35,111.14 -12.35,37.04 -12.35,74.1 -37.05,111.14 -12.35,37.05 -24.7,61.75 -49.4,86.45 -12.35,24.7 -37.05,37.05 -74.1,49.4 -24.7,12.35 -49.4,24.7 -86.45,24.7 -37.05,0 -61.75,-12.35 -98.79,-24.7 -24.7,-12.35 -49.4,-24.7 -61.75,-49.4 -24.7,-24.7 -49.4,-61.75 -61.76,-86.45 -12.35,-37.05 -24.7,-74.1 -24.7,-111.14 -12.35,-37.05 -12.35,-74.1 -12.35,-111.14 0,-37.04 0,-74.1 12.35,-111.14 0,-37.05 12.35,-74.1 24.7,-111.14 12.36,-24.7 37.06,-61.75 49.41,-86.45 24.7,-24.7 49.4,-37.05 74.1,-49.4 24.7,-12.35 61.75,-24.7 98.79,-24.7l0.01 0zm-74.09 -160.54l111.14 0 185.24 -172.89 -172.89 0 -123.49 172.89zm1160.85 49.4l-135.84 469.28c-12.35,49.4 -37.05,111.14 -49.4,172.89l-37.06 185.24 -12.35 -0.01 -37.05 -185.24c-12.35,-61.75 -37.05,-111.14 -49.4,-185.24l-135.84 -456.93 -160.54 0.01 296.38 987.96 172.89 -0.02 308.73 -987.95 -160.52 0.01zm802.7 864.45l-382.83 0 0 -333.43 345.79 0 0 -123.49 -345.79 -0.01 0 -284.04 358.14 0.01 0 -123.49 -506.33 0 0 987.96 531.02 -0.02 0 -123.49zm148.2 123.49l148.19 0 0 -987.95 -148.19 0.01 0 987.96 0 -0.02zm852.11 -950.9c-24.71,-12.35 -37.06,-12.35 -61.76,-24.7 -12.35,-12.35 -37.05,-12.35 -61.75,-12.35 -24.7,-12.35 -61.75,-12.35 -86.45,-12.35 -49.4,0 -98.79,12.35 -135.84,24.7 -37.05,12.35 -74.1,24.7 -98.79,49.4 -24.69,24.7 -49.4,61.75 -61.75,86.45 -12.35,37.05 -24.7,74.1 -24.7,111.14 0,49.4 12.35,86.45 37.05,123.49 12.35,37.05 49.4,61.75 86.45,86.45 37.05,24.7 74.1,49.4 123.49,74.1 37.05,12.35 74.1,24.7 98.79,49.4 24.7,12.35 37.05,37.05 49.4,61.75 12.35,12.35 12.35,37.05 12.35,74.11 0,24.7 0,49.4 -12.35,74.1 -12.35,24.7 -37.05,37.05 -61.75,49.4 -24.7,12.35 -61.75,24.7 -98.79,24.7 -24.7,0 -61.75,-12.35 -86.45,-12.35 -24.7,0 -49.4,-12.35 -74.1,-24.7 -12.35,0 -37.05,-12.35 -49.4,-24.7l-37.05 123.49c12.35,12.35 37.05,24.7 61.75,24.7 24.7,12.35 49.4,24.7 86.45,24.7 24.7,0 49.4,12.35 86.45,12.35 49.4,0 98.79,-12.35 148.19,-24.7 37.05,-12.35 74.1,-37.05 98.79,-61.75 37.05,-24.7 61.75,-49.4 74.1,-86.46 12.35,-37.05 24.7,-74.1 24.7,-111.13 0,-49.41 -12.35,-86.46 -24.7,-123.49 -24.7,-37.06 -49.4,-74.11 -86.45,-98.79 -24.7,-24.7 -74.1,-49.41 -123.49,-74.11 -49.4,-12.35 -74.1,-37.05 -98.79,-49.4 -37.05,-12.35 -49.4,-37.05 -61.75,-61.75 -12.35,-12.35 -24.7,-37.05 -24.7,-61.75 0,-24.7 12.35,-37.05 12.35,-49.4 12.35,-12.35 12.35,-24.7 24.7,-37.05 24.7,-12.35 37.05,-24.7 61.75,-37.05 12.35,0 37.05,-12.35 74.1,-12.35 24.7,0 49.4,0 74.1,12.35 12.36,0 37.06,12.35 49.41,12.35 24.7,12.35 37.05,12.35 49.4,24.7l37.05 -123.49 -0.01 -0.01z"/>
   <path class="fil1" d="M44084.64 3619.05l-1383.14 0 -2074.7 6285.86 1395.49 0 1370.78 -4174.11 691.57 -2111.75z"/>
   <path class="fil2" d="M41503.61 7274.47l-222.29 642.17c185.24,24.7 382.83,49.41 568.07,111.14 247,61.76 481.63,160.54 691.57,284.05l259.34 -765.67c-135.84,-61.75 -284.04,-111.14 -419.88,-148.19 -296.38,-86.45 -592.78,-123.49 -876.81,-123.49l0 -0.01z"/>
   <path class="fil3" d="M42096.39 7113.93c1803.02,0 3334.33,1160.85 3890.07,2790.96l-1197.91 0.02c-617.47,-1185.55 -1852.41,-1988.27 -3272.6,-1988.27 -1420.19,0 -2655.11,802.72 -3272.59,1988.27l-37.05 0c555.73,-1630.12 2087.06,-2790.97 3890.08,-2790.97l0 -0.01z"/>
   <path class="fil4" d="M42701.5 3619.05l1383.14 0 2074.7 6285.86 -1395.48 0 -1370.79 -4174.11 -691.57 -2111.75z"/>
  </g>
  <g id="_3138986843472">
   <path class="fil5" d="M86275.37 5493.66c-82.56,105.37 -233.67,206.02 -439.68,206.02 -320.7,0 -545.06,-233.54 -545.06,-604.42 0,-359.61 208.38,-595.38 538.11,-595.38 144.29,0 283.99,45.74 414.52,125.94l0 325.15 -194.61 0 0 -224.5c-64.22,-31.97 -142.06,-50.32 -217.55,-50.32 -224.5,0 -345.85,160.28 -345.85,409.94 0,277.04 151.23,441.91 368.78,441.91 123.58,0 235.77,-61.85 306.8,-153.46l114.54 119.13 0 -0.01z"/>
   <path class="fil6" d="M87253.16 5102.07c0,-263.28 -132.89,-428.15 -341.26,-428.15 -210.74,0 -341.27,164.87 -341.27,428.15 0,263.29 130.53,428.29 341.27,428.29 208.37,0 341.26,-165 341.26,-428.29zm-877.14 0c0,-368.65 206.15,-599.96 535.88,-599.96 329.73,0 535.75,231.31 535.75,599.96 0,371.02 -206.02,602.33 -535.75,602.33 -329.73,0 -535.88,-231.31 -535.88,-602.33z"/>
   <path class="fil7" d="M88265.29 4506.69l0 183.22 -41.28 0c-210.61,0 -348.08,146.51 -348.08,393.81l0 442.05 265.65 0 0 153.33 -627.49 0 0 -153.33 176.4 0 0 -838.22 -176.4 0 0 -153.33 343.49 0 -2.23 203.79c66.44,-146.52 194.62,-231.31 364.07,-231.31l45.86 0 0.01 -0.01z"/>
   <path class="fil8" d="M89078.08 4506.69l0 183.22 -41.15 0c-210.73,0 -348.07,146.51 -348.07,393.81l0 442.05 265.64 0 0 153.33 -627.49 0 0 -153.33 176.4 0 0 -838.22 -176.4 0 0 -153.33 343.49 0 -2.35 203.79c66.44,-146.52 194.74,-231.31 364.06,-231.31l45.87 0 0 -0.01z"/>
   <path class="fil9" d="M89307.04 4994.48l629.71 0c-25.17,-199.21 -137.35,-320.56 -311.39,-320.56 -174.04,0 -290.8,123.58 -318.32,320.56zm698.51 373.24l114.41 119c-84.66,107.72 -238.13,217.67 -457.9,217.67 -329.73,0 -554.22,-238.25 -554.22,-616.08 0,-352.66 196.97,-586.2 517.53,-586.2 322.91,0 517.53,238.12 517.53,641.11l-838.09 0c20.58,233.67 160.28,387.13 371.02,387.13 130.39,0 249.52,-57.27 329.73,-162.63l-0.01 0z"/>
   <path class="fil10" d="M90841.28 5532.58l0 153.47 -196.84 0c-180.99,0 -293.17,-112.32 -293.17,-293.17l-2.36 -705.33 -157.92 0 0 -153.33 157.92 0 61.86 -261.06 125.94 0 0 261.06 281.63 0 0 153.33 -281.63 0 2.36 659.59c0,114.41 61.72,185.45 162.63,185.45l139.58 0 0 -0.01z"/>
   <path class="fil11" d="M91748.04 5102.07c0,-263.28 -132.76,-428.15 -341.13,-428.15 -210.61,0 -341.14,164.87 -341.14,428.15 0,263.29 130.54,428.29 341.14,428.29 208.37,0 341.13,-165 341.13,-428.29zm-877.01 0c0,-368.65 206.15,-599.96 535.88,-599.96 329.73,0 535.87,231.31 535.87,599.96 0,371.02 -206.14,602.33 -535.87,602.33 -329.73,0 -535.88,-231.31 -535.88,-602.33z"/>
   <path class="fil12" d="M92760.16 4506.69l0 183.22 -41.15 0c-210.73,0 -348.08,146.51 -348.08,393.81l0 442.05 265.65 0 0 153.33 -627.49 0 0 -153.33 176.27 0 0 -838.22 -176.27 0 0 -153.33 343.63 0 -2.36 203.79c66.44,-146.52 194.62,-231.31 364.06,-231.31l45.74 0 0 -0.01z"/>
   <path class="fil13" d="M93582.26 5285.28l0 -41.28c-80.21,-47.96 -183.08,-75.48 -293.04,-75.48 -164.86,0 -265.64,66.44 -265.64,187.66 0,114.55 89.12,183.22 247.3,183.22 190.16,0 311.38,-98.42 311.38,-254.12zm359.48 240.49l0 153.33 -348.07 0 0 -123.58c-80.08,100.77 -219.65,151.1 -373.24,151.1 -242.71,0 -391.46,-125.94 -391.46,-329.73 0,-219.91 167.09,-361.84 432.74,-361.84 116.77,0 235.9,27.52 320.56,75.62l0 -167.23c0,-157.92 -98.56,-256.47 -288.58,-256.47 -75.49,0 -146.52,13.76 -212.83,41.28l0 196.84 -180.99 0 0 -277.05c121.49,-82.43 251.89,-125.94 398.54,-125.94 288.45,0 467.07,162.64 467.07,421.34l0 602.33 176.27 0 -0.01 0z"/>
   <path class="fil14" d="M95343.1 5102.07c0,-263.28 -119,-428.15 -311.38,-428.15 -192.26,0 -311.39,164.87 -311.39,428.15 0,261.06 119.13,425.93 311.39,425.93 192.38,0 311.38,-164.87 311.38,-425.93zm361.71 423.7l0 153.33 -347.82 0 0 -171.68c-80.2,123.58 -208.5,194.62 -368.65,194.62 -284.12,0 -462.48,-231.31 -462.48,-599.97 0,-368.65 178.36,-599.96 462.48,-599.96 150.98,0 272.33,61.86 354.77,174.04l0 -515.17 -222.01 0 0 -153.46 407.45 0 0 1518.25 176.26 0 0 0z"/>
   <path class="fil15" d="M95947.65 4994.48l629.71 0c-25.03,-199.21 -137.34,-320.56 -311.38,-320.56 -174.04,0 -290.68,123.58 -318.33,320.56zm698.51 373.24l114.41 119c-84.66,107.72 -237.99,217.67 -457.89,217.67 -329.73,0 -554.23,-238.25 -554.23,-616.08 0,-352.66 196.84,-586.2 517.53,-586.2 322.92,0 517.53,238.12 517.53,641.11l-838.22 0c20.84,233.67 160.28,387.13 371.02,387.13 130.53,0 249.65,-57.27 329.86,-162.63l-0.01 0z"/>
   <path class="fil16" d="M84375.75 3815.39l0 -1422.59 -744.12 0 2.89 1046.33 741.23 376.26z"/>
   <path class="fil17" d="M81296.26 1643.44l1.05 0 3480.39 2394.35 -298.68 -146.26 0 -0.13 0 0 -76.01 -37.09 0 0 0 0 -76.01 -37.22 0 0 0 0 -75.88 -37.21 0 0 0 0 -680.69 -333.4 0 0 0 0 -75.88 -37.22 0 0 -0.13 0 -75.88 -37.22 0 0 0 0 -76.01 -37.09 0 -0.13 0 0 -76.01 -37.09 0 -0.13 0 0 -604.55 -296.05 0 0 -76.01 -37.21 0 0 0 0 -76.02 -37.22 0 0 0 0 -75.87 -37.22 0 0 0 0 -76.02 -37.22 0 0 0 0 -680.56 -333.27 0 0 0 0 -76.01 -37.22 0 0 0 0 -76.01 -37.22 0 0 0 0 -75.88 -37.22 0 0 -0.13 0 -75.88 -37.21 0 0 0 0 -76.79 -37.62 -135.64 59.37 0 0 0 0 -283.73 123.98 0 0 0 0 -258.83 113.23 0 0 0 0 -258.97 113.1 0 0 0 0 -542.69 237.21 0 0 -258.83 113.23 0 0 0 0 -258.96 113.23 0 0 0 0 -283.73 123.98 -258.83 113.23 0 0 0 0 -258.96 113.1 0 0 0 0 -258.97 113.23 0 0 0 0 -283.73 123.98 0 0 -258.83 113.23 0 0 0 0 -258.96 113.1 0 0 0 0 -40.24 17.69 3899.37 -2394.35 0 -0.02z"/>
   <path class="fil18" d="M81291.14 2475.5l3292.73 1627.82 -3287.09 -1177.39 -3680.51 1165.98 3674.87 -1616.41z"/>
   <path class="fil19" d="M85274.12 9648.06c0,0 67.76,31.71 230.52,31.71 149.01,0 230.4,-31.71 230.4,-31.71l0 -3189.85c0,0 -76.8,-31.58 -234.98,-31.58 -149.15,0 -225.94,31.58 -225.94,31.58l0 3189.85zm2878.2 -2060.29c-122.01,-234.98 -325.41,-329.87 -587.38,-329.87 -262.11,0 -492.5,99.47 -650.68,280.2l0 -203.4c0,0 -76.8,-31.58 -221.35,-31.58 -158.18,0 -225.94,31.58 -225.94,31.58l0 2313.36c0,0 67.76,31.72 225.94,31.72 144.55,0 221.35,-31.72 221.35,-31.72l0 -1739.47c117.55,-176.26 298.27,-284.65 483.45,-284.65 275.61,0 393.16,144.55 393.16,397.62l0 1626.5c0,0 67.76,31.72 225.81,31.72 144.68,0 221.48,-31.72 221.48,-31.72l0 -1735.02c117.43,-189.76 298.15,-289.1 483.46,-289.1 275.61,0 393.03,144.55 393.03,397.62l0 1626.5c0,0 67.76,31.72 225.94,31.72 149.14,0 225.93,-31.72 225.93,-31.72l0 -1707.89c0,-406.66 -244.02,-682.26 -673.22,-682.26 -311.77,0 -555.8,108.51 -740.97,329.86l-0.01 0zm2557.25 -777.15c54.26,76.8 149.14,122.01 257.52,140.09l564.84 -609.92c-67.75,-103.92 -248.48,-185.31 -393.16,-167.22l-429.2 637.05zm-600.88 1680.76c0,894.7 383.98,1233.48 1003.08,1233.48 618.97,0 1002.95,-338.78 1002.95,-1233.48 0,-894.57 -379.52,-1233.48 -1002.95,-1233.48 -619.1,0 -1003.08,338.91 -1003.08,1233.48zm1540.67 0c0,695.9 -207.85,885.66 -537.58,885.66 -329.87,0 -542.31,-189.77 -542.31,-885.66 0,-695.76 212.44,-885.53 542.31,-885.53 329.73,0 537.58,189.77 537.58,885.53zm1247.1 -1156.68c0,0 -76.93,-31.58 -234.98,-31.58 -149.14,0 -234.98,31.58 -234.98,31.58l813.32 2313.36c0,0 103.92,31.72 271.02,31.72 158.18,0 271.14,-31.72 271.14,-31.72l795.24 -2313.36c0,0 -72.35,-31.58 -212.44,-31.58 -131.05,0 -203.27,31.58 -203.27,31.58l-492.49 1423.24c-85.84,262.11 -140.1,483.46 -140.1,483.46l-18.08 0c0,0 -40.63,-230.39 -126.47,-483.46l-487.91 -1423.24zm3849.44 1296.78c0,0 49.67,-180.73 49.67,-465.38 0,-600.88 -338.78,-908.2 -894.58,-908.2 -600.87,0 -1003.08,366.03 -1003.08,1219.98 0,817.78 325.41,1246.98 1021.17,1246.98 492.5,0 750.02,-189.77 750.02,-189.77 -4.46,-131.05 -63.3,-252.94 -144.56,-325.28 0,0 -212.31,131.05 -533.12,131.05 -375.08,0 -591.97,-171.67 -628.01,-709.39l1382.48 0 0.01 0.01zm-402.07 -524.09c0,94.89 -9.05,167.09 -13.63,203.27l-966.79 0c36.04,-501.54 243.89,-695.76 537.58,-695.76 334.32,0 442.84,225.93 442.84,492.49zm1450.36 -1685.35c0,0 -81.38,-31.58 -234.98,-31.58 -162.63,0 -234.98,31.58 -234.98,31.58l0 424.75c0,0 72.35,31.58 234.98,31.58 153.6,0 234.98,-31.58 234.98,-31.58l0 -424.75zm-9.04 912.66c0,0 -76.8,-31.58 -225.94,-31.58 -158.18,0 -225.93,31.58 -225.93,31.58l0 2313.36c0,0 67.75,31.72 225.93,31.72 149.15,0 225.94,-31.72 225.94,-31.72l0 -2313.36zm564.71 632.6c0,447.28 334.32,578.34 641.64,668.76 266.56,76.8 515.04,130.93 515.04,379.53 0,221.35 -158.18,325.28 -433.79,325.28 -316.23,0 -609.92,-112.97 -609.92,-112.97 -81.25,76.8 -122.01,203.27 -122.01,334.32 0,0 280.19,162.64 754.6,162.64 573.76,0 858.4,-266.56 858.4,-722.89 0,-442.84 -307.19,-582.8 -600.88,-677.68 -284.65,-94.89 -569.29,-149.14 -569.29,-370.49 0,-212.44 153.59,-325.41 460.91,-325.41 257.52,0 474.42,72.34 474.42,72.34 76.79,-72.34 117.42,-203.26 117.42,-320.81 0,0 -194.35,-122.02 -637.05,-122.02 -573.88,0 -849.49,284.65 -849.49,709.4z"/>
   <path class="fil20" d="M79564.77 4521.64c0,0 101.31,-50.72 369.31,-50.72 246.12,0 369.18,50.72 369.18,50.72l0 3779.58c0,984.74 -564.71,1455.35 -1397.42,1455.35 -579.26,0 -1057.08,-217.29 -1057.08,-217.29 -7.21,-224.36 57.93,-412.68 195.53,-557.5 0,0 333.01,130.4 702.32,130.4 463.4,0 818.16,-195.53 818.16,-789.2l0 -3801.34z"/>
   <path class="fil21" d="M84133.43 4470.92c28.96,86.89 57.93,181.11 57.93,282.42 0,115.85 -21.75,224.49 -57.93,318.59l-2201.04 0 0 1679.84 1839.07 0c28.96,86.89 57.93,188.2 57.93,289.63 0,101.31 -21.76,209.95 -57.93,304.05l-1839.07 0 0 1737.76 2273.51 0c28.96,94.1 57.93,188.2 57.93,289.63 0,108.52 -21.75,209.95 -57.93,311.26l-3012.13 0 0 -5213.18 2939.66 0z"/>
  </g>
  <g id="logo-delta">
   <g id="logo">
    <path class="fil22" d="M122089.08 8750.89l14796.44 0 0 1276.74 -14796.44 0 0 -1276.74z"/>
    <path class="fil22" d="M118525.46 10082.86c-1458.49,-141.36 -2599.02,-1370.86 -2599.02,-2866.74 0,-1495.55 1140.53,-2725.05 2599.02,-2866.58l0 5733.32zm1641.27 -5406.34c904.85,485.73 1520.43,1440.8 1520.43,2539.61 0,1099.12 -615.58,2054.21 -1520.43,2539.76l0 -5079.37z"/>
    <path class="fil23" d="M135584.76 6795.5c-149.06,53.76 -304.45,100.99 -467.2,142.71 -219.99,59.26 -359.86,117.18 -418.12,174.59 -60.92,59.09 -90.96,126.36 -90.96,201.81 0,86.28 30.04,157.06 89.13,211.63 60.09,54.76 147.21,81.8 262.72,81.8 120.85,0 233.68,-29.88 338.17,-88.97 103.66,-59.08 177.09,-130.85 220.82,-216.31 43.57,-85.46 65.44,-196.3 65.44,-332.66l0 -174.59 0 -0.01zm-938.05 -567.18l-1036.21 -108.99c39.06,-181.95 95.47,-324.48 169.08,-428.3 73.61,-104.49 179.1,-194.3 318.14,-270.73 99.15,-55.42 235.52,-98.15 409.11,-128.2 173.59,-30.05 361.69,-45.39 564.5,-45.39 324.48,0 584.19,18.18 781.65,54.57 196.3,36.22 360.71,112.67 491.73,228.18 92.48,79.95 165.42,193.62 218,339.83 53.74,146.39 80.12,286.43 80.12,419.96l0 1250.68c0,133.7 8.17,238.19 25.52,313.8 16.19,75.45 53.59,171.92 109.84,289.1l-1015.16 0c-40.9,-72.6 -67.44,-127.19 -79.96,-165.57 -11.86,-38.07 -24.71,-96.98 -37.4,-178.1 -141.88,136.36 -282.75,233.83 -423.63,291.93 -191.78,78.12 -414.44,117.18 -667.81,117.18 -337.34,0 -593.72,-78.12 -768.32,-235.35 -175.43,-156.39 -262.56,-350.2 -262.56,-579.35 0,-215.33 62.61,-392.6 188.95,-531.64 126.36,-139.03 359.04,-242.69 698.05,-309.95 406.43,-81.8 669.99,-139.04 790.83,-172.76 120.85,-32.72 249.21,-75.44 383.57,-129.02 0,-133.7 -27.21,-226.34 -82.63,-280.08 -54.57,-53.59 -150.88,-79.95 -289.09,-79.95 -177.27,0 -309.96,28.2 -399.1,85.46 -69.1,45.4 -124.33,129.02 -167.24,252.7l0 0 0.02 -0.01zm-2104.12 -1990.61l0 1074.42 594.37 0 0 796.17 -594.37 0 0 1001.83c0,120.01 11.85,199.8 34.38,238.86 35.55,60.08 98.31,90.13 187.28,90.13 79.94,0 191.94,-22.7 336.32,-69.1l79.96 750.11c-268.06,59.09 -518.1,88.12 -750.78,88.12 -269.9,0 -469.03,-34.37 -597.04,-103.47 -127.37,-69.1 -221.83,-174.77 -283.59,-315.64 -61.11,-140.88 -91.98,-369.88 -91.98,-685.51l0 -995.31 -398.1 0 0 -796.19 398.1 0 0 -519.09 1085.45 -555.33 0 0 0 0zm-3086.92 0l1085.28 0 0 3905.12 -1085.28 0 0 -3905.12zm-1635.92 2241.48c-21.03,-210.8 -78.29,-361.87 -170.09,-452.67 -91.81,-90.79 -211.82,-136.37 -361.88,-136.37 -172.75,0 -310.78,69.11 -414.44,206.49 -65.43,85.29 -107.15,212.64 -125.35,382.55l1071.76 0 0 0 0 0zm1101.46 518.27l-2176.05 0c20.03,173.42 66.42,303.46 141.88,388.92 104.49,122.68 241.85,183.6 410.93,183.6 107.17,0 208.99,-26.37 304.46,-79.12 59.08,-33.72 122.68,-92.63 189.94,-177.27l1068.92 98.16c-163.58,283.76 -360.86,488.39 -591.71,611.07 -230.84,123.85 -562.67,185.43 -994.48,185.43 -375.38,0 -669.82,-52.73 -885.31,-159.07 -214.48,-105.31 -392.75,-273.73 -534.46,-503.73 -140.88,-230.84 -211.81,-501.76 -211.81,-812.54 0,-442.83 141.87,-801.69 425.46,-1075.44 282.75,-273.56 674.49,-410.76 1173.41,-410.76 405.43,0 724.4,61.75 958.92,184.43 234.51,122.84 413.61,300.11 536.29,533.62 122.85,232.68 183.61,536.29 183.61,909.85l0 122.85 0 0zm-4889.25 -281.08c0,-222.67 -47.24,-389.08 -140.87,-498.07 -93.65,-110.01 -212.82,-164.41 -356.19,-164.41 -125.53,0 -231.01,52.75 -316.47,158.06 -84.47,104.65 -127.19,280.92 -127.19,529.12 0,231.68 43.72,400.93 131.86,509.1 87.12,107.99 196.29,161.57 325.3,161.57 138.21,0 252.72,-54.59 345.52,-162.75 91.64,-108.99 138.04,-286.26 138.04,-532.62l0 0zm1087.95 -2478.67l0 3905.12 -1016.18 0 0 -419.12c-141.7,178.26 -271.72,299.11 -389.07,362.03 -155.22,81.62 -329.82,122.51 -521.6,122.51 -384.57,0 -679.01,-146.22 -882.65,-439.98 -202.62,-293.78 -304.45,-650.97 -304.45,-1070.08 0,-469.87 112.67,-828.9 337.17,-1077.94 224.49,-249.04 509.09,-373.55 855.27,-373.55 169.09,0 321.81,28.03 459.02,84.61 138.21,57.26 260.05,141.72 366.37,255.22l0 -1348.83 1096.13 0 0 0 -0.01 0.01z"/>
    <path class="fil24" d="M120190.09 2292.65l-996.79 -919.86 0 8714.43 996.79 0 0 -7794.57z"/>
    <path class="fil25 str0" d="M120190.09 2292.65l-996.79 -919.86 0 8714.43 996.79 0 0 -7794.57z"/>
    <path class="fil23" d="M135688.57 9622.69l154.57 -15.36c9.18,51.74 27.88,89.48 56.09,113.67 28.37,24.37 66.59,36.39 114.49,36.39 50.74,0 89.14,-10.85 114.83,-32.21 25.71,-21.7 38.72,-46.73 38.72,-75.61 0,-18.69 -5.5,-34.39 -16.35,-47.58 -10.86,-12.85 -29.54,-24.2 -56.75,-33.88 -18.37,-6.33 -60.43,-17.69 -126.02,-34.22 -84.62,-21.03 -143.88,-46.9 -177.93,-77.78 -48.07,-43.4 -72.11,-95.99 -72.11,-158.41 0,-39.89 11.51,-77.61 33.88,-112.33 22.53,-35.05 55.08,-61.43 97.65,-79.62 42.38,-18.35 93.63,-27.37 153.72,-27.37 98.15,0 172.1,21.53 221.67,65.26 49.41,43.74 75.44,101.65 78.12,174.59l-159.07 5.51c-6.51,-40.73 -20.86,-69.6 -43.24,-87.3 -22.03,-17.7 -55.25,-26.54 -99.31,-26.54 -45.74,0 -81.46,9.35 -107.16,28.38 -16.7,12.18 -25.04,28.38 -25.04,48.9 0,18.52 7.85,34.56 23.37,47.57 20.03,17.03 68.43,34.55 145.38,52.75 76.78,18.03 133.53,37.05 170.26,56.58 36.88,19.36 65.59,45.91 86.46,79.62 20.69,33.72 31.21,75.28 31.21,124.86 0,44.89 -12.36,87.13 -37.39,126.35 -25.05,39.23 -60.26,68.43 -105.83,87.46 -45.73,19.2 -102.65,28.54 -170.75,28.54 -99.15,0 -175.09,-22.87 -228.35,-68.6 -53.24,-45.57 -84.78,-112.33 -95.13,-199.63l0 0 0.01 0.01zm-1801.5 254.04l0 -784.17 158.56 0 0 784.17 -158.56 0 0 0zm-2258.5 0l0 -784.17 580.35 0 0 132.54 -421.62 0 0 174.09 391.91 0 0 132.53 -391.91 0 0 212.47 436.98 0 0 132.54 -595.71 0 0 0zm-2063.57 0l-280.59 -784.17 171.59 0 199.13 580.54 191.28 -580.54 168.59 0 -278.91 784.17 -171.09 0 0 0zm-2332.96 -855.26l74.44 -159.9 167.58 0 -147.88 159.9 -94.15 0 0 0 0.01 0zm-122.68 462.68c0,88.96 20.7,156.23 61.58,202.3 41.07,45.74 93.31,68.77 156.4,68.77 63.61,0 115.34,-22.86 156.07,-68.27 40.39,-45.55 60.75,-113.83 60.75,-204.96 0,-90.14 -19.68,-157.23 -59.41,-201.31 -39.4,-44.39 -91.81,-66.6 -157.41,-66.6 -65.25,0 -118,22.53 -157.9,67.28 -40.06,44.73 -60.08,112.32 -60.08,202.79l0 0 0 0zm-163.07 5.18c0,-79.79 11.85,-147.05 35.89,-201.47 17.69,-39.89 42.06,-75.77 72.93,-107.66 30.89,-31.71 64.77,-55.25 101.31,-70.77 48.92,-20.7 105.33,-31.05 169.09,-31.05 115.84,0 208.15,35.89 277.75,107.68 69.44,71.94 103.99,171.75 103.99,299.61 0,127.01 -34.55,226.16 -103.32,297.77 -68.77,71.77 -160.91,107.48 -276.08,107.48 -116.67,0 -209.47,-35.54 -278.41,-106.98 -68.77,-71.11 -103.15,-169.25 -103.15,-294.61l0 0 0 0zm-2415.25 387.4l0 -784.17 237.84 0 140.56 534.81 138.86 -534.81 238.36 0 0 784.17 -146.72 0 -0.5 -617.41 -154.55 617.41 -152.73 0 -153.73 -617.41 -0.66 617.41 -146.72 0 0 0 -0.01 0zm-1841.07 0l0 -784.17 158.73 0 0 784.17 -158.73 0 0 0z"/>
   </g>
  </g>
  <g id="_1752620070528">
   <path class="fil26" d="M24529.06 8248.4l-14145.23 0 0 1863.09 14145.23 0 0 -1863.09z"/>
   <path class="fil27" d="M2277.37 9792.19l6472.77 0 0 -4361.68 -6472.77 0 0 4361.68z"/>
   <path class="fil26" d="M4149.75 7216.1l0 -306.9 641.69 0 0 306.9 -641.69 0zm-1794.88 2576.09l55.79 0 0 -294.5 641.69 0 0 294.5 52.71 0 0 -294.5 641.69 0 0 294.5 55.8 0 0 -294.5 641.69 0 0 294.5 52.71 0 0 -294.5 641.69 0 0 294.5 55.79 0 0 -294.5 641.69 0 0 294.5 52.71 0 0 -294.5 641.69 0 0 294.5 55.8 0 0 -294.5 641.69 0 0 294.5 52.7 0 0 -294.5 641.69 0 0 294.5 55.8 0 0 -294.5 635.5 0 0 294.5 55.79 0 0 -294.5 80.6 0 0 -62.01 -424.7 0 0 -306.9 424.7 0 0 -62 -80.6 0 0 -306.9 80.6 0 0 -62.01 -424.7 0 0 -310 424.7 0 0 -62 -80.6 0 0 -306.9 80.6 0 0 -62.01 -424.7 0 0 -306.9 424.7 0 0 -62 -80.6 0 0 -306.9 80.6 0 0 -65.09 -424.7 0 0 -306.9 424.7 0 0 -62.01 -80.6 0 0 -306.9 80.6 0 0 -62 -424.7 0 0 -306.9 424.7 0 0 -62.01 -80.6 0 0 -310 80.6 0 0 -62 -424.7 0 0 -306.9 -55.79 0 0 306.9 -638.61 0 0 -306.9 -55.79 0 0 306.9 -641.69 0 0 -306.9 -55.8 0 0 306.9 -638.6 0 0 -306.9 -55.8 0 0 306.9 -641.69 0 0 -306.9 -55.79 0 0 306.9 -638.6 0 0 -306.9 -55.8 0 0 306.9 -641.69 0 0 -306.9 -55.8 0 0 306.9 -638.6 0 0 -306.9 -55.79 0 0 306.9 -641.7 0 0 -306.9 -55.79 0 0 306.9 -424.7 0 0 62 77.49 0 0 310 -77.49 0 0 62.01 424.7 0 0 306.9 -424.7 0 0 62 77.49 0 0 306.9 -77.49 0 0 62.01 424.7 0 0 306.9 -424.7 0 0 65.09 77.49 0 0 306.9 -77.49 0 0 62 424.7 0 0 306.9 -424.7 0 0 62.01 77.49 0 0 306.9 -77.49 0 0 62 424.7 0 0 310 -424.7 0 0 62.01 77.49 0 0 306.9 -77.49 0 0 62 424.7 0 0 306.9 -424.7 0 0 62.01 77.49 0 0 294.5 0.02 0zm403 -2142.1l641.69 0 0 306.9 -641.69 0 0 -306.9zm697.49 0l638.6 0 0 306.9 -638.6 0 0 -306.9zm694.39 0l641.69 0 0 306.9 -641.69 0 0 -306.9zm697.51 0l638.6 0 0 306.9 -638.6 0 0 -306.9zm694.39 0l641.69 0 0 306.9 -641.69 0 0 -306.9zm697.51 0l638.6 0 0 306.9 -638.6 0 0 -306.9zm694.39 0l641.69 0 0 306.9 -641.69 0 0 -306.9zm697.49 0l638.6 0 0 306.9 -638.6 0 0 -306.9zm982.7 -61.99l-635.49 0 0 -306.9 635.49 0 0 306.9zm-691.31 0l-641.69 0 0 -306.9 641.69 0 0 306.9zm-694.38 0l-641.69 0 0 -306.9 641.69 0 0 306.9zm-697.5 0l-641.69 0 0 -306.9 641.69 0 0 306.9zm-694.4 0l-641.69 0 0 -306.9 641.69 0 0 306.9zm-697.5 0l-641.69 0 0 -306.9 641.69 0 0 306.9zm-694.4 0l-641.69 0 0 -306.9 641.69 0 0 306.9zm-697.48 0l-641.69 0 0 -306.9 641.69 0 0 306.9zm-694.4 0l-641.69 0 0 -306.9 641.69 0 0 306.9zm1794.89 -372l0 -306.9 638.6 0 0 306.9 -638.6 0zm694.39 0l0 -306.9 641.69 0 0 306.9 -641.69 0zm697.51 0l0 -306.9 638.6 0 0 306.9 -638.6 0zm694.39 0l0 -306.9 641.69 0 0 306.9 -641.69 0zm697.49 0l0 -306.9 638.6 0 0 306.9 -638.6 0zm-4873.17 0l0 -306.9 641.69 0 0 306.9 -641.69 0zm697.49 0l0 -306.9 638.6 0 0 306.9 -638.6 0zm-697.49 1171.8l641.69 0 0 310 -641.69 0 0 -310zm697.49 0l638.6 0 0 310 -638.6 0 0 -310zm694.39 0l641.69 0 0 310 -641.69 0 0 -310zm697.51 0l638.6 0 0 310 -638.6 0 0 -310zm694.39 0l641.69 0 0 310 -641.69 0 0 -310zm697.51 0l638.6 0 0 310 -638.6 0 0 -310zm694.39 0l641.69 0 0 310 -641.69 0 0 -310zm697.49 0l638.6 0 0 310 -638.6 0 0 -310zm982.7 -62l-635.49 0 0 -306.9 635.49 0 0 306.9zm-691.31 0l-641.69 0 0 -306.9 641.69 0 0 306.9zm-694.38 0l-641.69 0 0 -306.9 641.69 0 0 306.9zm-697.5 0l-641.69 0 0 -306.9 641.69 0 0 306.9zm-694.4 0l-641.69 0 0 -306.9 641.69 0 0 306.9zm-697.5 0l-641.69 0 0 -306.9 641.69 0 0 306.9zm-694.4 0l-641.69 0 0 -306.9 641.69 0 0 306.9zm-697.48 0l-641.69 0 0 -306.9 641.69 0 0 306.9zm-694.4 0l-641.69 0 0 -306.9 641.69 0 0 306.9zm5217.27 -2154.5l0 306.9 -638.6 0 0 -306.9 638.6 0zm-694.4 0l0 306.9 -641.69 0 0 -306.9 641.69 0zm-697.5 0l0 306.9 -638.6 0 0 -306.9 638.6 0zm-694.4 0l0 306.9 -641.69 0 0 -306.9 641.69 0zm-697.48 0l0 306.9 -638.6 0 0 -306.9 638.6 0zm-694.4 0l0 306.9 -641.69 0 0 -306.9 641.69 0zm-697.5 0l0 306.9 -638.6 0 0 -306.9 638.6 0zm-694.4 0l0 306.9 -641.69 0 0 -306.9 641.69 0zm5214.18 -62l-635.49 0 0 -310 635.49 0 0 310zm-691.31 0l-641.69 0 0 -310 641.69 0 0 310zm-694.38 0l-641.69 0 0 -310 641.69 0 0 310zm-697.5 0l-641.69 0 0 -310 641.69 0 0 310zm-694.4 0l-641.69 0 0 -310 641.69 0 0 310zm-697.5 0l-641.69 0 0 -310 641.69 0 0 310zm-694.4 0l-641.69 0 0 -310 641.69 0 0 310zm-697.48 0l-641.69 0 0 -310 641.69 0 0 310zm-694.4 0l-641.69 0 0 -310 641.69 0 0 310zm5561.37 737.81l-635.49 0 0 -306.9 635.49 0 0 306.9zm-691.31 0l-641.69 0 0 -306.9 641.69 0 0 306.9zm-694.38 0l-641.69 0 0 -306.9 641.69 0 0 306.9zm-697.5 0l-641.69 0 0 -306.9 641.69 0 0 306.9zm-694.4 0l-641.69 0 0 -306.9 641.69 0 0 306.9zm-697.5 0l-641.69 0 0 -306.9 641.69 0 0 306.9zm-694.4 0l-641.69 0 0 -306.9 641.69 0 0 306.9zm-697.48 0l-641.69 0 0 -306.9 641.69 0 0 306.9zm-694.4 0l-641.69 0 0 -306.9 641.69 0 0 306.9zm-294.5 2281.59l641.69 0 0 306.9 -641.69 0 0 -306.9zm697.49 0l638.6 0 0 306.9 -638.6 0 0 -306.9zm694.39 0l641.69 0 0 306.9 -641.69 0 0 -306.9zm697.51 0l638.6 0 0 306.9 -638.6 0 0 -306.9zm694.39 0l641.69 0 0 306.9 -641.69 0 0 -306.9zm697.51 0l638.6 0 0 306.9 -638.6 0 0 -306.9zm694.39 0l641.69 0 0 306.9 -641.69 0 0 -306.9zm697.49 0l638.6 0 0 306.9 -638.6 0 0 -306.9zm982.7 -62.01l-635.49 0 0 -306.9 635.49 0 0 306.9zm-691.31 0l-641.69 0 0 -306.9 641.69 0 0 306.9zm-694.38 0l-641.69 0 0 -306.9 641.69 0 0 306.9zm-697.5 0l-641.69 0 0 -306.9 641.69 0 0 306.9zm-694.4 0l-641.69 0 0 -306.9 641.69 0 0 306.9zm-697.5 0l-641.69 0 0 -306.9 641.69 0 0 306.9zm-694.4 0l-641.69 0 0 -306.9 641.69 0 0 306.9zm-697.48 0l-641.69 0 0 -306.9 641.69 0 0 306.9zm-694.4 0l-641.69 0 0 -306.9 641.69 0 0 306.9z"/>
   <path class="fil26" d="M1914.66 9792.19l7198.17 0 0 319.3 -7198.17 0 0 -319.3z"/>
   <path class="fil28" d="M6511.94 9816.99l0 -2039.8c0,-530.1 -433.99,-964.1 -998.19,-964.1 -564.2,0 -998.2,434 -998.2,964.1l0 2039.8 1996.39 0z"/>
   <path class="fil26" d="M6096.55 8446.8c86.81,0 158.11,71.3 158.11,161.2 0,86.8 -71.3,158.1 -158.11,158.1 -89.89,0 -161.19,-71.3 -161.19,-158.1 0,-89.9 71.3,-161.2 161.19,-161.2z"/>
   <path class="fil26" d="M4512.47 7743.11l92.99 0 0 189.08 -92.99 0 0 -189.08z"/>
   <path class="fil26" d="M4512.47 9392.29l92.99 0 0 189.1 -92.99 0 0 -189.1z"/>
   <path class="fil27" d="M1899.17 5225.92l7195.07 0 -3595.98 -2337.4 -3599.09 2337.4z"/>
   <path class="fil28" d="M5513.75 4345.51c530.1,0 960.99,430.89 960.99,960.99 0,530.1 -430.89,960.99 -960.99,960.99 -530.1,0 -960.99,-430.89 -960.99,-960.99 0,-530.1 430.89,-960.99 960.99,-960.99z"/>
   <path class="fil29" d="M5513.75 4528.41c427.8,0 778.1,350.3 778.1,778.1 0,430.9 -350.3,778.1 -778.1,778.1 -427.81,0 -778.1,-347.19 -778.1,-778.1 0,-427.8 350.29,-778.1 778.1,-778.1z"/>
   <path class="fil26" d="M10383.83 7699.7l0 -2269.19 1224.49 0 0 2269.19 -1224.49 0zm3199.18 0l0 0 -1491.09 -2269.19 1271 0 889.69 1633.69 911.39 -1633.69 1215.2 0 -1500.39 2269.19 -1295.8 0zm4160.18 -868l0 0 899.01 0 -452.61 -846.29 -446.4 846.29zm-1686.38 868l0 0 1202.8 0 229.39 -375.1 1404.3 0 238.7 375.1 1252.39 0 -1503.49 -2269.19 -1311.29 0 -1512.79 2269.19 -0.01 0zm4693.38 0l0 0 0 -2269.19 1184.19 0 1435.29 1264.78 0 -1264.78 1159.39 0 0 2269.19 -1159.39 0 -1460.09 -1202.8 0 1202.8 -1159.39 0z"/>
   <path class="fil30" d="M11419.22 9640.29l0 -480.5c0,-37.2 -9.29,-68.19 -27.9,-86.8 -18.59,-18.6 -49.6,-27.91 -93,-27.91 -18.59,0 -34.1,3.1 -46.5,6.19 -12.4,0 -27.9,6.2 -40.31,9.3l3.11 579.7 -217.01 0 -3.1 -669.59c83.7,-34.1 186,-49.61 303.8,-49.61 114.69,0 201.5,18.6 254.19,62.01 55.79,43.39 80.6,102.29 80.6,179.8l3.1 477.39 -217.01 0 0.03 0.02zm1013.7 -378.2l0 15.5c0,3.11 0,9.3 -3.1,15.51l-446.4 62c6.19,49.6 27.91,89.89 58.9,117.8 34.1,24.8 74.41,40.31 127.1,40.31 34.1,0 68.19,-6.2 102.29,-12.4 34.1,-9.3 65.1,-18.6 86.81,-31l49.6 130.2c-34.1,15.51 -74.4,31 -123.99,40.31 -46.5,9.29 -96.1,12.4 -148.8,12.4 -58.9,0 -111.6,-9.3 -158.1,-27.91 -43.4,-15.5 -80.6,-43.39 -111.61,-74.4 -30.99,-34.1 -55.79,-71.3 -71.3,-117.8 -15.5,-43.4 -21.7,-93 -21.7,-148.8 0,-55.79 6.2,-105.39 21.7,-151.89 15.51,-43.4 37.2,-83.7 65.09,-114.7 31,-30.99 65.1,-55.79 108.51,-74.4 40.3,-18.6 89.89,-24.81 142.6,-27.91 105.4,0 185.99,31 241.79,93 52.71,58.9 80.6,145.7 80.6,254.19l0.01 -0.01zm-204.6 -46.5c-3.11,-55.8 -12.4,-102.3 -31,-133.31 -18.59,-30.99 -49.6,-46.5 -92.99,-46.5 -43.4,0 -77.5,18.6 -102.3,55.8 -21.7,37.2 -34.1,83.7 -34.1,145.71l0 18.59 260.4 -40.31 -0.01 0.02zm967.2 412.3c0,99.2 -27.91,176.7 -86.81,226.3 -58.9,52.71 -139.5,77.49 -241.79,77.49 -55.8,0 -108.5,-3.1 -158.11,-15.5 -49.6,-9.3 -89.89,-21.7 -120.9,-37.2l55.8 -133.31c24.8,12.4 52.7,21.7 83.7,31 30.99,6.19 65.09,12.4 99.2,12.4 55.8,0 96.11,-15.51 120.91,-40.31 21.69,-27.91 34.1,-62 34.1,-102.3l0 -30.99c-12.41,6.19 -31,12.4 -49.61,15.51 -21.7,6.19 -49.6,6.19 -80.6,6.19 -46.49,0 -86.8,-6.19 -127.09,-21.7 -37.2,-18.59 -68.2,-40.31 -96.1,-71.3 -27.91,-27.91 -46.5,-65.09 -62.01,-105.4 -15.5,-43.39 -21.7,-93 -21.7,-142.6 0,-120.9 31,-217.01 99.21,-282.1 65.09,-65.09 161.2,-99.21 288.29,-99.21 49.61,0 96.1,3.11 142.6,12.41 46.5,9.29 86.81,21.69 120.91,37.2l0 663.4 0 0.02zm-216.99 -582.79c-18.6,-6.2 -40.31,-12.4 -65.1,-12.4 -55.79,0 -92.99,21.69 -120.9,65.09 -24.8,43.39 -37.2,105.4 -37.2,185.99 0,77.5 12.4,136.4 37.2,176.7 24.8,37.21 65.09,58.9 117.8,58.9 12.4,0 27.91,-3.1 40.31,-6.19 9.29,-3.1 21.69,-6.19 30.99,-9.3l-3.1 -458.79zm1026.08 232.49c0,55.8 -6.19,105.4 -21.7,148.8 -12.4,46.49 -34.1,83.7 -62,117.8 -27.91,34.09 -65.09,58.9 -105.4,77.49 -43.4,18.59 -89.89,27.9 -145.71,27.9 -55.79,0 -105.39,-9.29 -145.7,-27.9 -43.4,-18.59 -77.49,-43.4 -105.4,-77.49 -27.91,-31 -49.6,-71.31 -65.09,-114.7 -15.51,-46.5 -21.7,-96.1 -21.7,-148.79 0,-52.71 6.19,-102.3 21.7,-148.8 12.4,-43.39 34.1,-83.7 62,-114.69 27.91,-34.1 65.09,-58.9 105.4,-77.5 43.4,-18.59 89.89,-27.9 145.71,-27.9 55.79,0 105.39,9.29 145.7,27.9 43.4,18.6 77.49,43.4 105.4,74.41 27.91,34.1 49.6,71.3 65.09,117.8 15.51,43.39 21.7,92.99 21.7,145.7l0 -0.03zm-216.99 -3.1c0,-34.1 0,-65.1 -6.19,-93 -3.11,-30.99 -9.3,-55.8 -18.6,-77.49 -9.29,-18.6 -21.69,-37.21 -37.2,-49.61 -18.59,-9.29 -37.2,-15.5 -58.9,-15.5 -21.7,0 -40.31,6.19 -55.79,18.59 -15.51,9.3 -27.91,27.91 -37.21,46.5 -9.29,21.7 -15.5,46.5 -18.59,77.49 -6.19,27.91 -6.19,62.01 -6.19,96.11 0,34.09 0,65.09 6.19,92.99 3.1,31 9.3,55.8 18.59,77.5 9.3,21.7 21.7,37.2 37.21,49.6 15.5,12.4 37.2,18.59 58.9,18.59 21.69,0 40.3,-6.19 55.79,-18.59 15.51,-12.4 27.91,-27.9 37.2,-49.6 9.3,-21.7 15.51,-46.5 18.6,-77.5 6.19,-27.9 6.19,-62 6.19,-96.1l0 0.02zm-80.6 -421.6l-117.8 0 96.1 -189.1c27.91,-18.59 62.01,-27.9 105.4,-27.9 18.6,0 37.21,3.1 52.71,9.29 18.59,6.2 31,12.4 40.31,24.8l-176.7 182.9 -0.02 0.01zm914.49 740.9c-49.6,37.2 -111.6,52.71 -189.1,52.71 -46.49,0 -86.8,-6.2 -127.09,-24.81 -37.2,-15.5 -71.3,-40.3 -99.21,-71.3 -27.9,-34.09 -52.71,-71.3 -68.2,-117.8 -15.5,-43.39 -21.69,-96.1 -21.69,-155 0,-55.79 6.19,-108.5 21.69,-155 15.51,-43.4 40.31,-83.7 68.2,-114.7 27.91,-30.99 58.9,-55.79 99.21,-71.3 37.2,-18.59 80.6,-27.9 123.99,-27.9 77.49,0 139.5,18.59 189.1,52.7l-43.39 111.61c-24.81,-18.59 -55.8,-27.9 -93,-27.9 -46.5,0 -80.6,21.69 -108.51,62 -24.8,40.31 -37.2,96.1 -37.2,167.4 0,71.3 12.4,127.1 40.31,167.41 24.8,40.3 62,58.9 105.4,58.9 37.2,0 68.19,-9.3 93,-27.91l46.49 120.9 0 -0.01zm344.11 -874.2c0,27.9 -12.4,49.6 -34.1,68.19 -21.7,18.6 -49.6,27.91 -80.6,27.91 -34.1,0 -62,-9.3 -83.7,-27.91 -21.7,-18.59 -34.1,-40.3 -34.1,-68.19 0,-27.91 12.4,-49.61 34.1,-68.2 21.7,-18.59 49.6,-27.91 80.6,-27.91 34.1,0 62,9.3 83.7,27.91 21.7,18.59 34.1,40.31 34.1,68.2zm-220.11 911.4l-3.11 -706.8 217.01 0 0 706.8 -213.9 0zm1026.1 -356.5c0,52.7 -6.2,102.29 -21.7,148.79 -12.4,43.4 -34.1,83.7 -62.01,114.7 -27.9,34.1 -62,58.9 -105.39,77.49 -40.31,18.59 -89.9,27.91 -145.71,27.91 -55.8,0 -102.29,-9.3 -145.7,-24.81 -40.31,-18.59 -77.5,-46.49 -105.4,-77.49 -27.91,-34.1 -49.61,-71.3 -65.1,-117.8 -12.4,-43.39 -21.69,-93 -21.69,-145.7 0,-55.8 9.29,-105.4 21.69,-148.8 15.51,-46.5 37.21,-83.7 65.1,-117.8 27.9,-30.99 62,-55.79 102.29,-74.4 43.4,-18.6 93,-27.91 145.71,-27.91 55.79,0 105.4,6.19 148.79,24.8 40.31,18.6 74.41,43.4 105.4,77.5 27.91,30.99 49.6,71.3 62,114.69 15.51,46.5 21.7,96.11 21.7,148.8l0.02 0.03zm-213.91 -3.09c0,-34.1 -3.1,-65.09 -6.19,-96.1 -6.19,-27.91 -12.4,-52.71 -21.7,-74.41 -9.29,-21.7 -21.69,-37.2 -37.2,-49.6 -15.5,-12.4 -34.1,-18.59 -55.79,-18.59 -24.81,0 -43.4,6.19 -58.9,18.59 -15.51,12.4 -27.91,27.9 -37.21,49.6 -9.29,21.7 -15.5,46.5 -18.59,74.41 -3.1,30.99 -6.19,62 -6.19,96.1 0,34.1 3.1,65.09 6.19,96.1 3.1,27.91 12.4,52.71 21.7,74.41 9.29,21.69 21.7,40.3 37.2,52.7 15.5,12.4 34.1,15.51 55.8,15.51 21.69,0 40.3,-6.2 55.79,-18.6 15.51,-9.29 27.91,-27.9 37.2,-49.6 9.3,-21.7 15.51,-46.5 21.7,-74.4 3.11,-31 6.19,-62.01 6.19,-96.11l0 -0.01zm837 139.5c0,34.09 -6.19,65.09 -21.69,92.99 -12.4,27.91 -31,52.71 -55.8,71.3 -27.91,21.7 -58.9,37.21 -96.1,49.61 -34.1,12.4 -74.41,18.59 -120.91,18.59 -43.39,0 -86.8,-6.19 -127.09,-15.5 -43.4,-9.3 -77.5,-21.7 -102.3,-37.21l55.8 -123.99c24.8,12.4 49.6,21.7 74.4,31 24.8,6.19 49.61,9.29 71.3,9.29 31,0 55.8,-9.29 74.41,-24.8 18.59,-12.4 27.9,-34.1 27.9,-55.79 0,-18.6 -9.29,-37.21 -21.69,-49.61 -15.51,-12.4 -31,-21.7 -52.71,-34.1 -21.7,-9.29 -46.5,-18.59 -71.3,-30.99 -24.8,-9.3 -46.5,-21.7 -68.2,-37.2 -21.7,-15.51 -40.3,-37.2 -52.71,-58.9 -15.5,-24.8 -21.69,-55.8 -21.69,-93 0,-34.1 6.19,-62 18.59,-89.89 12.4,-27.91 31,-49.61 55.8,-68.2 21.69,-18.59 49.6,-34.1 83.7,-43.4 30.99,-9.29 65.09,-15.5 99.2,-15.5 49.61,0 89.9,3.1 127.1,12.4 37.2,6.19 71.3,21.7 102.3,37.2l-49.61 114.7c-46.5,-24.8 -89.89,-37.2 -130.2,-37.2 -30.99,0 -55.79,6.19 -71.3,21.69 -15.5,15.51 -21.7,31 -21.7,52.71 0,18.59 6.2,37.2 21.7,49.6 12.4,12.4 31,21.7 55.8,34.1 21.69,9.3 43.39,18.59 68.19,31 24.81,9.29 49.61,21.69 71.3,37.2 21.7,15.5 40.31,37.2 55.8,58.9 12.4,24.8 21.7,55.79 21.7,93l0.01 0zm728.5 -697.51c0,27.91 -12.4,49.61 -34.1,68.2 -21.7,18.59 -49.6,27.91 -80.6,31 -34.09,0 -58.9,-9.3 -83.7,-31 -21.7,-18.59 -30.99,-40.31 -30.99,-68.2 0,-27.9 9.29,-49.6 30.99,-68.19 21.7,-18.6 49.61,-27.91 83.7,-27.91 31,0 58.9,9.3 80.6,27.91 21.7,18.59 34.1,40.3 34.1,68.19zm-220.1 911.41l-3.1 -706.8 217.01 0 0 706.8 -213.91 0zm1215.19 -3.11l0 -480.49c0,-37.2 -9.3,-65.09 -27.91,-83.7 -15.5,-18.6 -46.5,-31 -86.8,-31 -37.2,0 -68.2,12.4 -93,37.2l3.1 558.01 -210.79 3.1 -3.11 -492.89c0,-31 -9.29,-55.8 -27.9,-74.41 -15.51,-18.59 -46.5,-27.9 -86.81,-27.9 -18.59,0 -34.1,0 -49.6,3.1 -12.4,3.1 -27.91,6.19 -40.31,12.4l0 579.7 -210.8 0 0 -669.59c43.4,-15.51 86.81,-31 133.31,-40.31 46.5,-6.19 99.2,-12.4 155,-12.4 55.8,0 102.3,6.19 139.5,18.59 37.2,9.3 68.19,27.91 93,49.61 30.99,-21.7 65.09,-37.21 105.39,-49.61 37.21,-12.4 80.6,-18.59 127.1,-18.59 52.71,0 96.1,6.19 133.31,15.5 34.09,12.41 65.09,27.91 89.89,49.61 21.7,21.7 40.31,46.5 49.6,77.49 12.4,27.91 18.6,62.01 18.6,96.1l0 480.5 -210.8 0 0.03 -0.02zm1019.91 -356.5c0,52.71 -6.2,102.3 -21.7,148.79 -12.4,43.4 -34.1,83.71 -62.01,114.7 -27.9,34.1 -62,58.9 -105.39,77.49 -40.31,18.6 -89.9,27.91 -145.71,27.91 -55.8,0 -105.4,-9.3 -145.71,-24.8 -43.39,-18.6 -77.49,-46.5 -105.39,-77.5 -27.91,-34.09 -49.61,-71.3 -65.1,-117.8 -12.4,-43.39 -21.69,-92.99 -21.69,-145.7 0,-55.8 6.19,-105.4 21.69,-148.79 15.51,-46.5 34.1,-83.71 62.01,-117.8 27.9,-31 65.09,-55.8 105.4,-74.41 43.39,-18.59 89.89,-27.9 145.7,-27.9 55.8,0 105.4,6.19 145.71,24.8 43.39,18.59 77.49,43.39 105.4,77.49 27.9,30.99 49.6,71.3 65.09,114.7 15.5,46.5 21.7,96.1 21.7,148.79l0 0.03zm-217.01 -3.1c0,-34.1 0,-65.1 -6.19,-96.11 -3.11,-27.9 -9.3,-52.7 -18.6,-74.4 -9.29,-21.7 -21.69,-37.2 -37.2,-49.6 -15.5,-12.4 -34.1,-18.6 -58.9,-18.6 -21.7,0 -40.31,6.2 -55.79,18.6 -15.51,12.4 -27.91,27.9 -37.21,49.6 -9.29,21.7 -15.5,46.5 -18.59,74.4 -6.19,31 -6.19,62.01 -6.19,96.11 0,34.1 3.1,65.09 6.19,96.1 3.1,27.9 9.3,52.71 18.59,74.4 9.3,21.7 21.7,40.31 40.31,52.71 15.5,12.4 34.1,18.59 55.8,18.59 21.69,0 40.3,-6.19 55.79,-18.59 15.51,-12.4 27.91,-30.99 37.2,-52.71 9.3,-21.69 15.51,-46.5 21.7,-74.4 3.1,-31 6.19,-62 3.1,-96.1l-0.01 0zm1004.4 -24.8c3.11,127.09 -30.99,223.19 -96.1,291.39 -65.09,68.2 -158.11,105.4 -282.1,105.4 -55.8,0 -108.5,-6.19 -155,-15.51 -46.5,-9.29 -83.7,-21.69 -114.7,-37.2l-3.1 -992 213.9 -3.1 3.1 337.89c37.21,-15.5 80.6,-24.8 127.1,-24.8 49.6,0 89.9,9.3 127.1,24.8 37.2,15.51 71.3,37.2 96.1,65.09 27.91,31 49.6,65.1 62,108.51 15.51,40.3 21.7,89.89 21.7,139.49l0 0.04zm-210.8 21.71c0,-80.6 -12.4,-139.5 -37.2,-179.81 -24.8,-40.3 -62,-62 -111.61,-62 -15.5,0 -27.9,3.1 -40.3,6.19 -12.4,3.11 -24.8,6.2 -34.1,9.3l0 464.99c18.59,9.3 40.31,12.4 68.2,12.4 52.7,0 92.99,-21.7 117.8,-68.19 24.8,-43.4 37.2,-105.4 37.2,-182.9l0.01 0.02zm573.5 -554.9c0,27.9 -9.3,49.6 -31,71.3 -21.69,18.59 -49.6,27.9 -83.7,27.9 -30.99,0 -58.9,-9.29 -80.6,-27.9 -21.69,-18.6 -34.09,-43.4 -34.09,-71.3 0,-24.8 12.4,-49.61 34.09,-68.2 21.7,-18.59 49.61,-27.9 80.6,-27.9 34.1,0 58.9,9.29 83.7,27.9 21.7,18.59 31,43.4 31,68.2zm-220.1 914.49l0 -709.9 213.9 0 3.11 706.8 -217.01 3.1zm387.5 -3.1l-3.1 -1029.19 217 -3.11 3.11 1032.3 -217.01 0zm607.59 -911.39c0,24.8 -9.29,49.6 -30.99,68.19 -24.8,18.6 -49.6,27.91 -83.7,27.91 -31,0 -58.9,-9.3 -80.6,-27.91 -21.7,-18.59 -34.1,-40.3 -34.1,-68.19 0,-27.91 12.4,-49.61 34.1,-68.2 21.7,-18.59 49.6,-27.9 80.6,-27.9 34.1,0 58.9,9.29 80.59,27.9 24.81,18.59 34.1,40.31 34.1,68.2zm-220.09 911.39l0 -709.91 213.9 0 3.1 709.91 -217 0zm970.29 -40.3c-31,15.51 -71.3,27.91 -120.91,37.21 -49.6,9.29 -108.5,15.5 -170.49,15.5 -108.5,0 -189.1,-18.59 -244.9,-55.79 -55.79,-37.21 -83.7,-93 -83.7,-167.41 0,-43.39 9.3,-80.59 34.1,-111.6 21.7,-27.91 49.6,-52.71 89.9,-74.41 37.2,-18.59 80.59,-34.1 130.2,-43.39 52.7,-12.4 105.39,-18.6 161.19,-24.8l0 -31c0,-34.1 -9.3,-58.9 -30.99,-74.4 -21.7,-15.51 -55.8,-24.81 -96.11,-24.81 -34.09,0 -71.3,6.2 -105.39,15.51 -37.21,6.19 -68.2,18.59 -93,30.99l-49.61 -120.9c40.31,-15.5 83.71,-27.91 130.2,-40.31 49.61,-9.29 99.21,-15.5 148.8,-15.5 46.5,0 86.8,6.19 123.99,15.5 37.2,9.3 68.2,24.81 93,43.4 27.9,21.7 46.5,49.6 62,80.6 12.4,34.09 21.7,71.3 21.7,117.8l0 427.8 0.02 0.01zm-201.51 -328.59c-74.4,6.19 -127.09,21.69 -164.29,46.5 -34.1,21.69 -52.71,55.79 -52.71,102.29 0,40.31 12.4,68.2 37.2,89.9 21.7,18.59 55.8,27.9 99.21,27.9 34.1,0 62,-3.1 80.59,-12.4l0 -254.19zm-40.29 -415.41l-117.8 0 96.11 -189.1c27.9,-18.59 65.09,-27.9 105.4,-27.9 18.59,0 37.2,3.1 55.79,9.29 15.51,6.2 27.91,15.51 37.2,24.81l-176.7 182.89 0 0.01zm762.6 204.61c-12.4,-6.19 -24.8,-9.3 -37.2,-12.4 -15.51,-3.11 -27.91,-3.11 -40.31,-3.11 -27.91,0 -49.6,3.11 -65.09,9.3l0 582.79 -213.91 0 -3.1 -669.59c34.1,-15.51 77.49,-27.91 127.1,-40.31 52.7,-9.3 108.5,-12.4 176.7,-12.4 15.5,0 34.1,0 52.7,0 15.51,0 31,3.1 43.4,3.1l-40.31 142.6 0.02 0.02zm362.69 -337.91c0,27.91 -9.29,49.6 -30.99,68.2 -21.7,21.69 -49.6,30.99 -83.7,30.99 -31,0 -58.9,-9.3 -80.6,-27.91 -21.7,-18.59 -34.1,-43.39 -34.1,-71.3 0,-24.8 12.4,-49.6 34.1,-68.19 21.7,-18.6 49.6,-27.91 80.6,-27.91 34.1,0 58.9,9.3 83.7,27.91 21.7,18.59 30.99,40.3 30.99,68.19l0 0.02zm-220.09 911.4l0 -706.8 213.9 0 3.11 706.8 -217.01 0zm1029.19 -356.5c0,52.71 -6.2,102.29 -21.7,148.79 -12.4,43.4 -34.1,83.71 -62,117.8 -27.91,31 -65.1,58.9 -105.4,74.41 -43.4,18.59 -89.9,27.9 -145.71,27.9 -55.79,3.11 -105.4,-6.19 -145.7,-24.8 -43.4,-18.59 -77.5,-43.39 -105.4,-77.49 -27.91,-34.1 -49.61,-71.3 -65.1,-117.8 -12.4,-43.4 -21.69,-93 -21.69,-145.71 0,-55.79 6.19,-102.29 21.69,-148.79 12.41,-46.5 34.1,-83.7 62.01,-117.8 27.9,-30.99 65.09,-55.8 105.4,-74.4 43.39,-18.6 89.89,-27.91 145.7,-27.91 55.8,0 105.4,9.3 145.71,27.91 43.39,15.5 77.49,43.39 105.4,74.4 27.9,30.99 49.6,71.3 65.09,114.7 15.5,46.5 21.7,96.1 21.7,148.79zm-216.99 -3.1c0,-34.1 0,-65.1 -6.2,-96.11 -3.1,-27.9 -9.29,-52.7 -18.59,-74.4 -9.3,-21.7 -21.7,-37.2 -37.2,-49.6 -15.51,-12.4 -37.2,-18.6 -58.9,-18.6 -21.7,0 -40.31,6.2 -55.8,18.6 -15.5,12.4 -27.9,27.9 -37.2,49.6 -9.3,21.7 -15.5,46.5 -18.59,77.49 -6.2,27.91 -6.2,58.9 -6.2,93 0,34.1 0,68.2 6.2,96.1 3.1,27.91 9.29,55.8 18.59,77.5 9.3,18.59 21.7,37.2 37.2,49.6 18.6,12.4 37.2,18.59 58.9,18.59 21.7,0 40.31,-6.19 55.8,-18.59 15.5,-12.4 27.9,-30.99 37.2,-52.71 9.3,-21.7 15.51,-46.5 18.59,-74.4 6.2,-31 6.2,-62.01 6.2,-96.1l0 0.03zm840.08 139.51c0,34.1 -9.29,65.09 -21.69,93 -12.4,27.9 -31,52.7 -58.9,74.4 -24.8,18.59 -55.8,34.1 -93,46.5 -37.2,12.4 -77.49,18.59 -120.91,18.59 -43.39,0 -86.8,-3.1 -127.09,-12.4 -43.4,-9.29 -77.49,-21.69 -102.3,-37.2l55.8 -127.1c24.8,12.41 49.6,24.81 74.4,31 24.81,6.19 49.61,9.3 71.3,9.3 31,0 55.8,-9.3 74.41,-21.7 18.59,-15.51 27.9,-34.1 27.9,-58.9 0,-18.6 -9.29,-34.1 -21.69,-49.61 -15.51,-12.4 -34.1,-21.69 -55.8,-30.99 -18.59,-12.4 -43.39,-21.7 -68.2,-30.99 -24.8,-12.4 -46.49,-24.81 -68.19,-40.31 -21.7,-15.5 -40.31,-34.1 -55.8,-58.9 -12.4,-24.8 -18.59,-55.8 -21.7,-93 0,-30.99 9.3,-62 21.7,-89.89 12.4,-24.8 31,-49.61 55.8,-68.2 21.7,-18.59 49.6,-34.1 80.6,-43.39 34.09,-9.3 68.19,-15.51 102.29,-15.51 46.5,0 89.89,3.11 127.1,12.4 34.1,9.3 68.19,21.7 102.29,37.2l-52.71 114.7c-43.39,-24.8 -86.8,-37.2 -130.2,-37.2 -27.9,0 -52.7,9.29 -68.19,21.7 -15.51,15.5 -21.7,34.09 -21.7,52.7 0,21.7 6.19,37.2 21.7,49.61 12.4,12.4 30.99,24.8 52.7,34.09 21.7,9.3 46.5,18.6 71.31,31 24.8,9.29 49.6,21.7 71.3,37.2 21.69,15.51 40.3,37.2 55.79,62 12.4,21.7 18.6,52.71 21.7,89.9l-0.02 0z"/>
  </g>
 </g>
</svg>
