<?xml version="1.0" encoding="UTF-8"?>
<!DOCTYPE svg PUBLIC "-//W3C//DTD SVG 1.0//EN" "http://www.w3.org/TR/2001/REC-SVG-20010904/DTD/svg10.dtd">
<!-- Creator: CorelDRAW 2018 (64 Bit) -->
<svg xmlns="http://www.w3.org/2000/svg" xml:space="preserve" width="660mm" height="165mm" version="1.0" style="shape-rendering:geometricPrecision; text-rendering:geometricPrecision; image-rendering:optimizeQuality; fill-rule:evenodd; clip-rule:evenodd"
viewBox="0 0 66000 16500"
 xmlns:xlink="http://www.w3.org/1999/xlink">
 <defs>
  <style type="text/css">
   <![CDATA[
    .fil29 {fill:#3CAB68}
    .fil27 {fill:#3DAB67}
    .fil28 {fill:#3DAB68}
    .fil26 {fill:#3EAC67}
    .fil24 {fill:#3FAC66}
    .fil25 {fill:#3FAC67}
    .fil23 {fill:#40AC66}
    .fil22 {fill:#40AD66}
    .fil21 {fill:#41AD66}
    .fil20 {fill:#42AD65}
    .fil19 {fill:#43AD65}
    .fil18 {fill:#43AE65}
    .fil16 {fill:#44AE64}
    .fil17 {fill:#44AE65}
    .fil15 {fill:#45AE64}
    .fil14 {fill:#46AE64}
    .fil12 {fill:#46AF63}
    .fil13 {fill:#46AF64}
    .fil11 {fill:#47AF63}
    .fil9 {fill:#48AF62}
    .fil10 {fill:#48AF63}
    .fil8 {fill:#49B062}
    .fil7 {fill:#4AB062}
    .fil6 {fill:#4BB061}
    .fil5 {fill:#4BB161}
    .fil4 {fill:#4CB161}
    .fil2 {fill:#4DB160}
    .fil3 {fill:#4DB161}
    .fil1 {fill:#4EB160}
    .fil0 {fill:#4EB260}
    .fil31 {fill:#4FB25F}
    .fil30 {fill:#4FB260}
    .fil32 {fill:#50B25F}
    .fil33 {fill:#51B25F}
    .fil35 {fill:#51B35E}
    .fil34 {fill:#51B35F}
    .fil36 {fill:#52B35E}
    .fil38 {fill:#53B35D}
    .fil37 {fill:#53B35E}
    .fil39 {fill:#54B45D}
    .fil40 {fill:#55B45D}
    .fil41 {fill:#56B45C}
    .fil42 {fill:#56B55C}
    .fil43 {fill:#57B55C}
    .fil45 {fill:#58B55B}
    .fil44 {fill:#58B55C}
    .fil46 {fill:#59B55B}
    .fil47 {fill:#59B65B}
    .fil49 {fill:#5AB65A}
    .fil48 {fill:#5AB65B}
    .fil50 {fill:#5BB65A}
    .fil51 {fill:#5CB65A}
    .fil52 {fill:#5CB75A}
    .fil53 {fill:#5DB759}
    .fil54 {fill:#5EB759}
    .fil56 {fill:#5FB858}
    .fil55 {fill:#5FB859}
    .fil57 {fill:#60B858}
    .fil59 {fill:#61B857}
    .fil58 {fill:#61B858}
    .fil60 {fill:#61B957}
    .fil61 {fill:#62B957}
    .fil63 {fill:#63B956}
    .fil62 {fill:#63B957}
    .fil64 {fill:#64B956}
    .fil65 {fill:#64BA56}
    .fil67 {fill:#65BA55}
    .fil66 {fill:#65BA56}
    .fil68 {fill:#66BA55}
    .fil69 {fill:#67BA55}
    .fil70 {fill:#67BB55}
    .fil71 {fill:#68BB54}
    .fil72 {fill:#69BB54}
    .fil74 {fill:#6ABC53}
    .fil73 {fill:#6ABC54}
    .fil75 {fill:#6BBC53}
    .fil77 {fill:#6CBC52}
    .fil76 {fill:#6CBC53}
    .fil78 {fill:#6CBD52}
    .fil79 {fill:#6DBD52}
    .fil81 {fill:#6EBD51}
    .fil80 {fill:#6EBD52}
    .fil82 {fill:#6FBD51}
    .fil83 {fill:#6FBE51}
    .fil84 {fill:#70BE51}
    .fil85 {fill:#71BE50}
    .fil86 {fill:#72BE50}
    .fil87 {fill:#72BF50}
    .fil89 {fill:#73BF4F}
    .fil88 {fill:#73BF50}
    .fil90 {fill:#74BF4F}
    .fil92 {fill:#75C04E}
    .fil91 {fill:#75C04F}
    .fil93 {fill:#76C04E}
    .fil94 {fill:#FEFEFE;fill-rule:nonzero}
   ]]>
  </style>
    <clipPath id="id0">
     <path d="M34848.31 6160.95c-11.78,-1.94 -24.52,-3.07 -37.83,-3.07l-2706.41 0c-65.99,0 -130.86,27.27 -182.09,70.92 -51.39,43.89 -88.91,104.32 -100.12,170.47 -2.18,13.24 -3.39,26.71 -3.39,39.78 0,48.57 15.89,91.81 43.24,124.73 27.27,32.76 66.64,55.75 113.6,63.74 11.86,2.01 24.53,3.06 37.84,3.06l2706.4 0c66,0 130.86,-27.27 182.09,-70.92 51.4,-43.88 88.91,-104.31 100.13,-170.47 2.26,-13.31 3.39,-26.71 3.39,-39.78 0,-48.57 -15.98,-91.89 -43.25,-124.73 -27.27,-32.75 -66.64,-55.75 -113.6,-63.73zm-11614.65 5633.05c-11.13,-1.85 -22.99,-2.9 -35.34,-2.9l-547.57 0c-61.48,0 -121.99,25.41 -169.59,66.08 -47.84,40.9 -82.94,97.3 -93.43,158.94 -2.01,12.34 -3.14,24.68 -3.14,36.87 0,45.02 14.68,85.28 40.18,115.77 25.33,30.58 61.96,51.88 105.44,59.3 11.06,1.78 22.84,2.83 35.18,2.83l547.57 0c61.48,0 121.99,-25.42 169.59,-66.08 47.85,-40.91 82.94,-97.14 93.35,-158.78 2.02,-12.34 3.14,-24.93 3.14,-37.11 0,-45.1 -14.68,-85.36 -40.09,-115.78 -25.34,-30.49 -61.88,-51.79 -105.29,-59.14zm1669.99 -1613.35l-667.22 0c-66,0 -130.94,27.27 -182.1,71 -51.39,43.89 -88.9,104.32 -100.12,170.56 -2.18,13.07 -3.31,26.46 -3.31,39.45 -0.08,48.33 15.82,91.81 43.33,124.73 27.43,32.92 66.88,55.99 113.68,63.9 11.86,2.02 24.44,3.06 37.59,3.06l667.22 0c65.84,0 130.7,-27.35 182.02,-71.15 51.39,-43.89 89.07,-104.4 100.2,-170.32 2.18,-13.07 3.31,-26.46 3.31,-39.53 0,-48.41 -15.89,-91.82 -43.33,-124.73 -27.35,-32.92 -66.8,-55.91 -113.67,-63.9 -11.7,-1.94 -24.45,-3.07 -37.6,-3.07zm1369.94 -275.68l-667.22 0c-66,0 -130.94,27.27 -182.09,71 -51.24,43.89 -88.91,104.32 -100.13,170.47 -2.18,13.24 -3.39,26.63 -3.39,39.7 0,48.49 15.9,91.81 43.33,124.73 27.27,32.76 66.64,55.75 113.6,63.74 11.86,2.01 24.44,3.06 37.75,3.06l667.23 0c65.99,0 130.94,-27.27 182.09,-71 51.23,-43.89 88.91,-104.32 100.12,-170.47 2.26,-13.31 3.39,-26.71 3.39,-39.7 0,-48.57 -15.89,-91.89 -43.32,-124.73 -27.27,-32.75 -66.73,-55.75 -113.6,-63.73 -11.7,-1.94 -24.53,-3.07 -37.76,-3.07zm-3004.03 931.04l-247.04 0c-66.08,0 -131.02,27.27 -182.17,71 -51.4,43.89 -88.91,104.24 -100.13,170.48 -2.18,13.07 -3.31,26.38 -3.31,39.45 0,48.41 15.98,91.89 43.41,124.81 27.43,32.92 66.88,55.99 113.68,63.9 11.86,2.02 24.44,3.07 37.6,3.07l247.04 0c65.83,0 130.86,-27.27 182.09,-71.16 51.39,-43.89 89.07,-104.32 100.2,-170.32 2.18,-13.07 3.31,-26.46 3.31,-39.53 0,-48.41 -15.89,-91.82 -43.32,-124.73 -27.43,-32.84 -66.89,-55.91 -113.76,-63.9 -11.7,-1.94 -24.45,-3.07 -37.6,-3.07zm691.67 4746.55c-11.05,-1.77 -22.83,-2.82 -35.18,-2.82l-547.57 0c-61.4,0 -121.91,25.41 -169.59,66.16 -47.84,40.82 -82.94,97.14 -93.35,158.77 -2.01,12.35 -3.14,24.85 -3.14,37.12 0,45.02 14.68,85.28 40.1,115.69 25.25,30.34 61.8,51.72 105.36,59.14 10.98,1.86 22.92,2.9 35.26,2.9l547.57 0c61.48,0 121.99,-25.41 169.59,-66.07 47.85,-40.91 82.94,-97.3 93.43,-158.94 2.02,-12.34 3.15,-24.77 3.15,-36.87 0,-45.02 -14.69,-85.28 -40.18,-115.78 -25.34,-30.57 -61.96,-51.87 -105.45,-59.3zm-1042.22 -976.3c-11.05,-1.78 -22.83,-2.83 -35.18,-2.83l-547.57 0c-61.48,0 -121.99,25.42 -169.59,66.08 -47.84,40.91 -82.94,97.14 -93.35,158.78 -2.01,12.34 -3.14,24.77 -3.14,37.03 0,45.02 14.76,85.36 40.18,115.86 25.41,30.41 62.04,51.87 105.44,59.22 10.98,1.77 22.84,2.82 35.18,2.82l547.57 0c61.4,0 121.91,-25.41 169.59,-66.16 47.77,-40.74 82.86,-97.22 93.35,-158.86 2.02,-12.34 3.15,-24.77 3.15,-36.87 0,-45.02 -14.69,-85.28 -40.18,-115.77 -25.34,-30.58 -61.96,-51.88 -105.45,-59.3zm2395.7 -935.64c-11.05,-1.78 -22.83,-2.83 -35.17,-2.83l-547.58 0c-61.47,0 -121.98,25.42 -169.59,66.08 -47.92,40.82 -82.93,97.3 -93.42,158.86 -2.02,12.34 -3.15,24.68 -3.15,36.95 0,45.02 14.77,85.36 40.18,115.85 25.41,30.42 62.04,51.88 105.45,59.22 10.97,1.78 22.83,2.83 35.17,2.83l547.58 0c61.48,0 121.99,-25.42 169.59,-66.08 47.84,-40.9 82.94,-97.3 93.42,-158.94 2.02,-12.34 3.15,-24.77 3.15,-36.87 0,-45.02 -14.68,-85.28 -40.18,-115.78 -25.33,-30.57 -61.96,-51.87 -105.45,-59.29zm-427.12 -889.9c-10.97,-1.78 -22.75,-2.83 -35.09,-2.83l-547.49 0c-61.48,0 -121.91,25.34 -169.67,66.16 -47.85,40.91 -82.94,97.3 -93.35,158.78 -2.02,12.26 -3.15,24.77 -3.15,36.95 0,45.1 14.77,85.28 40.18,115.78 25.42,30.49 62.04,51.87 105.53,59.3 10.97,1.77 22.75,2.82 35.1,2.82l547.57 0c61.4,0 121.91,-25.41 169.59,-66.16 47.84,-40.82 82.94,-97.14 93.35,-158.7 2.01,-12.26 3.14,-24.84 3.14,-36.95 0,-45.02 -14.76,-85.28 -40.18,-115.77 -25.41,-30.5 -61.96,-51.96 -105.53,-59.38zm1326.94 0c-10.97,-1.78 -22.75,-2.83 -35.09,-2.83l-547.57 0c-61.4,0 -121.91,25.42 -169.59,66.16 -47.85,40.91 -82.94,97.3 -93.35,158.78 -2.02,12.34 -3.15,24.77 -3.15,36.95 0,45.02 14.69,85.28 40.18,115.78 25.34,30.57 61.96,51.87 105.45,59.3 11.05,1.77 22.83,2.82 35.18,2.82l547.49 0c61.48,0 121.99,-25.41 169.67,-66.08 47.76,-40.9 82.94,-97.14 93.35,-158.78 2.01,-12.26 3.14,-24.84 3.14,-36.95 0,-45.02 -14.76,-85.28 -40.18,-115.77 -25.41,-30.5 -61.96,-51.96 -105.53,-59.38zm-1099.66 -986.72c-11.13,-1.85 -22.99,-2.9 -35.34,-2.9l-547.57 0c-61.48,0 -121.99,25.41 -169.59,66.08 -47.84,40.9 -82.94,97.3 -93.43,158.94 -2.01,12.34 -3.14,24.68 -3.14,36.87 0,45.02 14.68,85.28 40.17,115.77 25.34,30.58 61.97,51.88 105.45,59.3 11.06,1.78 22.84,2.83 35.18,2.83l547.57 0c61.48,0 121.99,-25.42 169.59,-66.08 47.84,-40.91 82.94,-97.14 93.35,-158.78 2.01,-12.34 3.14,-24.93 3.14,-37.11 0,-45.1 -14.68,-85.36 -40.09,-115.78 -25.34,-30.49 -61.88,-51.79 -105.29,-59.14zm88.75 -2875.82l-667.14 0c-66.08,0 -130.95,27.27 -182.1,70.91 -51.39,43.89 -88.91,104.4 -100.2,170.64 -2.18,13.23 -3.39,26.54 -3.39,39.61 0,48.57 15.89,91.9 43.32,124.74 27.35,32.83 66.81,55.74 113.68,63.73 11.78,2.02 24.53,3.07 37.76,3.07l667.14 0c66.08,0 130.94,-27.27 182.1,-70.92 51.39,-43.89 88.9,-104.4 100.2,-170.64 2.26,-13.31 3.39,-26.62 3.39,-39.61 0,-48.57 -15.9,-91.89 -43.33,-124.73 -27.27,-32.76 -66.72,-55.75 -113.59,-63.74 -11.78,-1.93 -24.53,-3.06 -37.84,-3.06zm886.43 -930.97l-667.31 0c-65.99,0 -130.86,27.27 -182.09,70.92 -51.39,43.89 -88.91,104.32 -100.12,170.56 -2.18,13.23 -3.39,26.7 -3.39,39.77 0,48.49 15.89,91.82 43.32,124.65 27.27,32.76 66.72,55.75 113.6,63.74 11.78,2.02 24.53,3.06 37.76,3.06l667.3 0c66,0 130.94,-27.27 182.09,-70.99 51.23,-43.89 88.91,-104.32 100.13,-170.48 2.26,-13.31 3.39,-26.62 3.39,-39.69 0,-48.49 -15.9,-91.82 -43.33,-124.74 -27.27,-32.75 -66.64,-55.74 -113.6,-63.73 -11.78,-1.94 -24.44,-3.07 -37.75,-3.07zm21.78 -907.56l-667.14 0c-66.08,0 -130.95,27.27 -182.1,70.99 -51.39,43.89 -88.91,104.4 -100.2,170.64 -2.18,13.23 -3.39,26.63 -3.39,39.62 0,48.4 15.9,91.73 43.33,124.56 27.27,32.84 66.72,55.84 113.59,63.82 11.86,2.02 24.53,3.07 37.84,3.07l667.14 0c66,0 130.87,-27.27 182.1,-70.92 51.39,-43.89 88.91,-104.32 100.12,-170.48 2.26,-13.39 3.39,-26.7 3.39,-39.85 0,-48.41 -15.81,-91.81 -43.25,-124.65 -27.27,-32.68 -66.72,-55.75 -113.51,-63.74 -11.78,-1.93 -24.61,-3.06 -37.92,-3.06zm-1005.19 -921.77l-667.22 0c-66,0 -130.86,27.27 -182.01,70.92 -51.4,43.89 -88.91,104.4 -100.21,170.64 -2.18,13.23 -3.39,26.62 -3.39,39.61 0,48.57 15.9,91.89 43.33,124.73 27.27,32.76 66.72,55.75 113.59,63.74 11.78,2.01 24.53,3.06 37.76,3.06l667.22 0c66.08,0 130.95,-27.27 182.1,-70.92 51.39,-43.88 88.91,-104.31 100.12,-170.55 2.26,-13.39 3.39,-26.79 3.39,-39.86 0,-48.41 -15.81,-91.73 -43.24,-124.57 -27.27,-32.75 -66.65,-55.75 -113.52,-63.73 -11.78,-1.94 -24.61,-3.07 -37.92,-3.07zm4083.93 1840.55l-2069.2 0c-65.91,0 -130.86,27.27 -182.01,70.99 -51.39,43.89 -88.91,104.4 -100.2,170.64 -2.18,13.23 -3.39,26.63 -3.39,39.62 0,48.48 15.81,91.73 43.24,124.57 27.27,32.83 66.64,55.83 113.6,63.81 11.86,2.02 24.53,3.07 37.84,3.07l2069.19 0c66,0 130.86,-27.27 182.01,-70.92 51.4,-43.89 88.91,-104.4 100.21,-170.64 2.26,-13.31 3.39,-26.62 3.39,-39.61 0,-48.57 -15.9,-91.89 -43.33,-124.73 -27.27,-32.76 -66.72,-55.75 -113.59,-63.74 -11.7,-1.93 -24.53,-3.06 -37.76,-3.06zm-406.39 -918.78l-1341.38 0c-66.07,0 -130.94,27.27 -182.09,70.99 -51.39,43.89 -88.91,104.4 -100.21,170.64 -2.17,13.23 -3.38,26.55 -3.38,39.62 0,48.48 15.89,91.81 43.32,124.65 27.27,32.75 66.64,55.75 113.6,63.73 11.86,2.02 24.52,3.07 37.84,3.07l1341.38 0c65.99,0 130.86,-27.27 182.09,-70.92 51.39,-43.89 88.91,-104.32 100.13,-170.48 2.25,-13.31 3.38,-26.7 3.38,-39.69 0,-48.57 -15.89,-91.89 -43.32,-124.81 -27.27,-32.76 -66.72,-55.75 -113.6,-63.74 -11.78,-1.93 -24.44,-3.06 -37.76,-3.06zm-356.76 -921.77l-2051.12 0c-66,0 -130.87,27.27 -182.02,70.92 -51.39,43.89 -88.91,104.4 -100.2,170.64 -2.18,13.23 -3.39,26.62 -3.39,39.61 0,48.57 15.89,91.89 43.33,124.73 27.27,32.76 66.72,55.75 113.59,63.74 11.78,2.01 24.53,3.06 37.76,3.06l2051.12 0c66.08,0 130.94,-27.27 182.1,-70.92 51.39,-43.88 88.9,-104.39 100.2,-170.63 2.26,-13.31 3.39,-26.63 3.39,-39.62 0,-48.57 -15.9,-91.89 -43.33,-124.73 -27.27,-32.75 -66.72,-55.75 -113.59,-63.73 -11.78,-1.94 -24.53,-3.07 -37.84,-3.07zm-1749.22 9424.76c-11.05,-1.85 -22.91,-2.9 -35.26,-2.9l-1936.87 0c-61.4,0 -121.91,25.41 -169.59,66.16 -47.85,40.82 -82.94,97.14 -93.35,158.77 -2.02,12.35 -3.15,24.77 -3.15,36.96 0,45.02 14.69,85.27 40.18,115.77 25.34,30.58 61.96,51.88 105.45,59.3 11.05,1.78 22.83,2.82 35.18,2.82l1936.79 0c61.4,0 121.91,-25.41 169.59,-66.15 47.85,-40.83 82.94,-97.14 93.35,-158.78 2.02,-12.34 3.15,-24.93 3.15,-37.11 0,-45.02 -14.69,-85.28 -40.1,-115.7 -25.25,-30.33 -61.8,-51.71 -105.37,-59.14zm6562.89 0c-11.05,-1.85 -22.91,-2.9 -35.25,-2.9l-2573.45 0c-61.39,0 -121.9,25.41 -169.58,66.16 -47.77,40.74 -82.86,97.22 -93.35,158.86 -2.02,12.34 -3.15,24.68 -3.15,36.95 0,44.94 14.69,85.19 40.18,115.69 25.34,30.58 61.88,51.88 105.37,59.3 11.05,1.78 22.83,2.82 35.18,2.82l2573.44 0c61.39,0 121.9,-25.41 169.59,-66.15 47.76,-40.75 82.85,-97.22 93.34,-158.86 2.02,-12.34 3.15,-24.77 3.15,-36.95 0,-44.94 -14.77,-85.2 -40.18,-115.7 -25.33,-30.49 -61.88,-51.79 -105.29,-59.22zm-5770.37 -976.3c-11.06,-1.86 -23,-2.91 -35.34,-2.91l-3668.35 0c-61.47,0 -121.98,25.42 -169.59,66.08 -47.84,40.91 -82.85,97.22 -93.34,158.86 -2.02,12.34 -3.15,24.77 -3.15,37.03 0,45.1 14.69,85.36 40.1,115.78 25.33,30.49 61.88,51.79 105.29,59.13 11.05,1.86 22.99,2.91 35.33,2.91l3668.43 0c61.4,0 121.91,-25.41 169.59,-66.16 47.76,-40.74 82.86,-97.22 93.35,-158.86 2.01,-12.34 3.14,-24.85 3.14,-37.03 0,-45.02 -14.68,-85.28 -40.09,-115.69 -25.26,-30.34 -61.81,-51.72 -105.37,-59.14zm828.82 -935.72c-11.05,-1.78 -22.83,-2.83 -35.18,-2.83l-2201.26 0c-61.48,0 -121.99,25.42 -169.59,66.08 -47.84,40.9 -82.94,97.14 -93.35,158.78 -2.01,12.34 -3.14,24.76 -3.14,37.03 0,45.02 14.76,85.36 40.17,115.85 25.42,30.42 62.05,51.88 105.45,59.22 10.98,1.78 22.84,2.83 35.18,2.83l2201.18 0c61.48,0 121.91,-25.34 169.67,-66.16 47.77,-40.74 82.86,-97.22 93.35,-158.86 2.02,-12.34 3.15,-24.77 3.15,-36.87 0,-45.02 -14.69,-85.28 -40.18,-115.78 -25.33,-30.57 -61.96,-51.87 -105.45,-59.29zm4481.28 935.64c-11.06,-1.78 -22.84,-2.83 -35.18,-2.83l-2573.36 0c-61.48,0 -121.91,25.34 -169.67,66.16 -47.84,40.83 -82.86,97.14 -93.35,158.78 -2.01,12.26 -3.14,24.77 -3.14,36.87 0,45.02 14.76,85.36 40.17,115.86 25.42,30.49 61.97,51.87 105.53,59.3 10.98,1.77 22.76,2.82 35.1,2.82l2573.36 0c61.48,0 121.99,-25.41 169.59,-66.08 47.84,-40.9 82.94,-97.3 93.43,-158.94 2.01,-12.34 3.14,-24.77 3.14,-36.87 0,-45.02 -14.68,-85.28 -40.18,-115.77 -25.33,-30.58 -61.96,-51.88 -105.44,-59.3zm-501.27 -935.64c-11.05,-1.78 -22.83,-2.83 -35.17,-2.83l-2573.36 0c-61.48,0 -121.99,25.42 -169.59,66.08 -47.85,40.9 -82.94,97.14 -93.35,158.78 -2.02,12.34 -3.15,24.76 -3.15,37.03 0,45.02 14.77,85.36 40.18,115.85 25.42,30.42 62.04,51.88 105.45,59.22 10.97,1.78 22.83,2.83 35.18,2.83l2573.36 0c61.39,0 121.9,-25.42 169.59,-66.16 47.76,-40.74 82.85,-97.22 93.34,-158.86 2.02,-12.34 3.15,-24.77 3.15,-36.87 0,-45.02 -14.68,-85.28 -40.18,-115.78 -25.33,-30.57 -61.96,-51.87 -105.45,-59.29zm-334.66 -889.9c-10.97,-1.78 -22.83,-2.83 -35.17,-2.83l-5013.76 0c-61.48,0 -121.91,25.34 -169.67,66.16 -47.77,40.91 -82.94,97.14 -93.35,158.78 -2.02,12.34 -3.15,24.77 -3.15,36.95 0,45.02 14.77,85.28 40.18,115.78 25.42,30.49 61.96,51.87 105.53,59.3 11.05,1.77 22.83,2.82 35.18,2.82l5013.68 0c61.48,0 121.98,-25.41 169.59,-66.08 47.92,-40.82 82.93,-97.3 93.42,-158.86 2.02,-12.34 3.15,-24.76 3.15,-36.95 0,-45.02 -14.76,-85.36 -40.18,-115.85 -25.41,-30.42 -62.04,-51.88 -105.45,-59.22zm-626.31 -986.8c-10.98,-1.77 -22.84,-2.82 -35.18,-2.82l-5254.43 0c-61.4,0 -121.91,25.41 -169.59,66.16 -47.76,40.74 -82.86,97.22 -93.34,158.86 -2.02,12.34 -3.15,24.76 -3.15,37.03 0,45.02 14.68,85.28 40.1,115.69 25.25,30.34 61.8,51.72 105.36,59.14 10.98,1.86 23,2.91 35.34,2.91l5254.35 0c61.48,0 121.99,-25.42 169.67,-66.08 47.76,-40.91 82.86,-97.3 93.35,-158.86 2.01,-12.34 3.14,-24.77 3.14,-36.95 0,-45.02 -14.76,-85.36 -40.18,-115.86 -25.41,-30.41 -62.04,-51.87 -105.44,-59.22zm-129.09 -938.62c-10.97,-1.78 -22.75,-2.83 -35.18,-2.83l-7205.02 0c-61.56,0 -122.07,25.42 -169.67,66.08 -47.84,40.9 -82.94,97.3 -93.35,158.86 -2.01,12.26 -3.14,24.85 -3.14,36.95 0,45.02 14.76,85.28 40.18,115.77 25.41,30.5 61.96,51.88 105.52,59.3 10.98,1.78 22.76,2.83 35.1,2.83l7205.1 0c61.4,0 121.83,-25.34 169.59,-66.16 47.76,-40.9 82.86,-97.3 93.35,-158.86 2.02,-12.34 3.15,-24.77 3.15,-36.95 0,-44.94 -14.69,-85.2 -40.18,-115.69 -25.34,-30.58 -61.97,-51.88 -105.45,-59.3zm544.67 -947.26c-11.78,-1.94 -24.53,-3.07 -37.84,-3.07l-4700.4 0c-66,0 -130.87,27.27 -182.1,70.92 -51.39,43.89 -88.91,104.32 -100.12,170.47 -2.18,13.32 -3.39,26.71 -3.39,39.86 0,48.57 15.89,91.81 43.16,124.65 27.27,32.76 66.65,55.75 113.6,63.74 11.86,2.01 24.61,3.06 37.92,3.06l4700.4 0c66,0 130.86,-27.27 182.02,-70.92 51.39,-43.89 88.9,-104.31 100.2,-170.55 2.26,-13.31 3.39,-26.63 3.39,-39.7 0,-48.49 -15.9,-91.81 -43.25,-124.73 -27.27,-32.75 -66.64,-55.75 -113.59,-63.73zm661.33 -986.8c-11.78,-1.93 -24.53,-3.06 -37.84,-3.06l-6394.76 0c-65.99,0 -130.86,27.27 -182.09,70.91 -51.39,43.89 -88.91,104.32 -100.2,170.56 -2.18,13.23 -3.39,26.62 -3.39,39.69 0,48.57 15.89,91.9 43.32,124.74 27.27,32.75 66.72,55.74 113.6,63.73 11.86,2.02 24.53,3.07 37.84,3.07l6394.75 0c66,0 130.87,-27.27 182.1,-70.92 51.39,-43.89 88.91,-104.32 100.2,-170.56 2.26,-13.31 3.39,-26.62 3.39,-39.69 0,-48.57 -15.89,-91.89 -43.32,-124.73 -27.27,-32.76 -66.73,-55.75 -113.6,-63.74zm747.74 -919.75c-11.78,-1.93 -24.45,-3.06 -37.76,-3.06l-2432.49 0c-66,0 -130.87,27.27 -182.1,70.91 -51.39,43.89 -88.91,104.32 -100.12,170.48 -2.18,13.31 -3.39,26.71 -3.39,39.86 0,48.57 15.89,91.81 43.16,124.65 27.27,32.75 66.65,55.75 113.6,63.73 11.86,2.02 24.61,3.07 37.92,3.07l2432.49 0c66,0 130.87,-27.27 182.1,-70.92 51.31,-43.81 88.91,-104.32 100.12,-170.39 2.26,-13.32 3.39,-26.71 3.39,-39.78 0,-48.57 -15.89,-91.89 -43.24,-124.81 -27.35,-32.84 -66.81,-55.75 -113.68,-63.74zm758.71 -918.78c-11.78,-1.93 -24.61,-3.06 -37.92,-3.06l-2432.49 0c-66,0 -130.95,27.27 -182.1,70.99 -51.23,43.89 -88.91,104.32 -100.12,170.48 -2.18,13.23 -3.39,26.71 -3.39,39.69 0,48.57 15.9,91.9 43.33,124.74 27.27,32.75 66.72,55.75 113.59,63.73 11.78,2.02 24.53,3.07 37.76,3.07l2432.5 0c65.99,0 130.86,-27.27 182.09,-70.92 51.31,-43.81 88.91,-104.32 100.12,-170.39 2.26,-13.4 3.39,-26.79 3.39,-39.86 0,-48.57 -15.81,-91.89 -43.24,-124.73 -27.27,-32.76 -66.64,-55.75 -113.52,-63.74z"/>
    </clipPath>
 </defs>
 <g id="Camada_x0020_1">
  <metadata id="CorelCorpID_0Corel-Layer"/>
  <g>
   <g style="clip-path:url(#id0)">
    <path class="fil0" d="M36080.69 15687.37l-45.12 5.17 -1229.47 -10730.06 45.12 -5.16 1229.47 10730.05z"/>
    <path id="1" class="fil0" d="M36054.46 15690.37l-56.66 6.5 -1229.47 -10730.06 56.66 -6.49 1229.47 10730.05z"/>
    <path id="2" class="fil1" d="M36016.69 15694.7l-56.66 6.49 -1229.47 -10730.05 56.66 -6.49 1229.47 10730.05z"/>
    <path id="3" class="fil1" d="M35978.92 15699.03l-56.66 6.49 -1229.46 -10730.05 56.65 -6.49 1229.47 10730.05z"/>
    <path id="4" class="fil2" d="M35941.15 15703.36l-56.65 6.49 -1229.47 -10730.06 56.65 -6.49 1229.47 10730.06z"/>
    <path id="5" class="fil2" d="M35903.38 15707.68l-56.65 6.5 -1229.47 -10730.06 56.65 -6.49 1229.47 10730.05z"/>
    <path id="6" class="fil2" d="M35865.61 15712.01l-56.65 6.49 -1229.47 -10730.05 56.65 -6.49 1229.47 10730.05z"/>
    <path id="7" class="fil3" d="M35827.84 15716.34l-56.65 6.49 -1229.47 -10730.05 56.65 -6.49 1229.47 10730.05z"/>
    <path id="8" class="fil4" d="M35790.07 15720.67l-56.65 6.49 -1229.47 -10730.05 56.66 -6.5 1229.46 10730.06z"/>
    <path id="9" class="fil4" d="M35752.31 15724.99l-56.66 6.5 -1229.47 -10730.06 56.66 -6.49 1229.47 10730.05z"/>
    <path id="10" class="fil4" d="M35714.54 15729.32l-56.66 6.49 -1229.47 -10730.05 56.66 -6.49 1229.47 10730.05z"/>
    <path id="11" class="fil4" d="M35676.77 15733.65l-56.66 6.49 -1229.46 -10730.05 56.65 -6.49 1229.47 10730.05z"/>
    <path id="12" class="fil5" d="M35639 15737.98l-56.65 6.49 -1229.47 -10730.05 56.65 -6.5 1229.47 10730.06z"/>
    <path id="13" class="fil5" d="M35601.23 15742.31l-56.65 6.49 -1229.47 -10730.06 56.65 -6.49 1229.47 10730.06z"/>
    <path id="14" class="fil6" d="M35563.46 15746.63l-56.65 6.49 -1229.47 -10730.05 56.65 -6.49 1229.47 10730.05z"/>
    <path id="15" class="fil6" d="M35525.69 15750.96l-56.65 6.49 -1229.47 -10730.05 56.65 -6.49 1229.47 10730.05z"/>
    <path id="16" class="fil6" d="M35487.92 15755.29l-56.65 6.49 -1229.47 -10730.05 56.66 -6.5 1229.46 10730.06z"/>
    <path id="17" class="fil7" d="M35450.16 15759.62l-56.66 6.49 -1229.47 -10730.06 56.66 -6.49 1229.47 10730.06z"/>
    <path id="18" class="fil7" d="M35412.39 15763.94l-56.66 6.49 -1229.47 -10730.05 56.66 -6.49 1229.47 10730.05z"/>
    <path id="19" class="fil7" d="M35374.62 15768.27l-56.66 6.49 -1229.46 -10730.05 56.65 -6.49 1229.47 10730.05z"/>
    <path id="20" class="fil7" d="M35336.85 15772.6l-56.65 6.49 -1229.47 -10730.05 56.65 -6.49 1229.47 10730.05z"/>
    <path id="21" class="fil8" d="M35299.08 15776.93l-56.65 6.49 -1229.47 -10730.06 56.65 -6.49 1229.47 10730.06z"/>
    <path id="22" class="fil8" d="M35261.31 15781.25l-56.65 6.5 -1229.47 -10730.06 56.65 -6.49 1229.47 10730.05z"/>
    <path id="23" class="fil8" d="M35223.54 15785.58l-56.65 6.49 -1229.47 -10730.05 56.65 -6.49 1229.47 10730.05z"/>
    <path id="24" class="fil8" d="M35185.77 15789.91l-56.65 6.49 -1229.47 -10730.05 56.66 -6.49 1229.46 10730.05z"/>
    <path id="25" class="fil8" d="M35148.01 15794.24l-56.66 6.49 -1229.47 -10730.06 56.66 -6.49 1229.47 10730.06z"/>
    <path id="26" class="fil9" d="M35110.24 15798.56l-56.66 6.5 -1229.47 -10730.06 56.66 -6.49 1229.47 10730.05z"/>
    <path id="27" class="fil10" d="M35072.47 15802.89l-56.65 6.49 -1229.47 -10730.05 56.65 -6.49 1229.47 10730.05z"/>
    <path id="28" class="fil10" d="M35034.7 15807.22l-56.65 6.49 -1229.47 -10730.05 56.65 -6.49 1229.47 10730.05z"/>
    <path id="29" class="fil10" d="M34996.93 15811.55l-56.65 6.49 -1229.47 -10730.05 56.65 -6.5 1229.47 10730.06z"/>
    <path id="30" class="fil11" d="M34959.16 15815.87l-56.65 6.5 -1229.47 -10730.06 56.65 -6.49 1229.47 10730.05z"/>
    <path id="31" class="fil11" d="M34921.39 15820.2l-56.65 6.49 -1229.47 -10730.05 56.65 -6.49 1229.47 10730.05z"/>
    <path id="32" class="fil11" d="M34883.62 15824.53l-56.65 6.49 -1229.47 -10730.05 56.66 -6.49 1229.46 10730.05z"/>
    <path id="33" class="fil11" d="M34845.86 15828.86l-56.66 6.49 -1229.47 -10730.05 56.66 -6.5 1229.47 10730.06z"/>
    <path id="34" class="fil12" d="M34808.09 15833.19l-56.66 6.49 -1229.46 -10730.06 56.65 -6.49 1229.47 10730.06z"/>
    <path id="35" class="fil12" d="M34770.32 15837.51l-56.65 6.49 -1229.47 -10730.05 56.65 -6.49 1229.47 10730.05z"/>
    <path id="36" class="fil13" d="M34732.55 15841.84l-56.65 6.49 -1229.47 -10730.05 56.65 -6.49 1229.47 10730.05z"/>
    <path id="37" class="fil13" d="M34694.78 15846.17l-56.65 6.49 -1229.47 -10730.05 56.65 -6.5 1229.47 10730.06z"/>
    <path id="38" class="fil14" d="M34657.01 15850.5l-56.65 6.49 -1229.47 -10730.06 56.65 -6.49 1229.47 10730.06z"/>
    <path id="39" class="fil15" d="M34619.24 15854.82l-56.65 6.49 -1229.47 -10730.05 56.65 -6.49 1229.47 10730.05z"/>
    <path id="40" class="fil15" d="M34581.47 15859.15l-56.65 6.49 -1229.47 -10730.05 56.66 -6.49 1229.46 10730.05z"/>
    <path id="41" class="fil15" d="M34543.71 15863.48l-56.66 6.49 -1229.47 -10730.05 56.66 -6.49 1229.47 10730.05z"/>
    <path id="42" class="fil15" d="M34505.94 15867.81l-56.66 6.49 -1229.46 -10730.06 56.65 -6.49 1229.47 10730.06z"/>
    <path id="43" class="fil16" d="M34468.17 15872.13l-56.65 6.49 -1229.47 -10730.05 56.65 -6.49 1229.47 10730.05z"/>
    <path id="44" class="fil16" d="M34430.4 15876.46l-56.65 6.49 -1229.47 -10730.05 56.65 -6.49 1229.47 10730.05z"/>
    <path id="45" class="fil16" d="M34392.63 15880.79l-56.65 6.49 -1229.47 -10730.05 56.65 -6.49 1229.47 10730.05z"/>
    <path id="46" class="fil17" d="M34354.86 15885.12l-56.65 6.49 -1229.47 -10730.06 56.65 -6.49 1229.47 10730.06z"/>
    <path id="47" class="fil17" d="M34317.09 15889.44l-56.65 6.5 -1229.47 -10730.06 56.65 -6.49 1229.47 10730.05z"/>
    <path id="48" class="fil18" d="M34279.32 15893.77l-56.65 6.49 -1229.47 -10730.05 56.66 -6.49 1229.46 10730.05z"/>
    <path id="49" class="fil18" d="M34241.56 15898.1l-56.66 6.49 -1229.47 -10730.05 56.66 -6.49 1229.47 10730.05z"/>
    <path id="50" class="fil19" d="M34203.79 15902.43l-56.66 6.49 -1229.46 -10730.06 56.65 -6.49 1229.47 10730.06z"/>
    <path id="51" class="fil19" d="M34166.02 15906.75l-56.65 6.5 -1229.47 -10730.06 56.65 -6.49 1229.47 10730.05z"/>
    <path id="52" class="fil20" d="M34128.25 15911.08l-56.65 6.49 -1229.47 -10730.05 56.65 -6.49 1229.47 10730.05z"/>
    <path id="53" class="fil20" d="M34090.48 15915.41l-56.65 6.49 -1229.47 -10730.05 56.65 -6.49 1229.47 10730.05z"/>
    <path id="54" class="fil20" d="M34052.71 15919.74l-56.65 6.49 -1229.47 -10730.05 56.65 -6.5 1229.47 10730.06z"/>
    <path id="55" class="fil20" d="M34014.94 15924.06l-56.65 6.5 -1229.47 -10730.06 56.65 -6.49 1229.47 10730.05z"/>
    <path id="56" class="fil21" d="M33977.18 15928.39l-56.66 6.49 -1229.47 -10730.05 56.66 -6.49 1229.47 10730.05z"/>
    <path id="57" class="fil21" d="M33939.41 15932.72l-56.66 6.49 -1229.47 -10730.05 56.66 -6.49 1229.47 10730.05z"/>
    <path id="58" class="fil21" d="M33901.64 15937.05l-56.66 6.49 -1229.46 -10730.05 56.65 -6.5 1229.47 10730.06z"/>
    <path id="59" class="fil21" d="M33863.87 15941.38l-56.65 6.49 -1229.47 -10730.06 56.65 -6.49 1229.47 10730.06z"/>
    <path id="60" class="fil21" d="M33826.1 15945.7l-56.65 6.49 -1229.47 -10730.05 56.65 -6.49 1229.47 10730.05z"/>
    <path id="61" class="fil22" d="M33788.33 15950.03l-56.65 6.49 -1229.47 -10730.05 56.65 -6.49 1229.47 10730.05z"/>
    <path id="62" class="fil23" d="M33750.56 15954.36l-56.65 6.49 -1229.47 -10730.05 56.65 -6.5 1229.47 10730.06z"/>
    <path id="63" class="fil23" d="M33712.79 15958.69l-56.65 6.49 -1229.47 -10730.06 56.66 -6.49 1229.46 10730.06z"/>
    <path id="64" class="fil23" d="M33675.03 15963.01l-56.66 6.49 -1229.47 -10730.05 56.66 -6.49 1229.47 10730.05z"/>
    <path id="65" class="fil24" d="M33637.26 15967.34l-56.66 6.49 -1229.47 -10730.05 56.66 -6.49 1229.47 10730.05z"/>
    <path id="66" class="fil25" d="M33599.49 15971.67l-56.66 6.49 -1229.46 -10730.05 56.65 -6.49 1229.47 10730.05z"/>
    <path id="67" class="fil25" d="M33561.72 15976l-56.65 6.49 -1229.47 -10730.06 56.65 -6.49 1229.47 10730.06z"/>
    <path id="68" class="fil25" d="M33523.95 15980.32l-56.65 6.5 -1229.47 -10730.06 56.65 -6.49 1229.47 10730.05z"/>
    <path id="69" class="fil25" d="M33486.18 15984.65l-56.65 6.49 -1229.47 -10730.05 56.65 -6.49 1229.47 10730.05z"/>
    <path id="70" class="fil26" d="M33448.41 15988.98l-56.65 6.49 -1229.47 -10730.05 56.65 -6.49 1229.47 10730.05z"/>
    <path id="71" class="fil26" d="M33410.64 15993.31l-56.65 6.49 -1229.47 -10730.06 56.66 -6.49 1229.46 10730.06z"/>
    <path id="72" class="fil26" d="M33372.88 15997.63l-56.66 6.5 -1229.47 -10730.06 56.66 -6.49 1229.47 10730.05z"/>
    <path id="73" class="fil26" d="M33335.11 16001.96l-56.66 6.49 -1229.47 -10730.05 56.66 -6.49 1229.47 10730.05z"/>
    <path id="74" class="fil27" d="M33297.34 16006.29l-56.66 6.49 -1229.46 -10730.05 56.65 -6.49 1229.47 10730.05z"/>
    <path id="75" class="fil27" d="M33259.57 16010.62l-56.65 6.49 -1229.47 -10730.05 56.65 -6.5 1229.47 10730.06z"/>
    <path id="76" class="fil28" d="M33221.8 16014.94l-56.65 6.5 -1229.47 -10730.06 56.65 -6.49 1229.47 10730.05z"/>
    <path id="77" class="fil28" d="M33184.03 16019.27l-56.65 6.49 -1229.47 -10730.05 56.65 -6.49 1229.47 10730.05z"/>
    <path id="78" class="fil29" d="M33146.26 16023.6l-56.65 6.49 -1229.47 -10730.05 56.65 -6.49 1229.47 10730.05z"/>
    <path id="79" class="fil29" d="M33108.49 16027.93l-56.65 6.49 -1229.47 -10730.05 56.66 -6.5 1229.46 10730.06z"/>
    <path id="80" class="fil29" d="M33070.73 16032.26l-56.66 6.49 -1229.47 -10730.06 56.66 -6.49 1229.47 10730.06z"/>
    <path id="81" class="fil29" d="M33032.96 16036.58l-56.66 6.49 -1229.47 -10730.05 56.66 -6.49 1229.47 10730.05z"/>
    <path id="82" class="fil29" d="M32995.19 16040.91l-56.65 6.49 -1229.47 -10730.05 56.65 -6.49 1229.47 10730.05z"/>
    <path id="83" class="fil28" d="M32957.42 16045.24l-56.65 6.49 -1229.47 -10730.05 56.65 -6.5 1229.47 10730.06z"/>
    <path id="84" class="fil28" d="M32919.65 16049.57l-56.65 6.49 -1229.47 -10730.06 56.65 -6.49 1229.47 10730.06z"/>
    <path id="85" class="fil27" d="M32881.88 16053.89l-56.65 6.49 -1229.47 -10730.05 56.65 -6.49 1229.47 10730.05z"/>
    <path id="86" class="fil27" d="M32844.11 16058.22l-56.65 6.49 -1229.47 -10730.05 56.65 -6.49 1229.47 10730.05z"/>
    <path id="87" class="fil26" d="M32806.34 16062.55l-56.65 6.49 -1229.47 -10730.05 56.66 -6.49 1229.46 10730.05z"/>
    <path id="88" class="fil26" d="M32768.58 16066.88l-56.66 6.49 -1229.47 -10730.06 56.66 -6.49 1229.47 10730.06z"/>
    <path id="89" class="fil26" d="M32730.81 16071.2l-56.66 6.5 -1229.46 -10730.06 56.65 -6.49 1229.47 10730.05z"/>
    <path id="90" class="fil26" d="M32693.04 16075.53l-56.65 6.49 -1229.47 -10730.05 56.65 -6.49 1229.47 10730.05z"/>
    <path id="91" class="fil25" d="M32655.27 16079.86l-56.65 6.49 -1229.47 -10730.05 56.65 -6.49 1229.47 10730.05z"/>
    <path id="92" class="fil25" d="M32617.5 16084.19l-56.65 6.49 -1229.47 -10730.06 56.65 -6.49 1229.47 10730.06z"/>
    <path id="93" class="fil25" d="M32579.73 16088.51l-56.65 6.5 -1229.47 -10730.06 56.65 -6.49 1229.47 10730.05z"/>
    <path id="94" class="fil25" d="M32541.96 16092.84l-56.65 6.49 -1229.47 -10730.05 56.65 -6.49 1229.47 10730.05z"/>
    <path id="95" class="fil24" d="M32504.19 16097.17l-56.65 6.49 -1229.47 -10730.05 56.66 -6.49 1229.46 10730.05z"/>
    <path id="96" class="fil23" d="M32466.43 16101.5l-56.66 6.49 -1229.47 -10730.06 56.66 -6.49 1229.47 10730.06z"/>
    <path id="97" class="fil23" d="M32428.66 16105.82l-56.66 6.5 -1229.46 -10730.06 56.65 -6.49 1229.47 10730.05z"/>
    <path id="98" class="fil23" d="M32390.89 16110.15l-56.65 6.49 -1229.47 -10730.05 56.65 -6.49 1229.47 10730.05z"/>
    <path id="99" class="fil22" d="M32353.12 16114.48l-56.65 6.49 -1229.47 -10730.05 56.65 -6.49 1229.47 10730.05z"/>
    <path id="100" class="fil21" d="M32315.35 16118.81l-56.65 6.49 -1229.47 -10730.05 56.65 -6.5 1229.47 10730.06z"/>
    <path id="101" class="fil21" d="M32277.58 16123.13l-56.65 6.5 -1229.47 -10730.06 56.65 -6.49 1229.47 10730.05z"/>
    <path id="102" class="fil21" d="M32239.81 16127.46l-56.65 6.49 -1229.47 -10730.05 56.65 -6.49 1229.47 10730.05z"/>
    <path id="103" class="fil21" d="M32202.04 16131.79l-56.65 6.49 -1229.47 -10730.05 56.66 -6.49 1229.46 10730.05z"/>
    <path id="104" class="fil21" d="M32164.28 16136.12l-56.66 6.49 -1229.47 -10730.05 56.66 -6.5 1229.47 10730.06z"/>
    <path id="105" class="fil20" d="M32126.51 16140.45l-56.66 6.49 -1229.46 -10730.06 56.65 -6.49 1229.47 10730.06z"/>
    <path id="106" class="fil20" d="M32088.74 16144.77l-56.65 6.49 -1229.47 -10730.05 56.65 -6.49 1229.47 10730.05z"/>
    <path id="107" class="fil20" d="M32050.97 16149.1l-56.65 6.49 -1229.47 -10730.05 56.65 -6.49 1229.47 10730.05z"/>
    <path id="108" class="fil20" d="M32013.2 16153.43l-56.65 6.49 -1229.47 -10730.05 56.65 -6.5 1229.47 10730.06z"/>
    <path id="109" class="fil19" d="M31975.43 16157.76l-56.65 6.49 -1229.47 -10730.06 56.65 -6.49 1229.47 10730.06z"/>
    <path id="110" class="fil19" d="M31937.66 16162.08l-56.65 6.49 -1229.47 -10730.05 56.65 -6.49 1229.47 10730.05z"/>
    <path id="111" class="fil18" d="M31899.9 16166.41l-56.66 6.49 -1229.47 -10730.05 56.66 -6.49 1229.47 10730.05z"/>
    <path id="112" class="fil18" d="M31862.13 16170.74l-56.66 6.49 -1229.47 -10730.05 56.66 -6.49 1229.47 10730.05z"/>
    <path id="113" class="fil17" d="M31824.36 16175.07l-56.66 6.49 -1229.46 -10730.06 56.65 -6.49 1229.47 10730.06z"/>
    <path id="114" class="fil17" d="M31786.59 16179.39l-56.65 6.5 -1229.47 -10730.06 56.65 -6.49 1229.47 10730.05z"/>
    <path id="115" class="fil16" d="M31748.82 16183.72l-56.65 6.49 -1229.47 -10730.05 56.65 -6.49 1229.47 10730.05z"/>
    <path id="116" class="fil16" d="M31711.05 16188.05l-56.65 6.49 -1229.47 -10730.05 56.65 -6.49 1229.47 10730.05z"/>
    <path id="117" class="fil16" d="M31673.28 16192.38l-56.65 6.49 -1229.47 -10730.06 56.65 -6.49 1229.47 10730.06z"/>
    <path id="118" class="fil15" d="M31635.51 16196.7l-56.65 6.5 -1229.47 -10730.06 56.66 -6.49 1229.46 10730.05z"/>
    <path id="119" class="fil15" d="M31597.75 16201.03l-56.66 6.49 -1229.47 -10730.05 56.66 -6.49 1229.47 10730.05z"/>
    <path id="120" class="fil15" d="M31559.98 16205.36l-56.66 6.49 -1229.47 -10730.05 56.66 -6.49 1229.47 10730.05z"/>
    <path id="121" class="fil15" d="M31522.21 16209.69l-56.66 6.49 -1229.46 -10730.05 56.65 -6.5 1229.47 10730.06z"/>
    <path id="122" class="fil14" d="M31484.44 16214.01l-56.65 6.5 -1229.47 -10730.06 56.65 -6.49 1229.47 10730.05z"/>
    <path id="123" class="fil13" d="M31446.67 16218.34l-56.65 6.49 -1229.47 -10730.05 56.65 -6.49 1229.47 10730.05z"/>
    <path id="124" class="fil13" d="M31408.9 16222.67l-56.65 6.49 -1229.47 -10730.05 56.65 -6.49 1229.47 10730.05z"/>
    <path id="125" class="fil12" d="M31371.13 16227l-56.65 6.49 -1229.47 -10730.05 56.65 -6.5 1229.47 10730.06z"/>
    <path id="126" class="fil12" d="M31333.36 16231.33l-56.65 6.49 -1229.47 -10730.06 56.66 -6.49 1229.46 10730.06z"/>
    <path id="127" class="fil11" d="M31295.6 16235.65l-56.66 6.49 -1229.47 -10730.05 56.66 -6.49 1229.47 10730.05z"/>
    <path id="128" class="fil11" d="M31257.83 16239.98l-56.66 6.49 -1229.47 -10730.05 56.66 -6.49 1229.47 10730.05z"/>
    <path id="129" class="fil11" d="M31220.06 16244.31l-56.66 6.49 -1229.46 -10730.05 56.65 -6.5 1229.47 10730.06z"/>
    <path id="130" class="fil11" d="M31182.29 16248.64l-56.65 6.49 -1229.47 -10730.06 56.65 -6.49 1229.47 10730.06z"/>
    <path id="131" class="fil10" d="M31144.52 16252.96l-56.65 6.49 -1229.47 -10730.05 56.65 -6.49 1229.47 10730.05z"/>
    <path id="132" class="fil10" d="M31106.75 16257.29l-56.65 6.49 -1229.47 -10730.05 56.65 -6.49 1229.47 10730.05z"/>
    <path id="133" class="fil10" d="M31068.98 16261.62l-56.65 6.49 -1229.47 -10730.05 56.65 -6.49 1229.47 10730.05z"/>
    <path id="134" class="fil9" d="M31031.21 16265.95l-56.65 6.49 -1229.47 -10730.06 56.66 -6.49 1229.46 10730.06z"/>
    <path id="135" class="fil8" d="M30993.45 16270.27l-56.66 6.5 -1229.47 -10730.06 56.66 -6.49 1229.47 10730.05z"/>
    <path id="136" class="fil8" d="M30955.68 16274.6l-56.66 6.49 -1229.47 -10730.05 56.66 -6.49 1229.47 10730.05z"/>
    <path id="137" class="fil8" d="M30917.91 16278.93l-56.65 6.49 -1229.47 -10730.05 56.65 -6.49 1229.47 10730.05z"/>
    <path id="138" class="fil8" d="M30880.14 16283.26l-56.65 6.49 -1229.47 -10730.06 56.65 -6.49 1229.47 10730.06z"/>
    <path id="139" class="fil8" d="M30842.37 16287.58l-56.65 6.5 -1229.47 -10730.06 56.65 -6.49 1229.47 10730.05z"/>
    <path id="140" class="fil7" d="M30804.6 16291.91l-56.65 6.49 -1229.47 -10730.05 56.65 -6.49 1229.47 10730.05z"/>
    <path id="141" class="fil7" d="M30766.83 16296.24l-56.65 6.49 -1229.47 -10730.05 56.65 -6.49 1229.47 10730.05z"/>
    <path id="142" class="fil7" d="M30729.06 16300.57l-56.65 6.49 -1229.47 -10730.06 56.66 -6.49 1229.46 10730.06z"/>
    <path id="143" class="fil7" d="M30691.3 16304.89l-56.66 6.5 -1229.47 -10730.06 56.66 -6.49 1229.47 10730.05z"/>
    <path id="144" class="fil6" d="M30653.53 16309.22l-56.66 6.49 -1229.46 -10730.05 56.65 -6.49 1229.47 10730.05z"/>
    <path id="145" class="fil6" d="M30615.76 16313.55l-56.65 6.49 -1229.47 -10730.05 56.65 -6.49 1229.47 10730.05z"/>
    <path id="146" class="fil6" d="M30577.99 16317.88l-56.65 6.49 -1229.47 -10730.05 56.65 -6.5 1229.47 10730.06z"/>
    <path id="147" class="fil5" d="M30540.22 16322.2l-56.65 6.5 -1229.47 -10730.06 56.65 -6.49 1229.47 10730.05z"/>
    <path id="148" class="fil5" d="M30502.45 16326.53l-56.65 6.49 -1229.47 -10730.05 56.65 -6.49 1229.47 10730.05z"/>
    <path id="149" class="fil4" d="M30464.68 16330.86l-56.65 6.49 -1229.47 -10730.05 56.65 -6.49 1229.47 10730.05z"/>
    <path id="150" class="fil4" d="M30426.91 16335.19l-56.65 6.49 -1229.47 -10730.05 56.66 -6.5 1229.46 10730.06z"/>
    <path id="151" class="fil4" d="M30389.15 16339.52l-56.66 6.49 -1229.47 -10730.06 56.66 -6.49 1229.47 10730.06z"/>
    <path id="152" class="fil4" d="M30351.38 16343.84l-56.66 6.49 -1229.46 -10730.05 56.65 -6.49 1229.47 10730.05z"/>
    <path id="153" class="fil3" d="M30313.61 16348.17l-56.65 6.49 -1229.47 -10730.05 56.65 -6.49 1229.47 10730.05z"/>
    <path id="154" class="fil2" d="M30275.84 16352.5l-56.65 6.49 -1229.47 -10730.05 56.65 -6.5 1229.47 10730.06z"/>
    <path id="155" class="fil2" d="M30238.07 16356.83l-56.65 6.49 -1229.47 -10730.06 56.65 -6.49 1229.47 10730.06z"/>
    <path id="156" class="fil2" d="M30200.3 16361.15l-56.65 6.49 -1229.47 -10730.05 56.65 -6.49 1229.47 10730.05z"/>
    <path id="157" class="fil1" d="M30162.53 16365.48l-56.65 6.49 -1229.47 -10730.05 56.65 -6.49 1229.47 10730.05z"/>
    <path id="158" class="fil1" d="M30124.76 16369.81l-56.65 6.49 -1229.47 -10730.05 56.66 -6.49 1229.46 10730.05z"/>
    <path id="159" class="fil0" d="M30087 16374.14l-56.66 6.49 -1229.47 -10730.06 56.66 -6.49 1229.47 10730.06z"/>
    <path id="160" class="fil0" d="M30049.23 16378.46l-56.66 6.5 -1229.46 -10730.06 56.65 -6.49 1229.47 10730.05z"/>
    <path id="161" class="fil0" d="M30011.46 16382.79l-56.65 6.49 -1229.47 -10730.05 56.65 -6.49 1229.47 10730.05z"/>
    <path id="162" class="fil30" d="M29973.69 16387.12l-56.65 6.49 -1229.47 -10730.05 56.65 -6.49 1229.47 10730.05z"/>
    <path id="163" class="fil30" d="M29935.92 16391.45l-56.65 6.49 -1229.47 -10730.06 56.65 -6.49 1229.47 10730.06z"/>
    <path id="164" class="fil31" d="M29898.15 16395.77l-56.65 6.5 -1229.47 -10730.06 56.65 -6.49 1229.47 10730.05z"/>
    <path id="165" class="fil31" d="M29860.38 16400.1l-56.65 6.49 -1229.47 -10730.05 56.65 -6.49 1229.47 10730.05z"/>
    <path id="166" class="fil32" d="M29822.62 16404.43l-56.66 6.49 -1229.47 -10730.05 56.66 -6.49 1229.47 10730.05z"/>
    <path id="167" class="fil32" d="M29784.85 16408.76l-56.66 6.49 -1229.47 -10730.05 56.66 -6.5 1229.47 10730.06z"/>
    <path id="168" class="fil32" d="M29747.08 16413.08l-56.66 6.5 -1229.46 -10730.06 56.65 -6.49 1229.47 10730.05z"/>
    <path id="169" class="fil32" d="M29709.31 16417.41l-56.65 6.49 -1229.47 -10730.05 56.65 -6.49 1229.47 10730.05z"/>
    <path id="170" class="fil32" d="M29671.54 16421.74l-56.65 6.49 -1229.47 -10730.05 56.65 -6.49 1229.47 10730.05z"/>
    <path id="171" class="fil33" d="M29633.77 16426.07l-56.65 6.49 -1229.47 -10730.05 56.65 -6.5 1229.47 10730.06z"/>
    <path id="172" class="fil34" d="M29596 16430.4l-56.65 6.49 -1229.47 -10730.06 56.65 -6.49 1229.47 10730.06z"/>
    <path id="173" class="fil34" d="M29558.23 16434.72l-56.65 6.49 -1229.47 -10730.05 56.66 -6.49 1229.46 10730.05z"/>
    <path id="174" class="fil35" d="M29520.47 16439.05l-56.66 6.49 -1229.47 -10730.05 56.66 -6.49 1229.47 10730.05z"/>
    <path id="175" class="fil36" d="M29482.7 16443.38l-56.66 6.49 -1229.47 -10730.05 56.66 -6.5 1229.47 10730.06z"/>
    <path id="176" class="fil36" d="M29444.93 16447.71l-56.66 6.49 -1229.46 -10730.06 56.65 -6.49 1229.47 10730.06z"/>
    <path id="177" class="fil36" d="M29407.16 16452.03l-56.65 6.49 -1229.47 -10730.05 56.65 -6.49 1229.47 10730.05z"/>
    <path id="178" class="fil36" d="M29369.39 16456.36l-56.65 6.49 -1229.47 -10730.05 56.65 -6.49 1229.47 10730.05z"/>
    <path id="179" class="fil37" d="M29331.62 16460.69l-56.65 6.49 -1229.47 -10730.05 56.65 -6.49 1229.47 10730.05z"/>
    <path id="180" class="fil37" d="M29293.85 16465.02l-56.65 6.49 -1229.47 -10730.06 56.65 -6.49 1229.47 10730.06z"/>
    <path id="181" class="fil37" d="M29256.08 16469.34l-56.65 6.5 -1229.47 -10730.06 56.66 -6.49 1229.46 10730.05z"/>
    <path id="182" class="fil37" d="M29218.32 16473.67l-56.66 6.49 -1229.47 -10730.05 56.66 -6.49 1229.47 10730.05z"/>
    <path id="183" class="fil38" d="M29180.55 16478l-56.66 6.49 -1229.47 -10730.05 56.66 -6.49 1229.47 10730.05z"/>
    <path id="184" class="fil39" d="M29142.78 16482.33l-56.66 6.49 -1229.46 -10730.06 56.65 -6.49 1229.47 10730.06z"/>
    <path id="185" class="fil39" d="M29105.01 16486.65l-56.65 6.5 -1229.47 -10730.06 56.65 -6.49 1229.47 10730.05z"/>
    <path id="186" class="fil39" d="M29067.24 16490.98l-56.65 6.49 -1229.47 -10730.05 56.65 -6.49 1229.47 10730.05z"/>
    <path id="187" class="fil39" d="M29029.47 16495.31l-56.65 6.49 -1229.47 -10730.05 56.65 -6.49 1229.47 10730.05z"/>
    <path id="188" class="fil40" d="M28991.7 16499.64l-56.65 6.49 -1229.47 -10730.06 56.65 -6.49 1229.47 10730.06z"/>
    <path id="189" class="fil40" d="M28953.93 16503.96l-56.65 6.5 -1229.47 -10730.06 56.66 -6.49 1229.46 10730.05z"/>
    <path id="190" class="fil40" d="M28916.17 16508.29l-56.66 6.49 -1229.47 -10730.05 56.66 -6.49 1229.47 10730.05z"/>
    <path id="191" class="fil40" d="M28878.4 16512.62l-56.66 6.49 -1229.47 -10730.05 56.66 -6.49 1229.47 10730.05z"/>
    <path id="192" class="fil40" d="M28840.63 16516.95l-56.65 6.49 -1229.47 -10730.05 56.65 -6.5 1229.47 10730.06z"/>
    <path id="193" class="fil41" d="M28802.86 16521.27l-56.65 6.5 -1229.47 -10730.06 56.65 -6.49 1229.47 10730.05z"/>
    <path id="194" class="fil41" d="M28765.09 16525.6l-56.65 6.49 -1229.47 -10730.05 56.65 -6.49 1229.47 10730.05z"/>
    <path id="195" class="fil41" d="M28727.32 16529.93l-56.65 6.49 -1229.47 -10730.05 56.65 -6.49 1229.47 10730.05z"/>
    <path id="196" class="fil42" d="M28689.55 16534.26l-56.65 6.49 -1229.47 -10730.05 56.65 -6.5 1229.47 10730.06z"/>
    <path id="197" class="fil43" d="M28651.78 16538.59l-56.65 6.49 -1229.47 -10730.06 56.66 -6.49 1229.46 10730.06z"/>
    <path id="198" class="fil43" d="M28614.02 16542.91l-56.66 6.49 -1229.47 -10730.05 56.66 -6.49 1229.47 10730.05z"/>
    <path id="199" class="fil43" d="M28576.25 16547.24l-56.66 6.49 -1229.46 -10730.05 56.65 -6.49 1229.47 10730.05z"/>
    <path id="200" class="fil43" d="M28538.48 16551.57l-56.65 6.49 -1229.47 -10730.05 56.65 -6.5 1229.47 10730.06z"/>
    <path id="201" class="fil44" d="M28500.71 16555.9l-56.65 6.49 -1229.47 -10730.06 56.65 -6.49 1229.47 10730.06z"/>
    <path id="202" class="fil44" d="M28462.94 16560.22l-56.65 6.49 -1229.47 -10730.05 56.65 -6.49 1229.47 10730.05z"/>
    <path id="203" class="fil45" d="M28425.17 16564.55l-56.65 6.49 -1229.47 -10730.05 56.65 -6.49 1229.47 10730.05z"/>
    <path id="204" class="fil45" d="M28387.4 16568.88l-56.65 6.49 -1229.47 -10730.05 56.65 -6.49 1229.47 10730.05z"/>
    <path id="205" class="fil45" d="M28349.63 16573.21l-56.65 6.49 -1229.47 -10730.06 56.66 -6.49 1229.46 10730.06z"/>
    <path id="206" class="fil46" d="M28311.87 16577.53l-56.66 6.5 -1229.47 -10730.06 56.66 -6.49 1229.47 10730.05z"/>
    <path id="207" class="fil46" d="M28274.1 16581.86l-56.66 6.49 -1229.46 -10730.05 56.65 -6.49 1229.47 10730.05z"/>
    <path id="208" class="fil47" d="M28236.33 16586.19l-56.65 6.49 -1229.47 -10730.05 56.65 -6.49 1229.47 10730.05z"/>
    <path id="209" class="fil47" d="M28198.56 16590.52l-56.65 6.49 -1229.47 -10730.06 56.65 -6.49 1229.47 10730.06z"/>
    <path id="210" class="fil48" d="M28160.79 16594.84l-56.65 6.5 -1229.47 -10730.06 56.65 -6.49 1229.47 10730.05z"/>
    <path id="211" class="fil48" d="M28123.02 16599.17l-56.65 6.49 -1229.47 -10730.05 56.65 -6.49 1229.47 10730.05z"/>
    <path id="212" class="fil48" d="M28085.25 16603.5l-56.65 6.49 -1229.47 -10730.05 56.65 -6.49 1229.47 10730.05z"/>
    <path id="213" class="fil49" d="M28047.48 16607.83l-56.65 6.49 -1229.47 -10730.05 56.66 -6.5 1229.46 10730.06z"/>
    <path id="214" class="fil49" d="M28009.72 16612.15l-56.66 6.5 -1229.47 -10730.06 56.66 -6.49 1229.47 10730.05z"/>
    <path id="215" class="fil50" d="M27971.95 16616.48l-56.66 6.49 -1229.46 -10730.05 56.65 -6.49 1229.47 10730.05z"/>
    <path id="216" class="fil50" d="M27934.18 16620.81l-56.65 6.49 -1229.47 -10730.05 56.65 -6.49 1229.47 10730.05z"/>
    <path id="217" class="fil50" d="M27896.41 16625.14l-56.65 6.49 -1229.47 -10730.05 56.65 -6.5 1229.47 10730.06z"/>
    <path id="218" class="fil50" d="M27858.64 16629.47l-56.65 6.49 -1229.47 -10730.06 56.65 -6.49 1229.47 10730.06z"/>
    <path id="219" class="fil51" d="M27820.87 16633.79l-56.65 6.49 -1229.47 -10730.05 56.65 -6.49 1229.47 10730.05z"/>
    <path id="220" class="fil52" d="M27783.1 16638.12l-56.65 6.49 -1229.47 -10730.05 56.65 -6.49 1229.47 10730.05z"/>
    <path id="221" class="fil52" d="M27745.34 16642.45l-56.66 6.49 -1229.47 -10730.05 56.66 -6.5 1229.47 10730.06z"/>
    <path id="222" class="fil52" d="M27707.57 16646.78l-56.66 6.49 -1229.47 -10730.06 56.66 -6.49 1229.47 10730.06z"/>
    <path id="223" class="fil53" d="M27669.8 16651.1l-56.66 6.49 -1229.46 -10730.05 56.65 -6.49 1229.47 10730.05z"/>
    <path id="224" class="fil53" d="M27632.03 16655.43l-56.65 6.49 -1229.47 -10730.05 56.65 -6.49 1229.47 10730.05z"/>
    <path id="225" class="fil53" d="M27594.26 16659.76l-56.65 6.49 -1229.47 -10730.05 56.65 -6.49 1229.47 10730.05z"/>
    <path id="226" class="fil53" d="M27556.49 16664.09l-56.65 6.49 -1229.47 -10730.06 56.65 -6.49 1229.47 10730.06z"/>
    <path id="227" class="fil53" d="M27518.72 16668.41l-56.65 6.5 -1229.47 -10730.06 56.65 -6.49 1229.47 10730.05z"/>
    <path id="228" class="fil54" d="M27480.95 16672.74l-56.65 6.49 -1229.47 -10730.05 56.66 -6.49 1229.46 10730.05z"/>
    <path id="229" class="fil54" d="M27443.19 16677.07l-56.66 6.49 -1229.47 -10730.05 56.66 -6.49 1229.47 10730.05z"/>
    <path id="230" class="fil54" d="M27405.42 16681.4l-56.66 6.49 -1229.47 -10730.06 56.66 -6.49 1229.47 10730.06z"/>
    <path id="231" class="fil54" d="M27367.65 16685.72l-56.66 6.5 -1229.46 -10730.06 56.65 -6.49 1229.47 10730.05z"/>
    <path id="232" class="fil55" d="M27329.88 16690.05l-56.65 6.49 -1229.47 -10730.05 56.65 -6.49 1229.47 10730.05z"/>
    <path id="233" class="fil56" d="M27292.11 16694.38l-56.65 6.49 -1229.47 -10730.05 56.65 -6.49 1229.47 10730.05z"/>
    <path id="234" class="fil56" d="M27254.34 16698.71l-56.65 6.49 -1229.47 -10730.06 56.65 -6.49 1229.47 10730.06z"/>
    <path id="235" class="fil56" d="M27216.57 16703.03l-56.65 6.5 -1229.47 -10730.06 56.65 -6.49 1229.47 10730.05z"/>
    <path id="236" class="fil56" d="M27178.8 16707.36l-56.65 6.49 -1229.47 -10730.05 56.66 -6.49 1229.46 10730.05z"/>
    <path id="237" class="fil57" d="M27141.04 16711.69l-56.66 6.49 -1229.47 -10730.05 56.66 -6.49 1229.47 10730.05z"/>
    <path id="238" class="fil57" d="M27103.27 16716.02l-56.66 6.49 -1229.47 -10730.05 56.66 -6.5 1229.47 10730.06z"/>
    <path id="239" class="fil57" d="M27065.5 16720.34l-56.66 6.5 -1229.46 -10730.06 56.65 -6.49 1229.47 10730.05z"/>
    <path id="240" class="fil57" d="M27027.73 16724.67l-56.65 6.49 -1229.47 -10730.05 56.65 -6.49 1229.47 10730.05z"/>
    <path id="241" class="fil58" d="M26989.96 16729l-56.65 6.49 -1229.47 -10730.05 56.65 -6.49 1229.47 10730.05z"/>
    <path id="242" class="fil59" d="M26952.19 16733.33l-56.65 6.49 -1229.47 -10730.05 56.65 -6.5 1229.47 10730.06z"/>
    <path id="243" class="fil59" d="M26914.42 16737.66l-56.65 6.49 -1229.47 -10730.06 56.65 -6.49 1229.47 10730.06z"/>
    <path id="244" class="fil60" d="M26876.65 16741.98l-56.65 6.49 -1229.47 -10730.05 56.66 -6.49 1229.46 10730.05z"/>
    <path id="245" class="fil61" d="M26838.89 16746.31l-56.66 6.49 -1229.47 -10730.05 56.66 -6.49 1229.47 10730.05z"/>
    <path id="246" class="fil61" d="M26801.12 16750.64l-56.66 6.49 -1229.47 -10730.05 56.66 -6.5 1229.47 10730.06z"/>
    <path id="247" class="fil61" d="M26763.35 16754.97l-56.65 6.49 -1229.47 -10730.06 56.65 -6.49 1229.47 10730.06z"/>
    <path id="248" class="fil61" d="M26725.58 16759.29l-56.65 6.49 -1229.47 -10730.05 56.65 -6.49 1229.47 10730.05z"/>
    <path id="249" class="fil61" d="M26687.81 16763.62l-56.65 6.49 -1229.47 -10730.05 56.65 -6.49 1229.47 10730.05z"/>
    <path id="250" class="fil62" d="M26650.04 16767.95l-56.65 6.49 -1229.47 -10730.05 56.65 -6.49 1229.47 10730.05z"/>
    <path id="251" class="fil62" d="M26612.27 16772.28l-56.65 6.49 -1229.47 -10730.06 56.65 -6.49 1229.47 10730.06z"/>
    <path id="252" class="fil63" d="M26574.5 16776.6l-56.65 6.5 -1229.47 -10730.06 56.66 -6.49 1229.46 10730.05z"/>
    <path id="253" class="fil63" d="M26536.74 16780.93l-56.66 6.49 -1229.47 -10730.05 56.66 -6.49 1229.47 10730.05z"/>
    <path id="254" class="fil64" d="M26498.97 16785.26l-56.66 6.49 -1229.46 -10730.05 56.65 -6.49 1229.47 10730.05z"/>
    <path id="255" class="fil64" d="M26461.2 16789.59l-56.65 6.49 -1229.47 -10730.06 56.65 -6.49 1229.47 10730.06z"/>
    <path id="256" class="fil64" d="M26423.43 16793.91l-56.65 6.5 -1229.47 -10730.06 56.65 -6.49 1229.47 10730.05z"/>
    <path id="257" class="fil65" d="M26385.66 16798.24l-56.65 6.49 -1229.47 -10730.05 56.65 -6.49 1229.47 10730.05z"/>
    <path id="258" class="fil65" d="M26347.89 16802.57l-56.65 6.49 -1229.47 -10730.05 56.65 -6.49 1229.47 10730.05z"/>
    <path id="259" class="fil66" d="M26310.12 16806.9l-56.65 6.49 -1229.47 -10730.05 56.65 -6.5 1229.47 10730.06z"/>
    <path id="260" class="fil66" d="M26272.35 16811.22l-56.65 6.5 -1229.47 -10730.06 56.66 -6.49 1229.46 10730.05z"/>
    <path id="261" class="fil66" d="M26234.59 16815.55l-56.66 6.49 -1229.47 -10730.05 56.66 -6.49 1229.47 10730.05z"/>
    <path id="262" class="fil67" d="M26196.82 16819.88l-56.66 6.49 -1229.46 -10730.05 56.65 -6.49 1229.47 10730.05z"/>
    <path id="263" class="fil68" d="M26159.05 16824.21l-56.65 6.49 -1229.47 -10730.05 56.65 -6.5 1229.47 10730.06z"/>
    <path id="264" class="fil68" d="M26121.28 16828.54l-56.65 6.49 -1229.47 -10730.06 56.65 -6.49 1229.47 10730.06z"/>
    <path id="265" class="fil68" d="M26083.51 16832.86l-56.65 6.49 -1229.47 -10730.05 56.65 -6.49 1229.47 10730.05z"/>
    <path id="266" class="fil68" d="M26045.74 16837.19l-56.65 6.49 -1229.47 -10730.05 56.65 -6.49 1229.47 10730.05z"/>
    <path id="267" class="fil69" d="M26007.97 16841.52l-56.65 6.49 -1229.47 -10730.05 56.65 -6.5 1229.47 10730.06z"/>
    <path id="268" class="fil69" d="M25970.2 16845.85l-56.65 6.49 -1229.47 -10730.06 56.66 -6.49 1229.46 10730.06z"/>
    <path id="269" class="fil70" d="M25932.44 16850.17l-56.66 6.49 -1229.47 -10730.05 56.66 -6.49 1229.47 10730.05z"/>
    <path id="270" class="fil70" d="M25894.67 16854.5l-56.66 6.49 -1229.46 -10730.05 56.65 -6.49 1229.47 10730.05z"/>
    <path id="271" class="fil70" d="M25856.9 16858.83l-56.65 6.49 -1229.47 -10730.05 56.65 -6.49 1229.47 10730.05z"/>
    <path id="272" class="fil71" d="M25819.13 16863.16l-56.65 6.49 -1229.47 -10730.06 56.65 -6.49 1229.47 10730.06z"/>
    <path id="273" class="fil71" d="M25781.36 16867.48l-56.65 6.5 -1229.47 -10730.06 56.65 -6.49 1229.47 10730.05z"/>
    <path id="274" class="fil71" d="M25743.59 16871.81l-56.65 6.49 -1229.47 -10730.05 56.65 -6.49 1229.47 10730.05z"/>
    <path id="275" class="fil71" d="M25705.82 16876.14l-56.65 6.49 -1229.47 -10730.05 56.65 -6.49 1229.47 10730.05z"/>
    <path id="276" class="fil72" d="M25668.06 16880.47l-56.66 6.49 -1229.47 -10730.06 56.66 -6.49 1229.47 10730.06z"/>
    <path id="277" class="fil72" d="M25630.29 16884.79l-56.66 6.5 -1229.47 -10730.06 56.66 -6.49 1229.47 10730.05z"/>
    <path id="278" class="fil72" d="M25592.52 16889.12l-56.66 6.49 -1229.46 -10730.05 56.65 -6.49 1229.47 10730.05z"/>
    <path id="279" class="fil72" d="M25554.75 16893.45l-56.65 6.49 -1229.47 -10730.05 56.65 -6.49 1229.47 10730.05z"/>
    <path id="280" class="fil72" d="M25516.98 16897.78l-56.65 6.49 -1229.47 -10730.06 56.65 -6.49 1229.47 10730.06z"/>
    <path id="281" class="fil73" d="M25479.21 16902.1l-56.65 6.5 -1229.47 -10730.06 56.65 -6.49 1229.47 10730.05z"/>
    <path id="282" class="fil74" d="M25441.44 16906.43l-56.65 6.49 -1229.47 -10730.05 56.65 -6.49 1229.47 10730.05z"/>
    <path id="283" class="fil74" d="M25403.67 16910.76l-56.65 6.49 -1229.47 -10730.05 56.66 -6.49 1229.46 10730.05z"/>
    <path id="284" class="fil74" d="M25365.91 16915.09l-56.66 6.49 -1229.47 -10730.05 56.66 -6.5 1229.47 10730.06z"/>
    <path id="285" class="fil75" d="M25328.14 16919.41l-56.66 6.5 -1229.47 -10730.06 56.66 -6.49 1229.47 10730.05z"/>
    <path id="286" class="fil75" d="M25290.37 16923.74l-56.66 6.49 -1229.46 -10730.05 56.65 -6.49 1229.47 10730.05z"/>
    <path id="287" class="fil75" d="M25252.6 16928.07l-56.65 6.49 -1229.47 -10730.05 56.65 -6.49 1229.47 10730.05z"/>
    <path id="288" class="fil75" d="M25214.83 16932.4l-56.65 6.49 -1229.47 -10730.05 56.65 -6.5 1229.47 10730.06z"/>
    <path id="289" class="fil76" d="M25177.06 16936.73l-56.65 6.49 -1229.47 -10730.06 56.65 -6.49 1229.47 10730.06z"/>
    <path id="290" class="fil76" d="M25139.29 16941.05l-56.65 6.49 -1229.47 -10730.05 56.65 -6.49 1229.47 10730.05z"/>
    <path id="291" class="fil77" d="M25101.52 16945.38l-56.65 6.49 -1229.47 -10730.05 56.66 -6.49 1229.46 10730.05z"/>
    <path id="292" class="fil77" d="M25063.76 16949.71l-56.66 6.49 -1229.47 -10730.05 56.66 -6.5 1229.47 10730.06z"/>
    <path id="293" class="fil78" d="M25025.99 16954.04l-56.66 6.49 -1229.47 -10730.06 56.66 -6.49 1229.47 10730.06z"/>
    <path id="294" class="fil79" d="M24988.22 16958.36l-56.66 6.49 -1229.46 -10730.05 56.65 -6.49 1229.47 10730.05z"/>
    <path id="295" class="fil79" d="M24950.45 16962.69l-56.65 6.49 -1229.47 -10730.05 56.65 -6.49 1229.47 10730.05z"/>
    <path id="296" class="fil79" d="M24912.68 16967.02l-56.65 6.49 -1229.47 -10730.05 56.65 -6.49 1229.47 10730.05z"/>
    <path id="297" class="fil79" d="M24874.91 16971.35l-56.65 6.49 -1229.47 -10730.06 56.65 -6.49 1229.47 10730.06z"/>
    <path id="298" class="fil80" d="M24837.14 16975.67l-56.65 6.5 -1229.47 -10730.06 56.65 -6.49 1229.47 10730.05z"/>
    <path id="299" class="fil80" d="M24799.37 16980l-56.65 6.49 -1229.47 -10730.05 56.66 -6.49 1229.46 10730.05z"/>
    <path id="300" class="fil80" d="M24761.61 16984.33l-56.66 6.49 -1229.47 -10730.05 56.66 -6.49 1229.47 10730.05z"/>
    <path id="301" class="fil81" d="M24723.84 16988.66l-56.66 6.49 -1229.47 -10730.06 56.66 -6.49 1229.47 10730.06z"/>
    <path id="302" class="fil81" d="M24686.07 16992.98l-56.65 6.5 -1229.47 -10730.06 56.65 -6.49 1229.47 10730.05z"/>
    <path id="303" class="fil82" d="M24648.3 16997.31l-56.65 6.49 -1229.47 -10730.05 56.65 -6.49 1229.47 10730.05z"/>
    <path id="304" class="fil82" d="M24610.53 17001.64l-56.65 6.49 -1229.47 -10730.05 56.65 -6.49 1229.47 10730.05z"/>
    <path id="305" class="fil83" d="M24572.76 17005.97l-56.65 6.49 -1229.47 -10730.05 56.65 -6.5 1229.47 10730.06z"/>
    <path id="306" class="fil83" d="M24534.99 17010.29l-56.65 6.5 -1229.47 -10730.06 56.65 -6.49 1229.47 10730.05z"/>
    <path id="307" class="fil84" d="M24497.22 17014.62l-56.65 6.49 -1229.47 -10730.05 56.66 -6.49 1229.46 10730.05z"/>
    <path id="308" class="fil84" d="M24459.46 17018.95l-56.66 6.49 -1229.47 -10730.05 56.66 -6.49 1229.47 10730.05z"/>
    <path id="309" class="fil84" d="M24421.69 17023.28l-56.66 6.49 -1229.46 -10730.05 56.65 -6.5 1229.47 10730.06z"/>
    <path id="310" class="fil84" d="M24383.92 17027.61l-56.65 6.49 -1229.47 -10730.06 56.65 -6.49 1229.47 10730.06z"/>
    <path id="311" class="fil85" d="M24346.15 17031.93l-56.65 6.49 -1229.47 -10730.05 56.65 -6.49 1229.47 10730.05z"/>
    <path id="312" class="fil85" d="M24308.38 17036.26l-56.65 6.49 -1229.47 -10730.05 56.65 -6.49 1229.47 10730.05z"/>
    <path id="313" class="fil85" d="M24270.61 17040.59l-56.65 6.49 -1229.47 -10730.05 56.65 -6.5 1229.47 10730.06z"/>
    <path id="314" class="fil85" d="M24232.84 17044.92l-56.65 6.49 -1229.47 -10730.06 56.65 -6.49 1229.47 10730.06z"/>
    <path id="315" class="fil85" d="M24195.07 17049.24l-56.65 6.49 -1229.47 -10730.05 56.66 -6.49 1229.46 10730.05z"/>
    <path id="316" class="fil86" d="M24157.31 17053.57l-56.66 6.49 -1229.47 -10730.05 56.66 -6.49 1229.47 10730.05z"/>
    <path id="317" class="fil87" d="M24119.54 17057.9l-56.66 6.49 -1229.46 -10730.05 56.65 -6.49 1229.47 10730.05z"/>
    <path id="318" class="fil87" d="M24081.77 17062.23l-56.65 6.49 -1229.47 -10730.06 56.65 -6.49 1229.47 10730.06z"/>
    <path id="319" class="fil87" d="M24044 17066.55l-56.65 6.5 -1229.47 -10730.06 56.65 -6.49 1229.47 10730.05z"/>
    <path id="320" class="fil88" d="M24006.23 17070.88l-56.65 6.49 -1229.47 -10730.05 56.65 -6.49 1229.47 10730.05z"/>
    <path id="321" class="fil89" d="M23968.46 17075.21l-56.65 6.49 -1229.47 -10730.05 56.65 -6.49 1229.47 10730.05z"/>
    <path id="322" class="fil89" d="M23930.69 17079.54l-56.65 6.49 -1229.47 -10730.06 56.65 -6.49 1229.47 10730.06z"/>
    <path id="323" class="fil89" d="M23892.92 17083.86l-56.65 6.5 -1229.47 -10730.06 56.66 -6.49 1229.46 10730.05z"/>
    <path id="324" class="fil89" d="M23855.16 17088.19l-56.66 6.49 -1229.47 -10730.05 56.66 -6.49 1229.47 10730.05z"/>
    <path id="325" class="fil90" d="M23817.39 17092.52l-56.66 6.49 -1229.46 -10730.05 56.65 -6.49 1229.47 10730.05z"/>
    <path id="326" class="fil90" d="M23779.62 17096.85l-56.65 6.49 -1229.47 -10730.05 56.65 -6.5 1229.47 10730.06z"/>
    <path id="327" class="fil90" d="M23741.85 17101.17l-56.65 6.5 -1229.47 -10730.06 56.65 -6.49 1229.47 10730.05z"/>
    <path id="328" class="fil90" d="M23704.08 17105.5l-56.65 6.49 -1229.47 -10730.05 56.65 -6.49 1229.47 10730.05z"/>
    <path id="329" class="fil91" d="M23666.31 17109.83l-56.65 6.49 -1229.47 -10730.05 56.65 -6.49 1229.47 10730.05z"/>
    <path id="330" class="fil91" d="M23628.54 17114.16l-56.65 6.49 -1229.47 -10730.05 56.65 -6.5 1229.47 10730.06z"/>
    <path id="331" class="fil92" d="M23590.78 17118.49l-56.66 6.49 -1229.47 -10730.06 56.66 -6.49 1229.47 10730.06z"/>
    <path id="332" class="fil92" d="M23553.01 17122.81l-56.66 6.49 -1229.47 -10730.05 56.66 -6.49 1229.47 10730.05z"/>
    <path id="333" class="fil93" d="M23515.24 17127.14l-56.66 6.49 -1229.46 -10730.05 56.65 -6.49 1229.47 10730.05z"/>
    <path id="334" class="fil93" d="M23477.47 17131.47l-56.65 6.49 -1229.47 -10730.05 56.65 -6.5 1229.47 10730.06z"/>
    <path id="335" class="fil93" d="M23439.7 17135.8l-56.65 6.49 -1229.47 -10730.06 56.65 -6.49 1229.47 10730.06z"/>
    <path id="336" class="fil93" d="M23401.93 17140.12l-56.65 6.49 -1229.47 -10730.05 56.65 -6.49 1229.47 10730.05z"/>
    <path id="337" class="fil93" d="M23364.16 17144.45l-56.65 6.49 -1229.47 -10730.05 56.65 -6.49 1229.47 10730.05z"/>
    <path id="338" class="fil92" d="M23326.39 17148.78l-56.65 6.49 -1229.47 -10730.05 56.66 -6.5 1229.46 10730.06z"/>
    <path id="339" class="fil92" d="M23288.63 17153.11l-56.66 6.49 -1229.47 -10730.06 56.66 -6.49 1229.47 10730.06z"/>
    <path id="340" class="fil91" d="M23250.86 17157.43l-56.66 6.49 -1229.47 -10730.05 56.66 -6.49 1229.47 10730.05z"/>
    <path id="341" class="fil91" d="M23213.09 17161.76l-56.66 6.49 -1229.46 -10730.05 56.65 -6.49 1229.47 10730.05z"/>
    <path id="342" class="fil90" d="M23175.32 17166.09l-56.65 6.49 -1229.47 -10730.05 56.65 -6.49 1229.47 10730.05z"/>
    <path id="343" class="fil90" d="M23137.55 17170.42l-56.65 6.49 -1229.47 -10730.06 56.65 -6.49 1229.47 10730.06z"/>
    <path id="344" class="fil90" d="M23099.78 17174.74l-56.65 6.5 -1229.47 -10730.06 56.65 -6.49 1229.47 10730.05z"/>
    <path id="345" class="fil90" d="M23062.01 17179.07l-56.65 6.49 -1229.47 -10730.05 56.65 -6.49 1229.47 10730.05z"/>
    <path id="346" class="fil89" d="M23024.24 17183.4l-56.65 6.49 -1229.47 -10730.05 56.66 -6.49 1229.46 10730.05z"/>
    <path id="347" class="fil89" d="M22986.48 17187.73l-56.66 6.49 -1229.47 -10730.06 56.66 -6.49 1229.47 10730.06z"/>
    <path id="348" class="fil89" d="M22948.71 17192.05l-56.66 6.5 -1229.47 -10730.06 56.66 -6.49 1229.47 10730.05z"/>
    <path id="349" class="fil89" d="M22910.94 17196.38l-56.66 6.49 -1229.46 -10730.05 56.65 -6.49 1229.47 10730.05z"/>
    <path id="350" class="fil88" d="M22873.17 17200.71l-56.65 6.49 -1229.47 -10730.05 56.65 -6.49 1229.47 10730.05z"/>
    <path id="351" class="fil87" d="M22835.4 17205.04l-56.65 6.49 -1229.47 -10730.05 56.65 -6.5 1229.47 10730.06z"/>
    <path id="352" class="fil87" d="M22797.63 17209.36l-56.65 6.5 -1229.47 -10730.06 56.65 -6.49 1229.47 10730.05z"/>
    <path id="353" class="fil87" d="M22759.86 17213.69l-56.65 6.49 -1229.47 -10730.05 56.65 -6.49 1229.47 10730.05z"/>
    <path id="354" class="fil86" d="M22722.09 17218.02l-56.65 6.49 -1229.47 -10730.05 56.66 -6.49 1229.46 10730.05z"/>
    <path id="355" class="fil85" d="M22684.33 17222.35l-56.66 6.49 -1229.47 -10730.05 56.66 -6.5 1229.47 10730.06z"/>
    <path id="356" class="fil85" d="M22646.56 17226.68l-56.66 6.49 -1229.47 -10730.06 56.66 -6.49 1229.47 10730.06z"/>
    <path id="357" class="fil85" d="M22608.79 17231l-56.65 6.49 -1229.47 -10730.05 56.65 -6.49 1229.47 10730.05z"/>
    <path id="358" class="fil85" d="M22571.02 17235.33l-56.65 6.49 -1229.47 -10730.05 56.65 -6.49 1229.47 10730.05z"/>
    <path id="359" class="fil85" d="M22533.25 17239.66l-56.65 6.49 -1229.47 -10730.05 56.65 -6.5 1229.47 10730.06z"/>
    <path id="360" class="fil84" d="M22495.48 17243.99l-56.65 6.49 -1229.47 -10730.06 56.65 -6.49 1229.47 10730.06z"/>
    <path id="361" class="fil84" d="M22457.71 17248.31l-56.65 6.49 -1229.47 -10730.05 56.65 -6.49 1229.47 10730.05z"/>
    <path id="362" class="fil84" d="M22419.94 17252.64l-56.65 6.49 -1229.47 -10730.05 56.66 -6.49 1229.46 10730.05z"/>
    <path id="363" class="fil84" d="M22382.18 17256.97l-56.66 6.49 -1229.47 -10730.05 56.66 -6.49 1229.47 10730.05z"/>
    <path id="364" class="fil83" d="M22344.41 17261.3l-56.66 6.49 -1229.46 -10730.06 56.65 -6.49 1229.47 10730.06z"/>
    <path id="365" class="fil83" d="M22306.64 17265.62l32.98 -3.78 -1229.47 -10730.05 -32.98 3.78 1229.47 10730.05z"/>
   </g>
  </g>
 </g>
 <g id="Camada_x0020_1_0">
  <metadata id="CorelCorpID_1Corel-Layer"/>
  <path class="fil94" d="M13310.87 16183.81l0 0c-352.03,0 -640.04,-288.28 -640.04,-640.04l0 -5888.42c0,-352.27 288.01,-640.08 640.04,-640.08l0 0c352.04,0 640.05,287.81 640.05,640.08l0 5888.42c0,351.76 -288.01,640.04 -640.05,640.04z"/>
  <path class="fil94" d="M13408.45 16361.5l-3523.65 0c-298.29,0 -542.32,-244.25 -542.32,-542.25l0 -195.59c0,-298.54 244.03,-542.25 542.32,-542.25l3523.65 0c298.29,0 542.34,243.71 542.34,542.25l0 195.59c0,298 -244.05,542.25 -542.34,542.25z"/>
  <path class="fil94" d="M4098.19 1310.15l-3523.59 0c-298.25,0 -542.32,-244.26 -542.32,-542.26l0 -195.58c0,-297.99 244.07,-542.26 542.32,-542.26l3523.59 0c298.32,0 542.42,244.27 542.42,542.26l0 195.58c0,298 -244.1,542.26 -542.42,542.26z"/>
  <path class="fil94" d="M645.88 7191.42l0 0c-352.05,0 -640.06,-288.29 -640.06,-640.05l0 -5888.39c0,-352.32 288.01,-640.04 640.06,-640.04l0 0c352,0 640.02,287.72 640.02,640.04l0 5888.39c0,351.76 -288.02,640.05 -640.02,640.05z"/>
  <path class="fil94" d="M3897.24 6610.65l-260.15 0c-394.77,0 -714.8,-319.98 -714.8,-714.77l0 -2324.65c0,-301.07 244.07,-544.76 545.15,-544.76l599.49 0c301.04,0 545.1,243.69 545.1,544.76l0 2324.65c0,394.79 -320.04,714.77 -714.79,714.77z"/>
  <path class="fil94" d="M11306.37 3394.69c124.55,0 199.28,138.26 131.05,242.19l-984.16 1502.85 -1976.67 2950.84 -155.83 231.99 -18.91 28.11 -18.84 27.7 -984.73 1460.8 -169.24 250.38 -1120.63 1661.04 -786.73 1137.76c0,-24.06 -106.07,206.86 -362.67,356.88 -183.74,107.54 -426.5,107.54 -426.5,107.54l-1265.55 0c-131.43,0 -204.46,-152.1 -122.22,-254.47l0 0c0.58,-1.03 1.07,-1.54 1.64,-2.57l0.55 -0.52c134.29,-188.44 878.82,-1232.99 878.82,-1232.99l266.27 -394.77 1927.88 -2858.67 174.23 -258.11 1004.15 -1488.44 18.84 -28.2 173.1 -256.04 1416.35 -2100.86c37.76,-64.52 248.54,-361.53 248.54,-361.53 0,0 37.19,-48.6 96,-121.34 125.91,-155.68 294.01,-343.54 581.3,-496.14 226.34,-119.85 654.26,-103.43 931.63,-103.43l542.33 0z"/>
  <path class="fil94" d="M8390.63 8602.97l2059.91 3051.21 84.43 125.45 1.64 -1.03 379.16 557.11c314.06,460.83 -16.27,1085.54 -574.31,1085.54l-331.61 0c-221.71,0 -429.99,-106.02 -560.82,-284.71l-92.87 -126.98 -88.43 -133.14 -1879.03 -2785.5 1001.93 -1487.95z"/>
  <path class="fil94" d="M6090.34 8242.29l-1267.46 -1888.86 4.28 -1898.08 0 -501.29 0.85 -483.88 -1.49 -70.16 19.27 28.12 213.92 311.85 1.64 -0.5 13.85 20.48 2023.21 2998.45 -1008.07 1483.87z"/>
  <path class="fil94" d="M19792.42 8562.67c-321.56,0 -586.81,103.43 -796.08,310.78 -209.13,207.34 -345.05,493.12 -407.78,856.67l1802.29 0c28.62,-67.62 49.46,-139.8 62.53,-215.58 46.67,-270.88 13.77,-497.19 -98.72,-679 -112.56,-181.72 -299.92,-272.87 -562.24,-272.87l0 0zm286.51 -1294.44c812.27,0 1414.2,238.62 1805.64,716.85 391.44,478.22 514.28,1140.33 368.52,1986.19 -55.31,321.57 -152.46,664.12 -291.29,1028.17l-3604.51 0c-48.68,380.96 27.49,687.67 228.56,920.14 200.99,232.99 551.17,300.57 1050.32,301.57 290.43,1.03 319.56,2.06 610,3.11 1042.4,70.64 1191.23,705.57 1184.23,1518.67l-3020.15 1.03c-1107.64,0 -1860.39,-855.61 -2065.24,-1894.03 -76.67,-389.15 -74.39,-820.79 7.27,-1294.92 87.45,-507.45 240.18,-964.69 458.25,-1370.72 218.06,-406.07 488.94,-750.67 812.85,-1034.34 323.77,-283.15 693.44,-501.28 1108.86,-653.31 415.49,-152.62 864.39,-228.41 1346.69,-228.41l0 0z"/>
  <path class="fil94" d="M48982.16 8562.67c-321.64,0 -586.95,103.43 -796.16,310.78 -209.19,207.34 -345.11,493.12 -407.77,856.67l1802.51 0c28.19,-67.62 49.1,-139.29 62.45,-215.58 46.61,-270.88 13.85,-497.19 -98.78,-679 -112.71,-181.72 -300.07,-272.87 -562.25,-272.87l0 0zm286.23 -1294.44c812.56,0 1414.29,239.11 1805.93,716.85 391.22,478.22 514.07,1140.33 368.17,1986.19 -55.33,321.57 -152.11,664.63 -290.79,1028.17l-3604.81 0c-48.61,380.96 27.55,687.67 228.56,920.14 201.14,232.99 551.17,300.57 1050.54,302.11 290.29,0.49 319.48,1.52 609.85,2.57 1042.47,71.15 1191.01,705.57 1184.31,1518.67l-3020.3 1.03c-1107.57,0 -1860.39,-855.61 -2065.17,-1894.03 -76.74,-389.15 -74.46,-820.79 7.27,-1294.41 87.51,-507.96 240.11,-964.69 458.18,-1370.72 218.14,-406.58 488.95,-751.18 812.85,-1034.85 323.77,-283.15 693.51,-501.28 1108.86,-653.31 415.56,-152.62 864.39,-228.41 1346.55,-228.41l0 0z"/>
  <path class="fil94" d="M43648.3 11713.23c-27.63,160.76 -15.27,285.71 36.96,374.29 52.55,88.58 176.03,133.14 370.6,133.14 118.5,0 367.17,-39.93 540.77,-65.03l-279.81 1423.46c-177.86,50.69 -377.23,90.62 -598.07,120.31 -220.98,29.73 -445.55,44.56 -673.95,44.56 -338.48,0 -613.21,-50.68 -824.2,-152.06 -210.93,-101.91 -369.67,-237.08 -475.82,-406.55 -106.27,-169 -170.44,-361.53 -192.5,-577.61 -21.98,-215.57 -13.48,-437.77 25.98,-666.17 352.69,-2047.62 705.43,-4095.26 1058.18,-6142.87 292.3,-908.36 1101.51,-1211.51 2227.57,-1142.33l-1215.71 7056.86 0 0z"/>
  <path class="fil94" d="M51263.24 13743.96l1170.53 -6326.2 1988.24 0 -152.61 825.91c261.67,-344.11 562.74,-589.36 904.3,-735.82 341.04,-146.41 688.21,-219.63 1040.97,-219.63 421.91,0 762.95,88.58 1023.05,264.74 259.61,176.65 455.19,411.13 586.31,703.99 130.54,292.37 201.71,630.35 212.49,1013.34 10.7,383.01 -22.55,785.47 -100.86,1207.4l-604.28 3266.27 -2066.04 0 611.86 -3305.2c97.36,-524.84 86.57,-910.39 -31.2,-1155.68 -118.27,-245.25 -345.11,-367.59 -681.01,-367.59 -215.06,0 -411.14,47.04 -587.81,141.83 -176.65,94.71 -325.12,210.93 -445.46,348.67l-802.87 4337.97 -2065.61 0 0 0z"/>
  <path class="fil94" d="M61466.08 12182.76c431.71,0 803.44,-143.87 1115.29,-431.64l492.01 -2855.62c-174.59,-67.59 -409.64,-101.43 -706.07,-101.43 -507.42,0 -913.49,156.75 -1216.57,469.56 -303.71,312.86 -502.36,740.43 -595.51,1282.15 -82.94,481.83 -55.81,875.58 82.37,1180.24 137.77,304.67 414.28,456.74 828.48,456.74l0 0zm2824.93 1434.23l-1942.12 0 135.69 -787c-242.76,279.04 -532.55,501.25 -869.96,666.66 -337.4,164.86 -721.99,247.31 -1153.6,247.31 -346.68,0 -659.54,-74.25 -938.55,-222.23 -279.09,-147.96 -507.43,-359.45 -684.1,-634.41 -176.65,-274.95 -295.5,-607.28 -355.38,-996.43 -59.38,-389.15 -48.1,-824.89 35.33,-1307.21 93.15,-541.73 262.17,-1019.48 506.93,-1434.22 244.75,-414.78 537.61,-761.38 877.58,-1040.98 339.99,-279.08 716.36,-488.51 1130.14,-628.27 412.63,-139.25 839.69,-209.41 1279.52,-209.41 220.2,0 412.21,14.85 576.1,44.54 164.3,29.68 310.27,65.52 438.26,108.06 93.21,-540.76 186.36,-1081.95 279.58,-1622.64 309.78,-1008.2 1219.14,-1148.54 2227.85,-1144.39l-1543.27 8960.62 0 0z"/>
  <path class="fil94" d="M38301.73 8795.64c-230.13,0 -436.76,35.84 -619.71,108.57 -182.94,72.17 -350.89,181.23 -503.71,326.15l-500.01 2902.21c87.87,34.33 190.01,59.93 306.5,76.82 116.28,17.39 251.26,25.59 404.72,25.59 536.98,0 953.18,-163.82 1248.4,-492.07 295.21,-328.21 490.58,-769.59 586.01,-1323.6 79.31,-460.34 49.83,-845.88 -88.36,-1157.19 -138.27,-310.8 -416.13,-466.48 -833.84,-466.48l0 0zm-2845.56 -1444.97l1956.4 0 -127.7 741.4c509.01,-579.59 1185.46,-869.39 2029.43,-869.39 349.53,0 664.89,74.74 945.98,223.7 281.21,149.05 510.92,362.54 689.07,639.55 178.24,277.02 297.5,611.42 357.82,1003.64 60.17,392.2 48.54,831.01 -35.19,1316.94 -95.44,554.02 -266.17,1037.9 -512.13,1451.62 -245.98,413.21 -540.27,760.37 -882.81,1041.98 -342.54,281.13 -721.92,492.1 -1138.34,632.89 -416.35,140.81 -846.25,210.96 -1289.51,210.96 -221.56,0 -415.14,-14.83 -580.37,-44.56 -165.39,-30.2 -312.64,-66.05 -441.62,-109.04l-458.25 2660.03 -2045.84 0 1533.06 -8899.72 0 0z"/>
 </g>
</svg>
